%FSLAX35Y35*%
%MOIN*%
%IN*%
%ADD10C,0.00591*%
%ADD11C,0.00055*%
%ADD12C,0.00394*%
%ADD13C,0.02598*%
%ADD14C,0.03937*%
%AMR_15*21,1,0.04528,0.12598,0,0,0.000*%
%ADD15R_15*%
%AMR_16*21,1,0.04646,0.03346,0,0,0.000*%
%ADD16R_16*%
%AMR_17*21,1,0.06299,0.19685,0,0,0.000*%
%ADD17R_17*%
%AMR_18*21,1,0.08661,0.03150,0,0,0.000*%
%ADD18R_18*%
%AMR_19*21,1,0.09449,0.19685,0,0,0.000*%
%ADD19R_19*%
%AMR_20*21,1,0.09843,0.19685,0,0,0.000*%
%ADD20R_20*%
%AMR_21*21,1,0.13780,0.19685,0,0,0.000*%
%ADD21R_21*%
%AMR_22*21,1,0.16142,0.19685,0,0,0.000*%
%ADD22R_22*%
%AMR_23*21,1,0.19685,0.18819,0,0,0.000*%
%ADD23R_23*%
%AMR_24*21,1,0.19685,0.19685,0,0,0.000*%
%ADD24R_24*%
%AMELL_25*4,1,16,0.04331,0.00000,0.04001,0.01507,0.03062,0.02784,0.01657,0.03637,0.00000,0.03937,-0.01657,0.03637,-0.03062,0.02784,-0.04001,0.01507,-0.04331,0.00000,-0.04001,-0.01507,-0.03062,-0.02784,-0.01657,-0.03637,0.00000,-0.03937,0.01657,-0.03637,0.03062,-0.02784,0.04001,-0.01507,0.04331,0.00000,0.000*%
%ADD25ELL_25*%
%AMELL_26*4,1,16,0.04331,0.00000,0.04001,0.02260,0.03062,0.04176,0.01657,0.05456,0.00000,0.05906,-0.01657,0.05456,-0.03062,0.04176,-0.04001,0.02260,-0.04331,0.00000,-0.04001,-0.02260,-0.03062,-0.04176,-0.01657,-0.05456,0.00000,-0.05906,0.01657,-0.05456,0.03062,-0.04176,0.04001,-0.02260,0.04331,0.00000,0.000*%
%ADD26ELL_26*%
G54D13*
X62952Y1621D03*
X81771Y1621D03*
X100590Y1621D03*
X119409Y1621D03*
X138228Y1621D03*
X157047Y1621D03*
X194685Y1621D03*
X175866Y1621D03*
X213503Y1621D03*
X232322Y1621D03*
X251141Y1621D03*
X269960Y1621D03*
X288779Y1621D03*
X307598Y1621D03*
X326417Y1621D03*
X345236Y1621D03*
X364055Y1621D03*
X382874Y1621D03*
X401692Y1621D03*
X439330Y1621D03*
X420511Y1621D03*
X458149Y1621D03*
X476968Y1621D03*
X495787Y1621D03*
X514606Y1621D03*
X533425Y1621D03*
X552244Y1621D03*
X571062Y1621D03*
X589881Y1621D03*
X608700Y1621D03*
X646338Y1621D03*
X627519Y1621D03*
X665157Y1621D03*
X683976Y1621D03*
X702795Y1621D03*
X721614Y1621D03*
X740433Y1621D03*
X759251Y1621D03*
X778070Y1621D03*
X6496Y1621D03*
X25314Y1621D03*
X44133Y1621D03*
X796968Y1621D03*
G54D14*
X721614Y15125D03*
X702795Y15125D03*
X683976Y15125D03*
X665157Y15125D03*
X646338Y15125D03*
X627519Y15125D03*
X608700Y15125D03*
X589881Y15125D03*
X571062Y15125D03*
X552244Y15125D03*
X533425Y15125D03*
X514606Y15125D03*
X495787Y15125D03*
X476968Y15125D03*
X458149Y15125D03*
X439330Y15125D03*
X420511Y15125D03*
X401692Y15125D03*
X382874Y15125D03*
X364055Y15125D03*
X345236Y15125D03*
X326417Y15125D03*
X307598Y15125D03*
X288779Y15125D03*
X269960Y15125D03*
X251141Y15125D03*
X232322Y15125D03*
X213503Y15125D03*
X194685Y15125D03*
X175866Y15125D03*
X157047Y15125D03*
X138228Y15125D03*
X119409Y15125D03*
X100590Y15125D03*
X81771Y15125D03*
X62952Y15125D03*
X778070Y15125D03*
X759251Y15125D03*
X740433Y15125D03*
X44133Y15125D03*
X25314Y15125D03*
X6496Y15125D03*
G54D25*
X401811Y16581D03*
G54D26*
X439370Y16699D03*
X458188Y16699D03*
X477007Y16699D03*
X495826Y16699D03*
X514645Y16699D03*
X533464Y16699D03*
X552283Y16699D03*
X571102Y16699D03*
X589921Y16699D03*
X608740Y16699D03*
X627559Y16699D03*
X646377Y16699D03*
X665196Y16699D03*
X684015Y16699D03*
X702834Y16699D03*
X721653Y16699D03*
X420551Y16699D03*
X326456Y16699D03*
X307637Y16699D03*
X288818Y16699D03*
X270000Y16699D03*
X251181Y16699D03*
X232362Y16699D03*
X213543Y16699D03*
X194724Y16699D03*
X175905Y16699D03*
X157086Y16699D03*
X119448Y16699D03*
X100629Y16699D03*
X81811Y16699D03*
X62992Y16699D03*
X138267Y16699D03*
X345236Y16542D03*
X364055Y16463D03*
X382952Y16463D03*
X740472Y16699D03*
X759251Y16542D03*
X778070Y16463D03*
X44173Y16699D03*
X6574Y16463D03*
X25433Y16581D03*
X796968Y16463D03*
G36*
X60984Y15006D02*
X60984Y15006D01*
X61692Y1542D01*
X61771Y3786D01*
X60984Y15006D01*
D02*G37*
G36*
X61692Y1542D02*
X61692Y1542D01*
X64212Y1542D01*
X64921Y15164D01*
X61692Y1542D01*
D02*G37*
G36*
X61692Y1542D02*
X61692Y1542D01*
X64921Y15164D01*
X60984Y15006D01*
X61692Y1542D01*
D02*G37*
G36*
X79803Y15006D02*
X79803Y15006D01*
X80511Y1542D01*
X80590Y3786D01*
X79803Y15006D01*
D02*G37*
G36*
X80511Y1542D02*
X80511Y1542D01*
X83031Y1542D01*
X83740Y15164D01*
X80511Y1542D01*
D02*G37*
G36*
X80511Y1542D02*
X80511Y1542D01*
X83740Y15164D01*
X79803Y15006D01*
X80511Y1542D01*
D02*G37*
G36*
X98622Y15006D02*
X98622Y15006D01*
X99330Y1542D01*
X99409Y3786D01*
X98622Y15006D01*
D02*G37*
G36*
X99330Y1542D02*
X99330Y1542D01*
X101850Y1542D01*
X102559Y15164D01*
X99330Y1542D01*
D02*G37*
G36*
X99330Y1542D02*
X99330Y1542D01*
X102559Y15164D01*
X98622Y15006D01*
X99330Y1542D01*
D02*G37*
G36*
X117440Y15006D02*
X117440Y15006D01*
X118149Y1542D01*
X118228Y3786D01*
X117440Y15006D01*
D02*G37*
G36*
X118149Y1542D02*
X118149Y1542D01*
X120669Y1542D01*
X121377Y15164D01*
X118149Y1542D01*
D02*G37*
G36*
X118149Y1542D02*
X118149Y1542D01*
X121377Y15164D01*
X117440Y15006D01*
X118149Y1542D01*
D02*G37*
G36*
X136259Y15006D02*
X136259Y15006D01*
X136968Y1542D01*
X137047Y3786D01*
X136259Y15006D01*
D02*G37*
G36*
X136968Y1542D02*
X136968Y1542D01*
X139488Y1542D01*
X140196Y15164D01*
X136968Y1542D01*
D02*G37*
G36*
X136968Y1542D02*
X136968Y1542D01*
X140196Y15164D01*
X136259Y15006D01*
X136968Y1542D01*
D02*G37*
G36*
X155078Y15006D02*
X155078Y15006D01*
X155787Y1542D01*
X155866Y3786D01*
X155078Y15006D01*
D02*G37*
G36*
X155787Y1542D02*
X155787Y1542D01*
X158307Y1542D01*
X159015Y15164D01*
X155787Y1542D01*
D02*G37*
G36*
X155787Y1542D02*
X155787Y1542D01*
X159015Y15164D01*
X155078Y15006D01*
X155787Y1542D01*
D02*G37*
G36*
X192716Y15006D02*
X192716Y15006D01*
X193425Y1542D01*
X193503Y3786D01*
X192716Y15006D01*
D02*G37*
G36*
X193425Y1542D02*
X193425Y1542D01*
X195944Y1542D01*
X196653Y15164D01*
X193425Y1542D01*
D02*G37*
G36*
X193425Y1542D02*
X193425Y1542D01*
X196653Y15164D01*
X192716Y15006D01*
X193425Y1542D01*
D02*G37*
G36*
X173897Y15006D02*
X173897Y15006D01*
X174606Y1542D01*
X174685Y3786D01*
X173897Y15006D01*
D02*G37*
G36*
X174606Y1542D02*
X174606Y1542D01*
X177125Y1542D01*
X177834Y15164D01*
X174606Y1542D01*
D02*G37*
G36*
X174606Y1542D02*
X174606Y1542D01*
X177834Y15164D01*
X173897Y15006D01*
X174606Y1542D01*
D02*G37*
G36*
X211535Y15006D02*
X211535Y15006D01*
X212244Y1542D01*
X212322Y3786D01*
X211535Y15006D01*
D02*G37*
G36*
X212244Y1542D02*
X212244Y1542D01*
X214763Y1542D01*
X215472Y15164D01*
X212244Y1542D01*
D02*G37*
G36*
X212244Y1542D02*
X212244Y1542D01*
X215472Y15164D01*
X211535Y15006D01*
X212244Y1542D01*
D02*G37*
G36*
X230354Y15006D02*
X230354Y15006D01*
X231062Y1542D01*
X231141Y3786D01*
X230354Y15006D01*
D02*G37*
G36*
X231062Y1542D02*
X231062Y1542D01*
X233582Y1542D01*
X234291Y15164D01*
X231062Y1542D01*
D02*G37*
G36*
X231062Y1542D02*
X231062Y1542D01*
X234291Y15164D01*
X230354Y15006D01*
X231062Y1542D01*
D02*G37*
G36*
X249173Y15006D02*
X249173Y15006D01*
X249881Y1542D01*
X249960Y3786D01*
X249173Y15006D01*
D02*G37*
G36*
X249881Y1542D02*
X249881Y1542D01*
X252401Y1542D01*
X253110Y15164D01*
X249881Y1542D01*
D02*G37*
G36*
X249881Y1542D02*
X249881Y1542D01*
X253110Y15164D01*
X249173Y15006D01*
X249881Y1542D01*
D02*G37*
G36*
X267992Y15006D02*
X267992Y15006D01*
X268700Y1542D01*
X268779Y3786D01*
X267992Y15006D01*
D02*G37*
G36*
X268700Y1542D02*
X268700Y1542D01*
X271220Y1542D01*
X271929Y15164D01*
X268700Y1542D01*
D02*G37*
G36*
X268700Y1542D02*
X268700Y1542D01*
X271929Y15164D01*
X267992Y15006D01*
X268700Y1542D01*
D02*G37*
G36*
X286811Y15006D02*
X286811Y15006D01*
X287519Y1542D01*
X287598Y3786D01*
X286811Y15006D01*
D02*G37*
G36*
X287519Y1542D02*
X287519Y1542D01*
X290039Y1542D01*
X290748Y15164D01*
X287519Y1542D01*
D02*G37*
G36*
X287519Y1542D02*
X287519Y1542D01*
X290748Y15164D01*
X286811Y15006D01*
X287519Y1542D01*
D02*G37*
G36*
X305629Y15006D02*
X305629Y15006D01*
X306338Y1542D01*
X306417Y3786D01*
X305629Y15006D01*
D02*G37*
G36*
X306338Y1542D02*
X306338Y1542D01*
X308858Y1542D01*
X309566Y15164D01*
X306338Y1542D01*
D02*G37*
G36*
X306338Y1542D02*
X306338Y1542D01*
X309566Y15164D01*
X305629Y15006D01*
X306338Y1542D01*
D02*G37*
G36*
X324448Y15006D02*
X324448Y15006D01*
X325157Y1542D01*
X325236Y3786D01*
X324448Y15006D01*
D02*G37*
G36*
X325157Y1542D02*
X325157Y1542D01*
X327677Y1542D01*
X328385Y15164D01*
X325157Y1542D01*
D02*G37*
G36*
X325157Y1542D02*
X325157Y1542D01*
X328385Y15164D01*
X324448Y15006D01*
X325157Y1542D01*
D02*G37*
G36*
X343267Y15006D02*
X343267Y15006D01*
X343976Y1542D01*
X344055Y3786D01*
X343267Y15006D01*
D02*G37*
G36*
X343976Y1542D02*
X343976Y1542D01*
X346496Y1542D01*
X347204Y15164D01*
X343976Y1542D01*
D02*G37*
G36*
X343976Y1542D02*
X343976Y1542D01*
X347204Y15164D01*
X343267Y15006D01*
X343976Y1542D01*
D02*G37*
G36*
X362086Y15006D02*
X362086Y15006D01*
X362795Y1542D01*
X362874Y3786D01*
X362086Y15006D01*
D02*G37*
G36*
X362795Y1542D02*
X362795Y1542D01*
X365314Y1542D01*
X366023Y15164D01*
X362795Y1542D01*
D02*G37*
G36*
X362795Y1542D02*
X362795Y1542D01*
X366023Y15164D01*
X362086Y15006D01*
X362795Y1542D01*
D02*G37*
G36*
X380905Y15006D02*
X380905Y15006D01*
X381614Y1542D01*
X381692Y3786D01*
X380905Y15006D01*
D02*G37*
G36*
X381614Y1542D02*
X381614Y1542D01*
X384133Y1542D01*
X384842Y15164D01*
X381614Y1542D01*
D02*G37*
G36*
X381614Y1542D02*
X381614Y1542D01*
X384842Y15164D01*
X380905Y15006D01*
X381614Y1542D01*
D02*G37*
G36*
X399724Y15006D02*
X399724Y15006D01*
X400433Y1542D01*
X400511Y3786D01*
X399724Y15006D01*
D02*G37*
G36*
X400433Y1542D02*
X400433Y1542D01*
X402952Y1542D01*
X403661Y15164D01*
X400433Y1542D01*
D02*G37*
G36*
X400433Y1542D02*
X400433Y1542D01*
X403661Y15164D01*
X399724Y15006D01*
X400433Y1542D01*
D02*G37*
G36*
X437362Y15006D02*
X437362Y15006D01*
X438070Y1542D01*
X438149Y3786D01*
X437362Y15006D01*
D02*G37*
G36*
X438070Y1542D02*
X438070Y1542D01*
X440590Y1542D01*
X441299Y15164D01*
X438070Y1542D01*
D02*G37*
G36*
X438070Y1542D02*
X438070Y1542D01*
X441299Y15164D01*
X437362Y15006D01*
X438070Y1542D01*
D02*G37*
G36*
X418543Y15006D02*
X418543Y15006D01*
X419251Y1542D01*
X419330Y3786D01*
X418543Y15006D01*
D02*G37*
G36*
X419251Y1542D02*
X419251Y1542D01*
X421771Y1542D01*
X422480Y15164D01*
X419251Y1542D01*
D02*G37*
G36*
X419251Y1542D02*
X419251Y1542D01*
X422480Y15164D01*
X418543Y15006D01*
X419251Y1542D01*
D02*G37*
G36*
X456181Y15006D02*
X456181Y15006D01*
X456889Y1542D01*
X456968Y3786D01*
X456181Y15006D01*
D02*G37*
G36*
X456889Y1542D02*
X456889Y1542D01*
X459409Y1542D01*
X460118Y15164D01*
X456889Y1542D01*
D02*G37*
G36*
X456889Y1542D02*
X456889Y1542D01*
X460118Y15164D01*
X456181Y15006D01*
X456889Y1542D01*
D02*G37*
G36*
X475000Y15006D02*
X475000Y15006D01*
X475708Y1542D01*
X475787Y3786D01*
X475000Y15006D01*
D02*G37*
G36*
X475708Y1542D02*
X475708Y1542D01*
X478228Y1542D01*
X478937Y15164D01*
X475708Y1542D01*
D02*G37*
G36*
X475708Y1542D02*
X475708Y1542D01*
X478937Y15164D01*
X475000Y15006D01*
X475708Y1542D01*
D02*G37*
G36*
X493818Y15006D02*
X493818Y15006D01*
X494527Y1542D01*
X494606Y3786D01*
X493818Y15006D01*
D02*G37*
G36*
X494527Y1542D02*
X494527Y1542D01*
X497047Y1542D01*
X497755Y15164D01*
X494527Y1542D01*
D02*G37*
G36*
X494527Y1542D02*
X494527Y1542D01*
X497755Y15164D01*
X493818Y15006D01*
X494527Y1542D01*
D02*G37*
G36*
X512637Y15006D02*
X512637Y15006D01*
X513346Y1542D01*
X513425Y3786D01*
X512637Y15006D01*
D02*G37*
G36*
X513346Y1542D02*
X513346Y1542D01*
X515866Y1542D01*
X516574Y15164D01*
X513346Y1542D01*
D02*G37*
G36*
X513346Y1542D02*
X513346Y1542D01*
X516574Y15164D01*
X512637Y15006D01*
X513346Y1542D01*
D02*G37*
G36*
X531456Y15006D02*
X531456Y15006D01*
X532165Y1542D01*
X532244Y3786D01*
X531456Y15006D01*
D02*G37*
G36*
X532165Y1542D02*
X532165Y1542D01*
X534685Y1542D01*
X535393Y15164D01*
X532165Y1542D01*
D02*G37*
G36*
X532165Y1542D02*
X532165Y1542D01*
X535393Y15164D01*
X531456Y15006D01*
X532165Y1542D01*
D02*G37*
G36*
X550275Y15006D02*
X550275Y15006D01*
X550984Y1542D01*
X551062Y3786D01*
X550275Y15006D01*
D02*G37*
G36*
X550984Y1542D02*
X550984Y1542D01*
X553503Y1542D01*
X554212Y15164D01*
X550984Y1542D01*
D02*G37*
G36*
X550984Y1542D02*
X550984Y1542D01*
X554212Y15164D01*
X550275Y15006D01*
X550984Y1542D01*
D02*G37*
G36*
X569094Y15006D02*
X569094Y15006D01*
X569803Y1542D01*
X569881Y3786D01*
X569094Y15006D01*
D02*G37*
G36*
X569803Y1542D02*
X569803Y1542D01*
X572322Y1542D01*
X573031Y15164D01*
X569803Y1542D01*
D02*G37*
G36*
X569803Y1542D02*
X569803Y1542D01*
X573031Y15164D01*
X569094Y15006D01*
X569803Y1542D01*
D02*G37*
G36*
X587913Y15006D02*
X587913Y15006D01*
X588622Y1542D01*
X588700Y3786D01*
X587913Y15006D01*
D02*G37*
G36*
X588622Y1542D02*
X588622Y1542D01*
X591141Y1542D01*
X591850Y15164D01*
X588622Y1542D01*
D02*G37*
G36*
X588622Y1542D02*
X588622Y1542D01*
X591850Y15164D01*
X587913Y15006D01*
X588622Y1542D01*
D02*G37*
G36*
X606732Y15006D02*
X606732Y15006D01*
X607440Y1542D01*
X607519Y3786D01*
X606732Y15006D01*
D02*G37*
G36*
X607440Y1542D02*
X607440Y1542D01*
X609960Y1542D01*
X610669Y15164D01*
X607440Y1542D01*
D02*G37*
G36*
X607440Y1542D02*
X607440Y1542D01*
X610669Y15164D01*
X606732Y15006D01*
X607440Y1542D01*
D02*G37*
G36*
X644370Y15006D02*
X644370Y15006D01*
X645078Y1542D01*
X645157Y3786D01*
X644370Y15006D01*
D02*G37*
G36*
X645078Y1542D02*
X645078Y1542D01*
X647598Y1542D01*
X648307Y15164D01*
X645078Y1542D01*
D02*G37*
G36*
X645078Y1542D02*
X645078Y1542D01*
X648307Y15164D01*
X644370Y15006D01*
X645078Y1542D01*
D02*G37*
G36*
X625551Y15006D02*
X625551Y15006D01*
X626259Y1542D01*
X626338Y3786D01*
X625551Y15006D01*
D02*G37*
G36*
X626259Y1542D02*
X626259Y1542D01*
X628779Y1542D01*
X629488Y15164D01*
X626259Y1542D01*
D02*G37*
G36*
X626259Y1542D02*
X626259Y1542D01*
X629488Y15164D01*
X625551Y15006D01*
X626259Y1542D01*
D02*G37*
G36*
X663188Y15006D02*
X663188Y15006D01*
X663897Y1542D01*
X663976Y3786D01*
X663188Y15006D01*
D02*G37*
G36*
X663897Y1542D02*
X663897Y1542D01*
X666417Y1542D01*
X667125Y15164D01*
X663897Y1542D01*
D02*G37*
G36*
X663897Y1542D02*
X663897Y1542D01*
X667125Y15164D01*
X663188Y15006D01*
X663897Y1542D01*
D02*G37*
G36*
X682007Y15006D02*
X682007Y15006D01*
X682716Y1542D01*
X682795Y3786D01*
X682007Y15006D01*
D02*G37*
G36*
X682716Y1542D02*
X682716Y1542D01*
X685236Y1542D01*
X685944Y15164D01*
X682716Y1542D01*
D02*G37*
G36*
X682716Y1542D02*
X682716Y1542D01*
X685944Y15164D01*
X682007Y15006D01*
X682716Y1542D01*
D02*G37*
G36*
X700826Y15006D02*
X700826Y15006D01*
X701535Y1542D01*
X701614Y3786D01*
X700826Y15006D01*
D02*G37*
G36*
X701535Y1542D02*
X701535Y1542D01*
X704055Y1542D01*
X704763Y15164D01*
X701535Y1542D01*
D02*G37*
G36*
X701535Y1542D02*
X701535Y1542D01*
X704763Y15164D01*
X700826Y15006D01*
X701535Y1542D01*
D02*G37*
G36*
X719645Y15006D02*
X719645Y15006D01*
X720354Y1542D01*
X720433Y3786D01*
X719645Y15006D01*
D02*G37*
G36*
X720354Y1542D02*
X720354Y1542D01*
X722874Y1542D01*
X723582Y15164D01*
X720354Y1542D01*
D02*G37*
G36*
X720354Y1542D02*
X720354Y1542D01*
X723582Y15164D01*
X719645Y15006D01*
X720354Y1542D01*
D02*G37*
G36*
X738464Y15006D02*
X738464Y15006D01*
X739173Y1542D01*
X739251Y3786D01*
X738464Y15006D01*
D02*G37*
G36*
X739173Y1542D02*
X739173Y1542D01*
X741692Y1542D01*
X742401Y15164D01*
X739173Y1542D01*
D02*G37*
G36*
X739173Y1542D02*
X739173Y1542D01*
X742401Y15164D01*
X738464Y15006D01*
X739173Y1542D01*
D02*G37*
G36*
X757283Y15006D02*
X757283Y15006D01*
X757992Y1542D01*
X758070Y3786D01*
X757283Y15006D01*
D02*G37*
G36*
X757992Y1542D02*
X757992Y1542D01*
X760511Y1542D01*
X761220Y15164D01*
X757992Y1542D01*
D02*G37*
G36*
X757992Y1542D02*
X757992Y1542D01*
X761220Y15164D01*
X757283Y15006D01*
X757992Y1542D01*
D02*G37*
G36*
X776102Y15006D02*
X776102Y15006D01*
X776811Y1542D01*
X776889Y3786D01*
X776102Y15006D01*
D02*G37*
G36*
X776811Y1542D02*
X776811Y1542D01*
X779330Y1542D01*
X780039Y15164D01*
X776811Y1542D01*
D02*G37*
G36*
X776811Y1542D02*
X776811Y1542D01*
X780039Y15164D01*
X776102Y15006D01*
X776811Y1542D01*
D02*G37*
G36*
X4527Y15006D02*
X4527Y15006D01*
X5236Y1542D01*
X5314Y3786D01*
X4527Y15006D01*
D02*G37*
G36*
X5236Y1542D02*
X5236Y1542D01*
X7755Y1542D01*
X8464Y15164D01*
X5236Y1542D01*
D02*G37*
G36*
X5236Y1542D02*
X5236Y1542D01*
X8464Y15164D01*
X4527Y15006D01*
X5236Y1542D01*
D02*G37*
G36*
X23346Y15006D02*
X23346Y15006D01*
X24055Y1542D01*
X24133Y3786D01*
X23346Y15006D01*
D02*G37*
G36*
X24055Y1542D02*
X24055Y1542D01*
X26574Y1542D01*
X27283Y15164D01*
X24055Y1542D01*
D02*G37*
G36*
X24055Y1542D02*
X24055Y1542D01*
X27283Y15164D01*
X23346Y15006D01*
X24055Y1542D01*
D02*G37*
G36*
X42165Y15006D02*
X42165Y15006D01*
X42874Y1542D01*
X42952Y3786D01*
X42165Y15006D01*
D02*G37*
G36*
X42874Y1542D02*
X42874Y1542D01*
X45393Y1542D01*
X46102Y15164D01*
X42874Y1542D01*
D02*G37*
G36*
X42874Y1542D02*
X42874Y1542D01*
X46102Y15164D01*
X42165Y15006D01*
X42874Y1542D01*
D02*G37*
G36*
X795000Y15006D02*
X795000Y15006D01*
X795708Y1542D01*
X795787Y3786D01*
X795000Y15006D01*
D02*G37*
G36*
X795708Y1542D02*
X795708Y1542D01*
X798228Y1542D01*
X798937Y15164D01*
X795708Y1542D01*
D02*G37*
G36*
X795708Y1542D02*
X795708Y1542D01*
X798937Y15164D01*
X795000Y15006D01*
X795708Y1542D01*
D02*G37*
M02*
