%FSLAX35Y35*%
%MOIN*%
%IN*%
%ADD10C,0.00591*%
%ADD11C,0.00110*%
%ADD12C,0.00394*%
%ADD13C,0.02598*%
%ADD14C,0.03937*%
%ADD15C,0.04724*%
%ADD16C,0.05118*%
%AMR_17*21,1,0.04646,0.03346,0,0,0.000*%
%ADD17R_17*%
%AMR_18*21,1,0.08661,0.07874,0,0,0.000*%
%ADD18R_18*%
%AMR_19*21,1,0.15748,0.11811,0,0,0.000*%
%ADD19R_19*%
%AMR_20*21,1,0.19685,0.19685,0,0,0.000*%
%ADD20R_20*%
G54D13*
X64330Y1621D03*
X83149Y1621D03*
X101968Y1621D03*
X120787Y1621D03*
X139606Y1621D03*
X158425Y1621D03*
X196062Y1621D03*
X177244Y1621D03*
X214881Y1621D03*
X233700Y1621D03*
X252519Y1621D03*
X271338Y1621D03*
X290157Y1621D03*
X308976Y1621D03*
X327795Y1621D03*
X346614Y1621D03*
X365433Y1621D03*
X384251Y1621D03*
X403070Y1621D03*
X440708Y1621D03*
X421889Y1621D03*
X459527Y1621D03*
X478346Y1621D03*
X497165Y1621D03*
X515984Y1621D03*
X534803Y1621D03*
X553622Y1621D03*
X572440Y1621D03*
X591259Y1621D03*
X610078Y1621D03*
X647716Y1621D03*
X628897Y1621D03*
X666535Y1621D03*
X685354Y1621D03*
X704173Y1621D03*
X722992Y1621D03*
X741811Y1621D03*
X760629Y1621D03*
X779448Y1621D03*
X7874Y1621D03*
X26692Y1621D03*
X45511Y1621D03*
X798346Y1621D03*
G54D14*
X722992Y15125D03*
X704173Y15125D03*
X685354Y15125D03*
X666535Y15125D03*
X647716Y15125D03*
X628897Y15125D03*
X610078Y15125D03*
X591259Y15125D03*
X572440Y15125D03*
X553622Y15125D03*
X534803Y15125D03*
X515984Y15125D03*
X497165Y15125D03*
X478346Y15125D03*
X459527Y15125D03*
X440708Y15125D03*
X421889Y15125D03*
X403070Y15125D03*
X384251Y15125D03*
X365433Y15125D03*
X346614Y15125D03*
X327795Y15125D03*
X308976Y15125D03*
X290157Y15125D03*
X271338Y15125D03*
X252519Y15125D03*
X233700Y15125D03*
X214881Y15125D03*
X196062Y15125D03*
X177244Y15125D03*
X158425Y15125D03*
X139606Y15125D03*
X120787Y15125D03*
X101968Y15125D03*
X83149Y15125D03*
X64330Y15125D03*
X779448Y15125D03*
X760629Y15125D03*
X741811Y15125D03*
X45511Y15125D03*
X26692Y15125D03*
X7874Y15125D03*
G54D15*
X440748Y15715D03*
X459566Y15715D03*
X478385Y15715D03*
X497204Y15715D03*
X516023Y15715D03*
X534842Y15715D03*
X553661Y15715D03*
X572480Y15715D03*
X591299Y15715D03*
X610118Y15715D03*
X628937Y15715D03*
X647755Y15715D03*
X666574Y15715D03*
X685393Y15715D03*
X704212Y15715D03*
X723031Y15715D03*
X421929Y15715D03*
X309015Y15715D03*
X290196Y15715D03*
X271377Y15715D03*
X252559Y15715D03*
X233740Y15715D03*
X214921Y15715D03*
X196102Y15715D03*
X177283Y15715D03*
X158464Y15715D03*
X120826Y15715D03*
X102007Y15715D03*
X83188Y15715D03*
X64370Y15715D03*
X139645Y15715D03*
X346614Y15558D03*
X365433Y15479D03*
X384330Y15479D03*
X403188Y15597D03*
X741850Y15715D03*
X760629Y15558D03*
X779448Y15479D03*
X45551Y15715D03*
X7952Y15479D03*
X26811Y15597D03*
X798346Y15479D03*
G54D16*
X327834Y15715D03*
G36*
X62362Y15006D02*
X62362Y15006D01*
X63070Y1542D01*
X63149Y3786D01*
X62362Y15006D01*
D02*G37*
G36*
X63070Y1542D02*
X63070Y1542D01*
X65590Y1542D01*
X66299Y15164D01*
X63070Y1542D01*
D02*G37*
G36*
X63070Y1542D02*
X63070Y1542D01*
X66299Y15164D01*
X62362Y15006D01*
X63070Y1542D01*
D02*G37*
G36*
X81181Y15006D02*
X81181Y15006D01*
X81889Y1542D01*
X81968Y3786D01*
X81181Y15006D01*
D02*G37*
G36*
X81889Y1542D02*
X81889Y1542D01*
X84409Y1542D01*
X85118Y15164D01*
X81889Y1542D01*
D02*G37*
G36*
X81889Y1542D02*
X81889Y1542D01*
X85118Y15164D01*
X81181Y15006D01*
X81889Y1542D01*
D02*G37*
G36*
X100000Y15006D02*
X100000Y15006D01*
X100708Y1542D01*
X100787Y3786D01*
X100000Y15006D01*
D02*G37*
G36*
X100708Y1542D02*
X100708Y1542D01*
X103228Y1542D01*
X103937Y15164D01*
X100708Y1542D01*
D02*G37*
G36*
X100708Y1542D02*
X100708Y1542D01*
X103937Y15164D01*
X100000Y15006D01*
X100708Y1542D01*
D02*G37*
G36*
X118818Y15006D02*
X118818Y15006D01*
X119527Y1542D01*
X119606Y3786D01*
X118818Y15006D01*
D02*G37*
G36*
X119527Y1542D02*
X119527Y1542D01*
X122047Y1542D01*
X122755Y15164D01*
X119527Y1542D01*
D02*G37*
G36*
X119527Y1542D02*
X119527Y1542D01*
X122755Y15164D01*
X118818Y15006D01*
X119527Y1542D01*
D02*G37*
G36*
X137637Y15006D02*
X137637Y15006D01*
X138346Y1542D01*
X138425Y3786D01*
X137637Y15006D01*
D02*G37*
G36*
X138346Y1542D02*
X138346Y1542D01*
X140866Y1542D01*
X141574Y15164D01*
X138346Y1542D01*
D02*G37*
G36*
X138346Y1542D02*
X138346Y1542D01*
X141574Y15164D01*
X137637Y15006D01*
X138346Y1542D01*
D02*G37*
G36*
X156456Y15006D02*
X156456Y15006D01*
X157165Y1542D01*
X157244Y3786D01*
X156456Y15006D01*
D02*G37*
G36*
X157165Y1542D02*
X157165Y1542D01*
X159685Y1542D01*
X160393Y15164D01*
X157165Y1542D01*
D02*G37*
G36*
X157165Y1542D02*
X157165Y1542D01*
X160393Y15164D01*
X156456Y15006D01*
X157165Y1542D01*
D02*G37*
G36*
X194094Y15006D02*
X194094Y15006D01*
X194803Y1542D01*
X194881Y3786D01*
X194094Y15006D01*
D02*G37*
G36*
X194803Y1542D02*
X194803Y1542D01*
X197322Y1542D01*
X198031Y15164D01*
X194803Y1542D01*
D02*G37*
G36*
X194803Y1542D02*
X194803Y1542D01*
X198031Y15164D01*
X194094Y15006D01*
X194803Y1542D01*
D02*G37*
G36*
X175275Y15006D02*
X175275Y15006D01*
X175984Y1542D01*
X176062Y3786D01*
X175275Y15006D01*
D02*G37*
G36*
X175984Y1542D02*
X175984Y1542D01*
X178503Y1542D01*
X179212Y15164D01*
X175984Y1542D01*
D02*G37*
G36*
X175984Y1542D02*
X175984Y1542D01*
X179212Y15164D01*
X175275Y15006D01*
X175984Y1542D01*
D02*G37*
G36*
X212913Y15006D02*
X212913Y15006D01*
X213622Y1542D01*
X213700Y3786D01*
X212913Y15006D01*
D02*G37*
G36*
X213622Y1542D02*
X213622Y1542D01*
X216141Y1542D01*
X216850Y15164D01*
X213622Y1542D01*
D02*G37*
G36*
X213622Y1542D02*
X213622Y1542D01*
X216850Y15164D01*
X212913Y15006D01*
X213622Y1542D01*
D02*G37*
G36*
X231732Y15006D02*
X231732Y15006D01*
X232440Y1542D01*
X232519Y3786D01*
X231732Y15006D01*
D02*G37*
G36*
X232440Y1542D02*
X232440Y1542D01*
X234960Y1542D01*
X235669Y15164D01*
X232440Y1542D01*
D02*G37*
G36*
X232440Y1542D02*
X232440Y1542D01*
X235669Y15164D01*
X231732Y15006D01*
X232440Y1542D01*
D02*G37*
G36*
X250551Y15006D02*
X250551Y15006D01*
X251259Y1542D01*
X251338Y3786D01*
X250551Y15006D01*
D02*G37*
G36*
X251259Y1542D02*
X251259Y1542D01*
X253779Y1542D01*
X254488Y15164D01*
X251259Y1542D01*
D02*G37*
G36*
X251259Y1542D02*
X251259Y1542D01*
X254488Y15164D01*
X250551Y15006D01*
X251259Y1542D01*
D02*G37*
G36*
X269370Y15006D02*
X269370Y15006D01*
X270078Y1542D01*
X270157Y3786D01*
X269370Y15006D01*
D02*G37*
G36*
X270078Y1542D02*
X270078Y1542D01*
X272598Y1542D01*
X273307Y15164D01*
X270078Y1542D01*
D02*G37*
G36*
X270078Y1542D02*
X270078Y1542D01*
X273307Y15164D01*
X269370Y15006D01*
X270078Y1542D01*
D02*G37*
G36*
X288188Y15006D02*
X288188Y15006D01*
X288897Y1542D01*
X288976Y3786D01*
X288188Y15006D01*
D02*G37*
G36*
X288897Y1542D02*
X288897Y1542D01*
X291417Y1542D01*
X292125Y15164D01*
X288897Y1542D01*
D02*G37*
G36*
X288897Y1542D02*
X288897Y1542D01*
X292125Y15164D01*
X288188Y15006D01*
X288897Y1542D01*
D02*G37*
G36*
X307007Y15006D02*
X307007Y15006D01*
X307716Y1542D01*
X307795Y3786D01*
X307007Y15006D01*
D02*G37*
G36*
X307716Y1542D02*
X307716Y1542D01*
X310236Y1542D01*
X310944Y15164D01*
X307716Y1542D01*
D02*G37*
G36*
X307716Y1542D02*
X307716Y1542D01*
X310944Y15164D01*
X307007Y15006D01*
X307716Y1542D01*
D02*G37*
G36*
X325826Y15006D02*
X325826Y15006D01*
X326535Y1542D01*
X326614Y3786D01*
X325826Y15006D01*
D02*G37*
G36*
X326535Y1542D02*
X326535Y1542D01*
X329055Y1542D01*
X329763Y15164D01*
X326535Y1542D01*
D02*G37*
G36*
X326535Y1542D02*
X326535Y1542D01*
X329763Y15164D01*
X325826Y15006D01*
X326535Y1542D01*
D02*G37*
G36*
X344645Y15006D02*
X344645Y15006D01*
X345354Y1542D01*
X345433Y3786D01*
X344645Y15006D01*
D02*G37*
G36*
X345354Y1542D02*
X345354Y1542D01*
X347874Y1542D01*
X348582Y15164D01*
X345354Y1542D01*
D02*G37*
G36*
X345354Y1542D02*
X345354Y1542D01*
X348582Y15164D01*
X344645Y15006D01*
X345354Y1542D01*
D02*G37*
G36*
X363464Y15006D02*
X363464Y15006D01*
X364173Y1542D01*
X364251Y3786D01*
X363464Y15006D01*
D02*G37*
G36*
X364173Y1542D02*
X364173Y1542D01*
X366692Y1542D01*
X367401Y15164D01*
X364173Y1542D01*
D02*G37*
G36*
X364173Y1542D02*
X364173Y1542D01*
X367401Y15164D01*
X363464Y15006D01*
X364173Y1542D01*
D02*G37*
G36*
X382283Y15006D02*
X382283Y15006D01*
X382992Y1542D01*
X383070Y3786D01*
X382283Y15006D01*
D02*G37*
G36*
X382992Y1542D02*
X382992Y1542D01*
X385511Y1542D01*
X386220Y15164D01*
X382992Y1542D01*
D02*G37*
G36*
X382992Y1542D02*
X382992Y1542D01*
X386220Y15164D01*
X382283Y15006D01*
X382992Y1542D01*
D02*G37*
G36*
X401102Y15006D02*
X401102Y15006D01*
X401811Y1542D01*
X401889Y3786D01*
X401102Y15006D01*
D02*G37*
G36*
X401811Y1542D02*
X401811Y1542D01*
X404330Y1542D01*
X405039Y15164D01*
X401811Y1542D01*
D02*G37*
G36*
X401811Y1542D02*
X401811Y1542D01*
X405039Y15164D01*
X401102Y15006D01*
X401811Y1542D01*
D02*G37*
G36*
X438740Y15006D02*
X438740Y15006D01*
X439448Y1542D01*
X439527Y3786D01*
X438740Y15006D01*
D02*G37*
G36*
X439448Y1542D02*
X439448Y1542D01*
X441968Y1542D01*
X442677Y15164D01*
X439448Y1542D01*
D02*G37*
G36*
X439448Y1542D02*
X439448Y1542D01*
X442677Y15164D01*
X438740Y15006D01*
X439448Y1542D01*
D02*G37*
G36*
X419921Y15006D02*
X419921Y15006D01*
X420629Y1542D01*
X420708Y3786D01*
X419921Y15006D01*
D02*G37*
G36*
X420629Y1542D02*
X420629Y1542D01*
X423149Y1542D01*
X423858Y15164D01*
X420629Y1542D01*
D02*G37*
G36*
X420629Y1542D02*
X420629Y1542D01*
X423858Y15164D01*
X419921Y15006D01*
X420629Y1542D01*
D02*G37*
G36*
X457559Y15006D02*
X457559Y15006D01*
X458267Y1542D01*
X458346Y3786D01*
X457559Y15006D01*
D02*G37*
G36*
X458267Y1542D02*
X458267Y1542D01*
X460787Y1542D01*
X461496Y15164D01*
X458267Y1542D01*
D02*G37*
G36*
X458267Y1542D02*
X458267Y1542D01*
X461496Y15164D01*
X457559Y15006D01*
X458267Y1542D01*
D02*G37*
G36*
X476377Y15006D02*
X476377Y15006D01*
X477086Y1542D01*
X477165Y3786D01*
X476377Y15006D01*
D02*G37*
G36*
X477086Y1542D02*
X477086Y1542D01*
X479606Y1542D01*
X480314Y15164D01*
X477086Y1542D01*
D02*G37*
G36*
X477086Y1542D02*
X477086Y1542D01*
X480314Y15164D01*
X476377Y15006D01*
X477086Y1542D01*
D02*G37*
G36*
X495196Y15006D02*
X495196Y15006D01*
X495905Y1542D01*
X495984Y3786D01*
X495196Y15006D01*
D02*G37*
G36*
X495905Y1542D02*
X495905Y1542D01*
X498425Y1542D01*
X499133Y15164D01*
X495905Y1542D01*
D02*G37*
G36*
X495905Y1542D02*
X495905Y1542D01*
X499133Y15164D01*
X495196Y15006D01*
X495905Y1542D01*
D02*G37*
G36*
X514015Y15006D02*
X514015Y15006D01*
X514724Y1542D01*
X514803Y3786D01*
X514015Y15006D01*
D02*G37*
G36*
X514724Y1542D02*
X514724Y1542D01*
X517244Y1542D01*
X517952Y15164D01*
X514724Y1542D01*
D02*G37*
G36*
X514724Y1542D02*
X514724Y1542D01*
X517952Y15164D01*
X514015Y15006D01*
X514724Y1542D01*
D02*G37*
G36*
X532834Y15006D02*
X532834Y15006D01*
X533543Y1542D01*
X533622Y3786D01*
X532834Y15006D01*
D02*G37*
G36*
X533543Y1542D02*
X533543Y1542D01*
X536062Y1542D01*
X536771Y15164D01*
X533543Y1542D01*
D02*G37*
G36*
X533543Y1542D02*
X533543Y1542D01*
X536771Y15164D01*
X532834Y15006D01*
X533543Y1542D01*
D02*G37*
G36*
X551653Y15006D02*
X551653Y15006D01*
X552362Y1542D01*
X552440Y3786D01*
X551653Y15006D01*
D02*G37*
G36*
X552362Y1542D02*
X552362Y1542D01*
X554881Y1542D01*
X555590Y15164D01*
X552362Y1542D01*
D02*G37*
G36*
X552362Y1542D02*
X552362Y1542D01*
X555590Y15164D01*
X551653Y15006D01*
X552362Y1542D01*
D02*G37*
G36*
X570472Y15006D02*
X570472Y15006D01*
X571181Y1542D01*
X571259Y3786D01*
X570472Y15006D01*
D02*G37*
G36*
X571181Y1542D02*
X571181Y1542D01*
X573700Y1542D01*
X574409Y15164D01*
X571181Y1542D01*
D02*G37*
G36*
X571181Y1542D02*
X571181Y1542D01*
X574409Y15164D01*
X570472Y15006D01*
X571181Y1542D01*
D02*G37*
G36*
X589291Y15006D02*
X589291Y15006D01*
X590000Y1542D01*
X590078Y3786D01*
X589291Y15006D01*
D02*G37*
G36*
X590000Y1542D02*
X590000Y1542D01*
X592519Y1542D01*
X593228Y15164D01*
X590000Y1542D01*
D02*G37*
G36*
X590000Y1542D02*
X590000Y1542D01*
X593228Y15164D01*
X589291Y15006D01*
X590000Y1542D01*
D02*G37*
G36*
X608110Y15006D02*
X608110Y15006D01*
X608818Y1542D01*
X608897Y3786D01*
X608110Y15006D01*
D02*G37*
G36*
X608818Y1542D02*
X608818Y1542D01*
X611338Y1542D01*
X612047Y15164D01*
X608818Y1542D01*
D02*G37*
G36*
X608818Y1542D02*
X608818Y1542D01*
X612047Y15164D01*
X608110Y15006D01*
X608818Y1542D01*
D02*G37*
G36*
X645748Y15006D02*
X645748Y15006D01*
X646456Y1542D01*
X646535Y3786D01*
X645748Y15006D01*
D02*G37*
G36*
X646456Y1542D02*
X646456Y1542D01*
X648976Y1542D01*
X649685Y15164D01*
X646456Y1542D01*
D02*G37*
G36*
X646456Y1542D02*
X646456Y1542D01*
X649685Y15164D01*
X645748Y15006D01*
X646456Y1542D01*
D02*G37*
G36*
X626929Y15006D02*
X626929Y15006D01*
X627637Y1542D01*
X627716Y3786D01*
X626929Y15006D01*
D02*G37*
G36*
X627637Y1542D02*
X627637Y1542D01*
X630157Y1542D01*
X630866Y15164D01*
X627637Y1542D01*
D02*G37*
G36*
X627637Y1542D02*
X627637Y1542D01*
X630866Y15164D01*
X626929Y15006D01*
X627637Y1542D01*
D02*G37*
G36*
X664566Y15006D02*
X664566Y15006D01*
X665275Y1542D01*
X665354Y3786D01*
X664566Y15006D01*
D02*G37*
G36*
X665275Y1542D02*
X665275Y1542D01*
X667795Y1542D01*
X668503Y15164D01*
X665275Y1542D01*
D02*G37*
G36*
X665275Y1542D02*
X665275Y1542D01*
X668503Y15164D01*
X664566Y15006D01*
X665275Y1542D01*
D02*G37*
G36*
X683385Y15006D02*
X683385Y15006D01*
X684094Y1542D01*
X684173Y3786D01*
X683385Y15006D01*
D02*G37*
G36*
X684094Y1542D02*
X684094Y1542D01*
X686614Y1542D01*
X687322Y15164D01*
X684094Y1542D01*
D02*G37*
G36*
X684094Y1542D02*
X684094Y1542D01*
X687322Y15164D01*
X683385Y15006D01*
X684094Y1542D01*
D02*G37*
G36*
X702204Y15006D02*
X702204Y15006D01*
X702913Y1542D01*
X702992Y3786D01*
X702204Y15006D01*
D02*G37*
G36*
X702913Y1542D02*
X702913Y1542D01*
X705433Y1542D01*
X706141Y15164D01*
X702913Y1542D01*
D02*G37*
G36*
X702913Y1542D02*
X702913Y1542D01*
X706141Y15164D01*
X702204Y15006D01*
X702913Y1542D01*
D02*G37*
G36*
X721023Y15006D02*
X721023Y15006D01*
X721732Y1542D01*
X721811Y3786D01*
X721023Y15006D01*
D02*G37*
G36*
X721732Y1542D02*
X721732Y1542D01*
X724251Y1542D01*
X724960Y15164D01*
X721732Y1542D01*
D02*G37*
G36*
X721732Y1542D02*
X721732Y1542D01*
X724960Y15164D01*
X721023Y15006D01*
X721732Y1542D01*
D02*G37*
G36*
X739842Y15006D02*
X739842Y15006D01*
X740551Y1542D01*
X740629Y3786D01*
X739842Y15006D01*
D02*G37*
G36*
X740551Y1542D02*
X740551Y1542D01*
X743070Y1542D01*
X743779Y15164D01*
X740551Y1542D01*
D02*G37*
G36*
X740551Y1542D02*
X740551Y1542D01*
X743779Y15164D01*
X739842Y15006D01*
X740551Y1542D01*
D02*G37*
G36*
X758661Y15006D02*
X758661Y15006D01*
X759370Y1542D01*
X759448Y3786D01*
X758661Y15006D01*
D02*G37*
G36*
X759370Y1542D02*
X759370Y1542D01*
X761889Y1542D01*
X762598Y15164D01*
X759370Y1542D01*
D02*G37*
G36*
X759370Y1542D02*
X759370Y1542D01*
X762598Y15164D01*
X758661Y15006D01*
X759370Y1542D01*
D02*G37*
G36*
X777480Y15006D02*
X777480Y15006D01*
X778188Y1542D01*
X778267Y3786D01*
X777480Y15006D01*
D02*G37*
G36*
X778188Y1542D02*
X778188Y1542D01*
X780708Y1542D01*
X781417Y15164D01*
X778188Y1542D01*
D02*G37*
G36*
X778188Y1542D02*
X778188Y1542D01*
X781417Y15164D01*
X777480Y15006D01*
X778188Y1542D01*
D02*G37*
G36*
X5905Y15006D02*
X5905Y15006D01*
X6614Y1542D01*
X6692Y3786D01*
X5905Y15006D01*
D02*G37*
G36*
X6614Y1542D02*
X6614Y1542D01*
X9133Y1542D01*
X9842Y15164D01*
X6614Y1542D01*
D02*G37*
G36*
X6614Y1542D02*
X6614Y1542D01*
X9842Y15164D01*
X5905Y15006D01*
X6614Y1542D01*
D02*G37*
G36*
X24724Y15006D02*
X24724Y15006D01*
X25433Y1542D01*
X25511Y3786D01*
X24724Y15006D01*
D02*G37*
G36*
X25433Y1542D02*
X25433Y1542D01*
X27952Y1542D01*
X28661Y15164D01*
X25433Y1542D01*
D02*G37*
G36*
X25433Y1542D02*
X25433Y1542D01*
X28661Y15164D01*
X24724Y15006D01*
X25433Y1542D01*
D02*G37*
G36*
X43543Y15006D02*
X43543Y15006D01*
X44251Y1542D01*
X44330Y3786D01*
X43543Y15006D01*
D02*G37*
G36*
X44251Y1542D02*
X44251Y1542D01*
X46771Y1542D01*
X47480Y15164D01*
X44251Y1542D01*
D02*G37*
G36*
X44251Y1542D02*
X44251Y1542D01*
X47480Y15164D01*
X43543Y15006D01*
X44251Y1542D01*
D02*G37*
G36*
X796377Y15006D02*
X796377Y15006D01*
X797086Y1542D01*
X797165Y3786D01*
X796377Y15006D01*
D02*G37*
G36*
X797086Y1542D02*
X797086Y1542D01*
X799606Y1542D01*
X800314Y15164D01*
X797086Y1542D01*
D02*G37*
G36*
X797086Y1542D02*
X797086Y1542D01*
X800314Y15164D01*
X796377Y15006D01*
X797086Y1542D01*
D02*G37*
G54D10*
X12178Y15000D02*
X22428Y15000D01*
X31020Y15000D02*
X41247Y15000D01*
X49777Y15000D02*
X60066Y15000D01*
X68596Y15000D02*
X78885Y15000D01*
X87415Y15000D02*
X97704Y15000D01*
X106234Y15000D02*
X116523Y15000D01*
X125053Y15000D02*
X135342Y15000D01*
X143872Y15000D02*
X154161Y15000D01*
X162691Y15000D02*
X172980Y15000D01*
X181510Y15000D02*
X191799Y15000D01*
X200329Y15000D02*
X210617Y15000D01*
X219148Y15000D02*
X229436Y15000D01*
X237966Y15000D02*
X248255Y15000D01*
X256785Y15000D02*
X267074Y15000D01*
X275604Y15000D02*
X285893Y15000D01*
X294423Y15000D02*
X304712Y15000D01*
X313242Y15000D02*
X323479Y15000D01*
X332229Y15000D02*
X342350Y15000D01*
X350880Y15000D02*
X361169Y15000D01*
X369699Y15000D02*
X379988Y15000D01*
X388556Y15000D02*
X398806Y15000D01*
X407398Y15000D02*
X417625Y15000D01*
X426155Y15000D02*
X436444Y15000D01*
X444974Y15000D02*
X455263Y15000D01*
X463793Y15000D02*
X474082Y15000D01*
X482612Y15000D02*
X492901Y15000D01*
X501431Y15000D02*
X511720Y15000D01*
X520250Y15000D02*
X530539Y15000D01*
X539069Y15000D02*
X549358Y15000D01*
X557888Y15000D02*
X568176Y15000D01*
X576707Y15000D02*
X586995Y15000D01*
X595526Y15000D02*
X605814Y15000D01*
X614344Y15000D02*
X624633Y15000D01*
X633163Y15000D02*
X643452Y15000D01*
X651982Y15000D02*
X662271Y15000D01*
X670801Y15000D02*
X681090Y15000D01*
X689620Y15000D02*
X699909Y15000D01*
X708439Y15000D02*
X718728Y15000D01*
X727258Y15000D02*
X737547Y15000D01*
X746077Y15000D02*
X756365Y15000D01*
X764896Y15000D02*
X775184Y15000D01*
X783714Y15000D02*
X794082Y15000D01*
X783714Y15000D02*
X783720Y15118D01*
X764896Y15000D02*
X764902Y15118D01*
X746077Y15000D02*
X746083Y15118D01*
X727258Y15000D02*
X727264Y15118D01*
X708439Y15000D02*
X708445Y15118D01*
X689620Y15000D02*
X689626Y15118D01*
X670801Y15000D02*
X670807Y15118D01*
X651982Y15000D02*
X651988Y15118D01*
X633163Y15000D02*
X633169Y15118D01*
X614344Y15000D02*
X614350Y15118D01*
X595526Y15000D02*
X595531Y15118D01*
X576707Y15000D02*
X576713Y15118D01*
X557888Y15000D02*
X557894Y15118D01*
X539069Y15000D02*
X539075Y15118D01*
X520250Y15000D02*
X520256Y15118D01*
X501431Y15000D02*
X501437Y15118D01*
X482612Y15000D02*
X482618Y15118D01*
X463793Y15000D02*
X463799Y15118D01*
X444974Y15000D02*
X444980Y15118D01*
X426155Y15000D02*
X426161Y15118D01*
X369699Y15000D02*
X369705Y15118D01*
X350880Y15000D02*
X350886Y15118D01*
X313242Y15000D02*
X313248Y15118D01*
X294423Y15000D02*
X294429Y15118D01*
X275604Y15000D02*
X275610Y15118D01*
X256785Y15000D02*
X256791Y15118D01*
X237966Y15000D02*
X237972Y15118D01*
X219148Y15000D02*
X219154Y15118D01*
X200329Y15000D02*
X200335Y15118D01*
X181510Y15000D02*
X181516Y15118D01*
X162691Y15000D02*
X162697Y15118D01*
X143872Y15000D02*
X143878Y15118D01*
X125053Y15000D02*
X125059Y15118D01*
X106234Y15000D02*
X106240Y15118D01*
X87415Y15000D02*
X87421Y15118D01*
X68596Y15000D02*
X68602Y15118D01*
X49777Y15000D02*
X49783Y15118D01*
X783720Y15118D02*
X783717Y15196D01*
X764902Y15118D02*
X764898Y15196D01*
X746083Y15118D02*
X746079Y15196D01*
X727264Y15118D02*
X727260Y15196D01*
X708445Y15118D02*
X708441Y15196D01*
X689626Y15118D02*
X689622Y15196D01*
X670807Y15118D02*
X670804Y15196D01*
X651988Y15118D02*
X651985Y15196D01*
X633169Y15118D02*
X633166Y15196D01*
X614350Y15118D02*
X614347Y15196D01*
X595531Y15118D02*
X595528Y15196D01*
X576713Y15118D02*
X576709Y15196D01*
X557894Y15118D02*
X557890Y15196D01*
X539075Y15118D02*
X539071Y15196D01*
X520256Y15118D02*
X520252Y15196D01*
X501437Y15118D02*
X501433Y15196D01*
X482618Y15118D02*
X482615Y15196D01*
X463799Y15118D02*
X463796Y15196D01*
X444980Y15118D02*
X444977Y15196D01*
X426161Y15118D02*
X426158Y15196D01*
X369705Y15118D02*
X369701Y15196D01*
X350886Y15118D02*
X350882Y15196D01*
X313248Y15118D02*
X313244Y15196D01*
X294429Y15118D02*
X294426Y15196D01*
X275610Y15118D02*
X275607Y15196D01*
X256791Y15118D02*
X256788Y15196D01*
X237972Y15118D02*
X237969Y15196D01*
X219154Y15118D02*
X219150Y15196D01*
X200335Y15118D02*
X200331Y15196D01*
X181516Y15118D02*
X181512Y15196D01*
X162697Y15118D02*
X162693Y15196D01*
X143878Y15118D02*
X143874Y15196D01*
X125059Y15118D02*
X125055Y15196D01*
X106240Y15118D02*
X106237Y15196D01*
X87421Y15118D02*
X87418Y15196D01*
X68602Y15118D02*
X68599Y15196D01*
X49783Y15118D02*
X49780Y15196D01*
X775184Y15000D02*
X775212Y15196D01*
X756365Y15000D02*
X756393Y15196D01*
X737547Y15000D02*
X737574Y15196D01*
X718728Y15000D02*
X718755Y15196D01*
X699909Y15000D02*
X699937Y15196D01*
X681090Y15000D02*
X681118Y15196D01*
X662271Y15000D02*
X662299Y15196D01*
X643452Y15000D02*
X643480Y15196D01*
X624633Y15000D02*
X624661Y15196D01*
X605814Y15000D02*
X605842Y15196D01*
X586995Y15000D02*
X587023Y15196D01*
X568176Y15000D02*
X568204Y15196D01*
X549358Y15000D02*
X549385Y15196D01*
X530539Y15000D02*
X530566Y15196D01*
X511720Y15000D02*
X511748Y15196D01*
X492901Y15000D02*
X492929Y15196D01*
X474082Y15000D02*
X474110Y15196D01*
X455263Y15000D02*
X455291Y15196D01*
X436444Y15000D02*
X436472Y15196D01*
X417625Y15000D02*
X417653Y15196D01*
X398806Y15000D02*
X398834Y15196D01*
X379988Y15000D02*
X380015Y15196D01*
X361169Y15000D02*
X361196Y15196D01*
X342350Y15000D02*
X342377Y15196D01*
X304712Y15000D02*
X304740Y15196D01*
X285893Y15000D02*
X285921Y15196D01*
X267074Y15000D02*
X267102Y15196D01*
X248255Y15000D02*
X248283Y15196D01*
X229436Y15000D02*
X229464Y15196D01*
X210617Y15000D02*
X210645Y15196D01*
X191799Y15000D02*
X191826Y15196D01*
X172980Y15000D02*
X173007Y15196D01*
X154161Y15000D02*
X154188Y15196D01*
X135342Y15000D02*
X135370Y15196D01*
X116523Y15000D02*
X116551Y15196D01*
X97704Y15000D02*
X97732Y15196D01*
X78885Y15000D02*
X78913Y15196D01*
X60066Y15000D02*
X60094Y15196D01*
X41247Y15000D02*
X41275Y15196D01*
X22428Y15000D02*
X22456Y15196D01*
X783717Y15196D02*
X783719Y15236D01*
X764898Y15196D02*
X764900Y15236D01*
X369701Y15196D02*
X369703Y15236D01*
X350882Y15196D02*
X350884Y15236D01*
X764900Y15236D02*
X764898Y15275D01*
X350884Y15236D02*
X350882Y15275D01*
X764898Y15275D02*
X764892Y15314D01*
X350882Y15275D02*
X350876Y15314D01*
X783719Y15236D02*
X783718Y15314D01*
X369703Y15236D02*
X369702Y15314D01*
X746079Y15196D02*
X746087Y15314D01*
X727260Y15196D02*
X727268Y15314D01*
X708441Y15196D02*
X708449Y15314D01*
X689622Y15196D02*
X689630Y15314D01*
X670804Y15196D02*
X670811Y15314D01*
X651985Y15196D02*
X651992Y15314D01*
X633166Y15196D02*
X633173Y15314D01*
X614347Y15196D02*
X614355Y15314D01*
X595528Y15196D02*
X595536Y15314D01*
X576709Y15196D02*
X576717Y15314D01*
X557890Y15196D02*
X557898Y15314D01*
X539071Y15196D02*
X539079Y15314D01*
X520252Y15196D02*
X520260Y15314D01*
X501433Y15196D02*
X501441Y15314D01*
X482615Y15196D02*
X482622Y15314D01*
X463796Y15196D02*
X463803Y15314D01*
X444977Y15196D02*
X444984Y15314D01*
X426158Y15196D02*
X426166Y15314D01*
X313244Y15196D02*
X313252Y15314D01*
X294426Y15196D02*
X294433Y15314D01*
X275607Y15196D02*
X275614Y15314D01*
X256788Y15196D02*
X256795Y15314D01*
X237969Y15196D02*
X237977Y15314D01*
X219150Y15196D02*
X219158Y15314D01*
X200331Y15196D02*
X200339Y15314D01*
X181512Y15196D02*
X181520Y15314D01*
X162693Y15196D02*
X162701Y15314D01*
X143874Y15196D02*
X143882Y15314D01*
X125055Y15196D02*
X125063Y15314D01*
X106237Y15196D02*
X106244Y15314D01*
X87418Y15196D02*
X87425Y15314D01*
X68599Y15196D02*
X68606Y15314D01*
X49780Y15196D02*
X49788Y15314D01*
X794082Y15000D02*
X794130Y15314D01*
X12238Y15433D02*
X22456Y15433D01*
X31080Y15433D02*
X41275Y15433D01*
X49804Y15433D02*
X60094Y15433D01*
X68623Y15433D02*
X78913Y15433D01*
X87442Y15433D02*
X97732Y15433D01*
X106261Y15433D02*
X116551Y15433D01*
X125079Y15433D02*
X135370Y15433D01*
X143898Y15433D02*
X154188Y15433D01*
X162717Y15433D02*
X173007Y15433D01*
X181536Y15433D02*
X191826Y15433D01*
X200355Y15433D02*
X210645Y15433D01*
X219174Y15433D02*
X229464Y15433D01*
X237993Y15433D02*
X248283Y15433D01*
X256812Y15433D02*
X267102Y15433D01*
X275631Y15433D02*
X285921Y15433D01*
X294449Y15433D02*
X304740Y15433D01*
X313268Y15433D02*
X323422Y15433D01*
X332286Y15433D02*
X342377Y15433D01*
X350888Y15433D02*
X361196Y15433D01*
X369718Y15433D02*
X380015Y15433D01*
X388616Y15433D02*
X398834Y15433D01*
X407458Y15433D02*
X417653Y15433D01*
X426182Y15433D02*
X436472Y15433D01*
X445001Y15433D02*
X455291Y15433D01*
X463820Y15433D02*
X474110Y15433D01*
X482638Y15433D02*
X492929Y15433D01*
X501457Y15433D02*
X511748Y15433D01*
X520276Y15433D02*
X530566Y15433D01*
X539095Y15433D02*
X549385Y15433D01*
X557914Y15433D02*
X568204Y15433D01*
X576733Y15433D02*
X587023Y15433D01*
X595552Y15433D02*
X605842Y15433D01*
X614371Y15433D02*
X624661Y15433D01*
X633190Y15433D02*
X643480Y15433D01*
X652009Y15433D02*
X662299Y15433D01*
X670827Y15433D02*
X681118Y15433D01*
X689646Y15433D02*
X699937Y15433D01*
X708465Y15433D02*
X718755Y15433D01*
X727284Y15433D02*
X737574Y15433D01*
X746103Y15433D02*
X756393Y15433D01*
X764904Y15433D02*
X775212Y15433D01*
X783734Y15433D02*
X794130Y15433D01*
X764892Y15314D02*
X764899Y15393D01*
X350876Y15314D02*
X350883Y15393D01*
X783718Y15314D02*
X783738Y15472D01*
X369702Y15314D02*
X369722Y15472D01*
X388556Y15000D02*
X388619Y15472D01*
X12178Y15000D02*
X12242Y15472D01*
X783738Y15472D02*
X783740Y15511D01*
X388619Y15472D02*
X388622Y15511D01*
X369722Y15472D02*
X369724Y15511D01*
X12242Y15472D02*
X12244Y15511D01*
X783740Y15511D02*
X783738Y15551D01*
X388622Y15511D02*
X388619Y15551D01*
X369724Y15511D02*
X369722Y15551D01*
X12244Y15511D02*
X12242Y15551D01*
X764899Y15393D02*
X764919Y15551D01*
X350883Y15393D02*
X350903Y15551D01*
X764919Y15551D02*
X764921Y15590D01*
X350903Y15551D02*
X350905Y15590D01*
X407398Y15000D02*
X407478Y15590D01*
X31020Y15000D02*
X31100Y15590D01*
X764921Y15590D02*
X764919Y15629D01*
X407478Y15590D02*
X407480Y15629D01*
X350905Y15590D02*
X350903Y15629D01*
X31100Y15590D02*
X31102Y15629D01*
X407480Y15629D02*
X407478Y15669D01*
X31102Y15629D02*
X31100Y15669D01*
X746087Y15314D02*
X746139Y15708D01*
X727268Y15314D02*
X727320Y15708D01*
X708449Y15314D02*
X708501Y15708D01*
X689630Y15314D02*
X689682Y15708D01*
X670811Y15314D02*
X670864Y15708D01*
X651992Y15314D02*
X652045Y15708D01*
X633173Y15314D02*
X633226Y15708D01*
X614355Y15314D02*
X614407Y15708D01*
X595536Y15314D02*
X595588Y15708D01*
X576717Y15314D02*
X576769Y15708D01*
X557898Y15314D02*
X557950Y15708D01*
X539079Y15314D02*
X539131Y15708D01*
X520260Y15314D02*
X520312Y15708D01*
X501441Y15314D02*
X501493Y15708D01*
X482622Y15314D02*
X482675Y15708D01*
X463803Y15314D02*
X463856Y15708D01*
X444984Y15314D02*
X445037Y15708D01*
X426166Y15314D02*
X426218Y15708D01*
X313252Y15314D02*
X313305Y15708D01*
X294433Y15314D02*
X294486Y15708D01*
X275614Y15314D02*
X275667Y15708D01*
X256795Y15314D02*
X256848Y15708D01*
X237977Y15314D02*
X238029Y15708D01*
X219158Y15314D02*
X219210Y15708D01*
X200339Y15314D02*
X200391Y15708D01*
X181520Y15314D02*
X181572Y15708D01*
X162701Y15314D02*
X162753Y15708D01*
X143882Y15314D02*
X143934Y15708D01*
X125063Y15314D02*
X125116Y15708D01*
X106244Y15314D02*
X106297Y15708D01*
X87425Y15314D02*
X87478Y15708D01*
X68606Y15314D02*
X68659Y15708D01*
X49788Y15314D02*
X49840Y15708D01*
X775212Y15196D02*
X775214Y15708D01*
X756393Y15196D02*
X756395Y15708D01*
X737574Y15196D02*
X737576Y15708D01*
X718755Y15196D02*
X718757Y15708D01*
X699937Y15196D02*
X699939Y15708D01*
X681118Y15196D02*
X681120Y15708D01*
X662299Y15196D02*
X662301Y15708D01*
X643480Y15196D02*
X643482Y15708D01*
X624661Y15196D02*
X624663Y15708D01*
X605842Y15196D02*
X605844Y15708D01*
X587023Y15196D02*
X587025Y15708D01*
X568204Y15196D02*
X568206Y15708D01*
X549385Y15196D02*
X549387Y15708D01*
X530566Y15196D02*
X530569Y15708D01*
X511748Y15196D02*
X511750Y15708D01*
X492929Y15196D02*
X492931Y15708D01*
X474110Y15196D02*
X474112Y15708D01*
X455291Y15196D02*
X455293Y15708D01*
X436472Y15196D02*
X436474Y15708D01*
X417653Y15196D02*
X417655Y15708D01*
X398834Y15196D02*
X398836Y15708D01*
X380015Y15196D02*
X380017Y15708D01*
X361196Y15196D02*
X361198Y15708D01*
X342377Y15196D02*
X342380Y15708D01*
X304740Y15196D02*
X304742Y15708D01*
X285921Y15196D02*
X285923Y15708D01*
X267102Y15196D02*
X267104Y15708D01*
X248283Y15196D02*
X248285Y15708D01*
X229464Y15196D02*
X229466Y15708D01*
X210645Y15196D02*
X210647Y15708D01*
X191826Y15196D02*
X191828Y15708D01*
X173007Y15196D02*
X173009Y15708D01*
X154188Y15196D02*
X154191Y15708D01*
X135370Y15196D02*
X135372Y15708D01*
X116551Y15196D02*
X116553Y15708D01*
X97732Y15196D02*
X97734Y15708D01*
X78913Y15196D02*
X78915Y15708D01*
X60094Y15196D02*
X60096Y15708D01*
X41275Y15196D02*
X41277Y15708D01*
X22456Y15196D02*
X22458Y15708D01*
X332229Y15000D02*
X332320Y15708D01*
X323479Y15000D02*
X323387Y15708D01*
X775214Y15708D02*
X775220Y15748D01*
X756395Y15708D02*
X756402Y15748D01*
X746139Y15708D02*
X746141Y15748D01*
X737576Y15708D02*
X737583Y15748D01*
X727320Y15708D02*
X727322Y15748D01*
X718757Y15708D02*
X718764Y15748D01*
X708501Y15708D02*
X708503Y15748D01*
X699939Y15708D02*
X699945Y15748D01*
X689682Y15708D02*
X689685Y15748D01*
X681120Y15708D02*
X681126Y15748D01*
X670864Y15708D02*
X670866Y15748D01*
X662301Y15708D02*
X662307Y15748D01*
X652045Y15708D02*
X652047Y15748D01*
X643482Y15708D02*
X643488Y15748D01*
X633226Y15708D02*
X633228Y15748D01*
X624663Y15708D02*
X624669Y15748D01*
X614407Y15708D02*
X614409Y15748D01*
X605844Y15708D02*
X605850Y15748D01*
X595588Y15708D02*
X595590Y15748D01*
X587025Y15708D02*
X587031Y15748D01*
X576769Y15708D02*
X576771Y15748D01*
X568206Y15708D02*
X568213Y15748D01*
X557950Y15708D02*
X557952Y15748D01*
X549387Y15708D02*
X549394Y15748D01*
X539131Y15708D02*
X539133Y15748D01*
X530569Y15708D02*
X530575Y15748D01*
X520312Y15708D02*
X520314Y15748D01*
X511750Y15708D02*
X511756Y15748D01*
X501493Y15708D02*
X501496Y15748D01*
X492931Y15708D02*
X492937Y15748D01*
X482675Y15708D02*
X482677Y15748D01*
X474112Y15708D02*
X474118Y15748D01*
X463856Y15708D02*
X463858Y15748D01*
X455293Y15708D02*
X455299Y15748D01*
X445037Y15708D02*
X445039Y15748D01*
X436474Y15708D02*
X436480Y15748D01*
X426218Y15708D02*
X426220Y15748D01*
X417655Y15708D02*
X417661Y15748D01*
X398836Y15708D02*
X398843Y15748D01*
X380017Y15708D02*
X380024Y15748D01*
X361198Y15708D02*
X361205Y15748D01*
X342380Y15708D02*
X342386Y15748D01*
X332320Y15708D02*
X332322Y15748D01*
X323387Y15708D02*
X323385Y15748D01*
X313305Y15708D02*
X313307Y15748D01*
X304742Y15708D02*
X304748Y15748D01*
X294486Y15708D02*
X294488Y15748D01*
X285923Y15708D02*
X285929Y15748D01*
X275667Y15708D02*
X275669Y15748D01*
X267104Y15708D02*
X267110Y15748D01*
X256848Y15708D02*
X256850Y15748D01*
X248285Y15708D02*
X248291Y15748D01*
X238029Y15708D02*
X238031Y15748D01*
X229466Y15708D02*
X229472Y15748D01*
X219210Y15708D02*
X219212Y15748D01*
X210647Y15708D02*
X210654Y15748D01*
X200391Y15708D02*
X200393Y15748D01*
X191828Y15708D02*
X191835Y15748D01*
X181572Y15708D02*
X181574Y15748D01*
X173009Y15708D02*
X173016Y15748D01*
X162753Y15708D02*
X162755Y15748D01*
X154191Y15708D02*
X154197Y15748D01*
X143934Y15708D02*
X143937Y15748D01*
X135372Y15708D02*
X135378Y15748D01*
X125116Y15708D02*
X125118Y15748D01*
X116553Y15708D02*
X116559Y15748D01*
X106297Y15708D02*
X106299Y15748D01*
X97734Y15708D02*
X97740Y15748D01*
X87478Y15708D02*
X87480Y15748D01*
X78915Y15708D02*
X78921Y15748D01*
X68659Y15708D02*
X68661Y15748D01*
X60096Y15708D02*
X60102Y15748D01*
X49840Y15708D02*
X49842Y15748D01*
X41277Y15708D02*
X41283Y15748D01*
X22458Y15708D02*
X22465Y15748D01*
X775220Y15748D02*
X775231Y15787D01*
X756402Y15748D02*
X756412Y15787D01*
X746141Y15748D02*
X746139Y15787D01*
X737583Y15748D02*
X737593Y15787D01*
X727322Y15748D02*
X727320Y15787D01*
X718764Y15748D02*
X718774Y15787D01*
X708503Y15748D02*
X708501Y15787D01*
X699945Y15748D02*
X699956Y15787D01*
X689685Y15748D02*
X689682Y15787D01*
X681126Y15748D02*
X681137Y15787D01*
X670866Y15748D02*
X670864Y15787D01*
X662307Y15748D02*
X662318Y15787D01*
X652047Y15748D02*
X652045Y15787D01*
X643488Y15748D02*
X643499Y15787D01*
X633228Y15748D02*
X633226Y15787D01*
X624669Y15748D02*
X624680Y15787D01*
X614409Y15748D02*
X614407Y15787D01*
X605850Y15748D02*
X605861Y15787D01*
X595590Y15748D02*
X595588Y15787D01*
X587031Y15748D02*
X587042Y15787D01*
X576771Y15748D02*
X576769Y15787D01*
X568213Y15748D02*
X568223Y15787D01*
X557952Y15748D02*
X557950Y15787D01*
X549394Y15748D02*
X549404Y15787D01*
X539133Y15748D02*
X539131Y15787D01*
X530575Y15748D02*
X530585Y15787D01*
X520314Y15748D02*
X520312Y15787D01*
X511756Y15748D02*
X511767Y15787D01*
X501496Y15748D02*
X501493Y15787D01*
X492937Y15748D02*
X492948Y15787D01*
X482677Y15748D02*
X482675Y15787D01*
X474118Y15748D02*
X474129Y15787D01*
X463858Y15748D02*
X463856Y15787D01*
X455299Y15748D02*
X455310Y15787D01*
X445039Y15748D02*
X445037Y15787D01*
X436480Y15748D02*
X436491Y15787D01*
X426220Y15748D02*
X426218Y15787D01*
X417661Y15748D02*
X417672Y15787D01*
X398843Y15748D02*
X398853Y15787D01*
X380024Y15748D02*
X380034Y15787D01*
X361205Y15748D02*
X361215Y15787D01*
X342386Y15748D02*
X342397Y15787D01*
X332322Y15748D02*
X332320Y15787D01*
X323385Y15748D02*
X323387Y15787D01*
X313307Y15748D02*
X313305Y15787D01*
X304748Y15748D02*
X304759Y15787D01*
X294488Y15748D02*
X294486Y15787D01*
X285929Y15748D02*
X285940Y15787D01*
X275669Y15748D02*
X275667Y15787D01*
X267110Y15748D02*
X267121Y15787D01*
X256850Y15748D02*
X256848Y15787D01*
X248291Y15748D02*
X248302Y15787D01*
X238031Y15748D02*
X238029Y15787D01*
X229472Y15748D02*
X229483Y15787D01*
X219212Y15748D02*
X219210Y15787D01*
X210654Y15748D02*
X210664Y15787D01*
X200393Y15748D02*
X200391Y15787D01*
X191835Y15748D02*
X191845Y15787D01*
X181574Y15748D02*
X181572Y15787D01*
X173016Y15748D02*
X173026Y15787D01*
X162755Y15748D02*
X162753Y15787D01*
X154197Y15748D02*
X154208Y15787D01*
X143937Y15748D02*
X143934Y15787D01*
X135378Y15748D02*
X135389Y15787D01*
X125118Y15748D02*
X125116Y15787D01*
X116559Y15748D02*
X116570Y15787D01*
X106299Y15748D02*
X106297Y15787D01*
X97740Y15748D02*
X97751Y15787D01*
X87480Y15748D02*
X87478Y15787D01*
X78921Y15748D02*
X78932Y15787D01*
X68661Y15748D02*
X68659Y15787D01*
X60102Y15748D02*
X60113Y15787D01*
X49842Y15748D02*
X49840Y15787D01*
X41283Y15748D02*
X41294Y15787D01*
X22465Y15748D02*
X22475Y15787D01*
X783738Y15551D02*
X783703Y15787D01*
X388619Y15551D02*
X388585Y15787D01*
X369722Y15551D02*
X369688Y15787D01*
X12242Y15551D02*
X12207Y15787D01*
X737593Y15787D02*
X737621Y15866D01*
X718774Y15787D02*
X718802Y15866D01*
X699956Y15787D02*
X699983Y15866D01*
X681137Y15787D02*
X681164Y15866D01*
X662318Y15787D02*
X662345Y15866D01*
X643499Y15787D02*
X643526Y15866D01*
X624680Y15787D02*
X624707Y15866D01*
X605861Y15787D02*
X605888Y15866D01*
X587042Y15787D02*
X587070Y15866D01*
X568223Y15787D02*
X568251Y15866D01*
X549404Y15787D02*
X549432Y15866D01*
X530585Y15787D02*
X530613Y15866D01*
X511767Y15787D02*
X511794Y15866D01*
X492948Y15787D02*
X492975Y15866D01*
X474129Y15787D02*
X474156Y15866D01*
X455310Y15787D02*
X455337Y15866D01*
X436491Y15787D02*
X436518Y15866D01*
X417672Y15787D02*
X417699Y15866D01*
X398853Y15787D02*
X398881Y15866D01*
X380034Y15787D02*
X380062Y15866D01*
X304759Y15787D02*
X304786Y15866D01*
X285940Y15787D02*
X285967Y15866D01*
X267121Y15787D02*
X267148Y15866D01*
X248302Y15787D02*
X248329Y15866D01*
X229483Y15787D02*
X229510Y15866D01*
X210664Y15787D02*
X210692Y15866D01*
X191845Y15787D02*
X191873Y15866D01*
X173026Y15787D02*
X173054Y15866D01*
X154208Y15787D02*
X154235Y15866D01*
X135389Y15787D02*
X135416Y15866D01*
X116570Y15787D02*
X116597Y15866D01*
X97751Y15787D02*
X97778Y15866D01*
X78932Y15787D02*
X78959Y15866D01*
X60113Y15787D02*
X60140Y15866D01*
X41294Y15787D02*
X41321Y15866D01*
X22475Y15787D02*
X22503Y15866D01*
X764919Y15629D02*
X764884Y15866D01*
X350903Y15629D02*
X350869Y15866D01*
X737621Y15866D02*
X737632Y15905D01*
X718802Y15866D02*
X718813Y15905D01*
X699983Y15866D02*
X699994Y15905D01*
X681164Y15866D02*
X681175Y15905D01*
X662345Y15866D02*
X662356Y15905D01*
X643526Y15866D02*
X643537Y15905D01*
X624707Y15866D02*
X624718Y15905D01*
X605888Y15866D02*
X605899Y15905D01*
X587070Y15866D02*
X587081Y15905D01*
X568251Y15866D02*
X568262Y15905D01*
X549432Y15866D02*
X549443Y15905D01*
X530613Y15866D02*
X530624Y15905D01*
X511794Y15866D02*
X511805Y15905D01*
X492975Y15866D02*
X492986Y15905D01*
X474156Y15866D02*
X474167Y15905D01*
X455337Y15866D02*
X455348Y15905D01*
X436518Y15866D02*
X436529Y15905D01*
X417699Y15866D02*
X417710Y15905D01*
X304786Y15866D02*
X304797Y15905D01*
X285967Y15866D02*
X285978Y15905D01*
X267148Y15866D02*
X267159Y15905D01*
X248329Y15866D02*
X248340Y15905D01*
X229510Y15866D02*
X229521Y15905D01*
X210692Y15866D02*
X210703Y15905D01*
X191873Y15866D02*
X191884Y15905D01*
X173054Y15866D02*
X173065Y15905D01*
X154235Y15866D02*
X154246Y15905D01*
X135416Y15866D02*
X135427Y15905D01*
X116597Y15866D02*
X116608Y15905D01*
X97778Y15866D02*
X97789Y15905D01*
X78959Y15866D02*
X78970Y15905D01*
X60140Y15866D02*
X60151Y15905D01*
X41321Y15866D02*
X41333Y15905D01*
X407478Y15669D02*
X407444Y15905D01*
X31100Y15669D02*
X31066Y15905D01*
X12180Y15984D02*
X22536Y15984D01*
X31055Y15984D02*
X41335Y15984D01*
X49811Y15984D02*
X60154Y15984D01*
X68630Y15984D02*
X78972Y15984D01*
X87449Y15984D02*
X97791Y15984D01*
X106268Y15984D02*
X116610Y15984D01*
X125087Y15984D02*
X135429Y15984D01*
X143906Y15984D02*
X154248Y15984D01*
X162725Y15984D02*
X173067Y15984D01*
X181543Y15984D02*
X191886Y15984D01*
X200362Y15984D02*
X210705Y15984D01*
X219181Y15984D02*
X229524Y15984D01*
X238000Y15984D02*
X248343Y15984D01*
X256819Y15984D02*
X267161Y15984D01*
X275638Y15984D02*
X285980Y15984D01*
X294457Y15984D02*
X304799Y15984D01*
X313276Y15984D02*
X323415Y15984D01*
X332293Y15984D02*
X342398Y15984D01*
X350852Y15984D02*
X361217Y15984D01*
X369661Y15984D02*
X380095Y15984D01*
X388558Y15984D02*
X398914Y15984D01*
X407433Y15984D02*
X417713Y15984D01*
X426189Y15984D02*
X436532Y15984D01*
X445008Y15984D02*
X455350Y15984D01*
X463827Y15984D02*
X474169Y15984D01*
X482646Y15984D02*
X492988Y15984D01*
X501465Y15984D02*
X511807Y15984D01*
X520284Y15984D02*
X530626Y15984D01*
X539102Y15984D02*
X549445Y15984D01*
X557921Y15984D02*
X568264Y15984D01*
X576740Y15984D02*
X587083Y15984D01*
X595559Y15984D02*
X605902Y15984D01*
X614378Y15984D02*
X624720Y15984D01*
X633197Y15984D02*
X643539Y15984D01*
X652016Y15984D02*
X662358Y15984D01*
X670835Y15984D02*
X681177Y15984D01*
X689654Y15984D02*
X699996Y15984D01*
X708473Y15984D02*
X718815Y15984D01*
X727291Y15984D02*
X737634Y15984D01*
X746110Y15984D02*
X756413Y15984D01*
X764868Y15984D02*
X775232Y15984D01*
X783676Y15984D02*
X794130Y15984D01*
X775231Y15787D02*
X775232Y15944D01*
X756412Y15787D02*
X756413Y15944D01*
X361215Y15787D02*
X361217Y15944D01*
X342397Y15787D02*
X342398Y15944D01*
X737632Y15905D02*
X737634Y15984D01*
X718813Y15905D02*
X718815Y15984D01*
X699994Y15905D02*
X699996Y15984D01*
X681175Y15905D02*
X681177Y15984D01*
X662356Y15905D02*
X662358Y15984D01*
X643537Y15905D02*
X643539Y15984D01*
X624718Y15905D02*
X624720Y15984D01*
X605899Y15905D02*
X605902Y15984D01*
X587081Y15905D02*
X587083Y15984D01*
X568262Y15905D02*
X568264Y15984D01*
X549443Y15905D02*
X549445Y15984D01*
X530624Y15905D02*
X530626Y15984D01*
X511805Y15905D02*
X511807Y15984D01*
X492986Y15905D02*
X492988Y15984D01*
X474167Y15905D02*
X474169Y15984D01*
X455348Y15905D02*
X455350Y15984D01*
X436529Y15905D02*
X436532Y15984D01*
X417710Y15905D02*
X417713Y15984D01*
X304797Y15905D02*
X304799Y15984D01*
X285978Y15905D02*
X285980Y15984D01*
X267159Y15905D02*
X267161Y15984D01*
X248340Y15905D02*
X248343Y15984D01*
X229521Y15905D02*
X229524Y15984D01*
X210703Y15905D02*
X210705Y15984D01*
X191884Y15905D02*
X191886Y15984D01*
X173065Y15905D02*
X173067Y15984D01*
X154246Y15905D02*
X154248Y15984D01*
X135427Y15905D02*
X135429Y15984D01*
X116608Y15905D02*
X116610Y15984D01*
X97789Y15905D02*
X97791Y15984D01*
X78970Y15905D02*
X78972Y15984D01*
X60151Y15905D02*
X60154Y15984D01*
X41333Y15905D02*
X41335Y15984D01*
X332320Y15787D02*
X332293Y15984D01*
X323387Y15787D02*
X323415Y15984D01*
X746139Y15787D02*
X746105Y16023D01*
X727320Y15787D02*
X727286Y16023D01*
X708501Y15787D02*
X708467Y16023D01*
X689682Y15787D02*
X689648Y16023D01*
X670864Y15787D02*
X670829Y16023D01*
X652045Y15787D02*
X652010Y16023D01*
X633226Y15787D02*
X633192Y16023D01*
X614407Y15787D02*
X614373Y16023D01*
X595588Y15787D02*
X595554Y16023D01*
X576769Y15787D02*
X576735Y16023D01*
X557950Y15787D02*
X557916Y16023D01*
X539131Y15787D02*
X539097Y16023D01*
X520312Y15787D02*
X520278Y16023D01*
X501493Y15787D02*
X501459Y16023D01*
X482675Y15787D02*
X482640Y16023D01*
X463856Y15787D02*
X463821Y16023D01*
X445037Y15787D02*
X445003Y16023D01*
X426218Y15787D02*
X426184Y16023D01*
X313305Y15787D02*
X313270Y16023D01*
X294486Y15787D02*
X294451Y16023D01*
X275667Y15787D02*
X275632Y16023D01*
X256848Y15787D02*
X256814Y16023D01*
X238029Y15787D02*
X237995Y16023D01*
X219210Y15787D02*
X219176Y16023D01*
X200391Y15787D02*
X200357Y16023D01*
X181572Y15787D02*
X181538Y16023D01*
X162753Y15787D02*
X162719Y16023D01*
X143934Y15787D02*
X143900Y16023D01*
X125116Y15787D02*
X125081Y16023D01*
X106297Y15787D02*
X106262Y16023D01*
X87478Y15787D02*
X87444Y16023D01*
X68659Y15787D02*
X68625Y16023D01*
X49840Y15787D02*
X49806Y16023D01*
X775232Y15944D02*
X775234Y16062D01*
X361217Y15944D02*
X361219Y16062D01*
X380062Y15866D02*
X380116Y16062D01*
X794130Y15314D02*
X794132Y16062D01*
X794132Y16062D02*
X794138Y16102D01*
X775234Y16062D02*
X775241Y16102D01*
X380116Y16062D02*
X380123Y16102D01*
X361219Y16062D02*
X361225Y16102D01*
X756413Y15944D02*
X756415Y16141D01*
X342398Y15944D02*
X342400Y16141D01*
X756415Y16141D02*
X756422Y16181D01*
X342400Y16141D02*
X342406Y16181D01*
X737634Y15984D02*
X737636Y16299D01*
X718815Y15984D02*
X718817Y16299D01*
X699996Y15984D02*
X699998Y16299D01*
X681177Y15984D02*
X681179Y16299D01*
X662358Y15984D02*
X662360Y16299D01*
X643539Y15984D02*
X643541Y16299D01*
X624720Y15984D02*
X624723Y16299D01*
X605902Y15984D02*
X605904Y16299D01*
X587083Y15984D02*
X587085Y16299D01*
X568264Y15984D02*
X568266Y16299D01*
X549445Y15984D02*
X549447Y16299D01*
X530626Y15984D02*
X530628Y16299D01*
X511807Y15984D02*
X511809Y16299D01*
X492988Y15984D02*
X492990Y16299D01*
X474169Y15984D02*
X474171Y16299D01*
X455350Y15984D02*
X455352Y16299D01*
X436532Y15984D02*
X436534Y16299D01*
X417713Y15984D02*
X417715Y16299D01*
X304799Y15984D02*
X304801Y16299D01*
X285980Y15984D02*
X285982Y16299D01*
X267161Y15984D02*
X267163Y16299D01*
X248343Y15984D02*
X248345Y16299D01*
X229524Y15984D02*
X229526Y16299D01*
X210705Y15984D02*
X210707Y16299D01*
X191886Y15984D02*
X191888Y16299D01*
X173067Y15984D02*
X173069Y16299D01*
X154248Y15984D02*
X154250Y16299D01*
X135429Y15984D02*
X135431Y16299D01*
X116610Y15984D02*
X116612Y16299D01*
X97791Y15984D02*
X97793Y16299D01*
X78972Y15984D02*
X78975Y16299D01*
X60154Y15984D02*
X60156Y16299D01*
X41335Y15984D02*
X41337Y16299D01*
X737636Y16299D02*
X737642Y16338D01*
X718817Y16299D02*
X718823Y16338D01*
X699998Y16299D02*
X700004Y16338D01*
X681179Y16299D02*
X681186Y16338D01*
X662360Y16299D02*
X662367Y16338D01*
X643541Y16299D02*
X643548Y16338D01*
X624723Y16299D02*
X624729Y16338D01*
X605904Y16299D02*
X605910Y16338D01*
X587085Y16299D02*
X587091Y16338D01*
X568266Y16299D02*
X568272Y16338D01*
X549447Y16299D02*
X549453Y16338D01*
X530628Y16299D02*
X530634Y16338D01*
X511809Y16299D02*
X511815Y16338D01*
X492990Y16299D02*
X492997Y16338D01*
X474171Y16299D02*
X474178Y16338D01*
X455352Y16299D02*
X455359Y16338D01*
X436534Y16299D02*
X436540Y16338D01*
X417715Y16299D02*
X417721Y16338D01*
X304801Y16299D02*
X304808Y16338D01*
X285982Y16299D02*
X285989Y16338D01*
X267163Y16299D02*
X267170Y16338D01*
X248345Y16299D02*
X248351Y16338D01*
X229526Y16299D02*
X229532Y16338D01*
X210707Y16299D02*
X210713Y16338D01*
X191888Y16299D02*
X191894Y16338D01*
X173069Y16299D02*
X173075Y16338D01*
X154250Y16299D02*
X154256Y16338D01*
X135431Y16299D02*
X135437Y16338D01*
X116612Y16299D02*
X116619Y16338D01*
X97793Y16299D02*
X97800Y16338D01*
X78975Y16299D02*
X78981Y16338D01*
X60156Y16299D02*
X60162Y16338D01*
X41337Y16299D02*
X41343Y16338D01*
X12104Y16535D02*
X22690Y16535D01*
X30979Y16535D02*
X41398Y16535D01*
X49735Y16535D02*
X60216Y16535D01*
X68554Y16535D02*
X79035Y16535D01*
X87373Y16535D02*
X97854Y16535D01*
X106192Y16535D02*
X116673Y16535D01*
X125011Y16535D02*
X135492Y16535D01*
X143830Y16535D02*
X154311Y16535D01*
X162649Y16535D02*
X173130Y16535D01*
X181468Y16535D02*
X191949Y16535D01*
X200287Y16535D02*
X210768Y16535D01*
X219105Y16535D02*
X229587Y16535D01*
X237924Y16535D02*
X248405Y16535D01*
X256743Y16535D02*
X267224Y16535D01*
X275562Y16535D02*
X286043Y16535D01*
X294381Y16535D02*
X304862Y16535D01*
X313200Y16535D02*
X323488Y16535D01*
X332220Y16535D02*
X342505Y16535D01*
X350777Y16535D02*
X361346Y16535D01*
X369585Y16535D02*
X380243Y16535D01*
X388482Y16535D02*
X399068Y16535D01*
X407357Y16535D02*
X417776Y16535D01*
X426113Y16535D02*
X436594Y16535D01*
X444932Y16535D02*
X455413Y16535D01*
X463751Y16535D02*
X474232Y16535D01*
X482570Y16535D02*
X493051Y16535D01*
X501389Y16535D02*
X511870Y16535D01*
X520208Y16535D02*
X530689Y16535D01*
X539027Y16535D02*
X549508Y16535D01*
X557846Y16535D02*
X568327Y16535D01*
X576665Y16535D02*
X587146Y16535D01*
X595483Y16535D02*
X605965Y16535D01*
X614302Y16535D02*
X624783Y16535D01*
X633121Y16535D02*
X643602Y16535D01*
X651940Y16535D02*
X662421Y16535D01*
X670759Y16535D02*
X681240Y16535D01*
X689578Y16535D02*
X700059Y16535D01*
X708397Y16535D02*
X718878Y16535D01*
X727216Y16535D02*
X737697Y16535D01*
X746035Y16535D02*
X756520Y16535D01*
X764792Y16535D02*
X775361Y16535D01*
X783601Y16535D02*
X794259Y16535D01*
X794138Y16102D02*
X794281Y16614D01*
X775241Y16102D02*
X775383Y16614D01*
X380123Y16102D02*
X380265Y16614D01*
X361225Y16102D02*
X361368Y16614D01*
X783703Y15787D02*
X783589Y16614D01*
X388585Y15787D02*
X388471Y16614D01*
X369688Y15787D02*
X369573Y16614D01*
X12207Y15787D02*
X12093Y16614D01*
X783589Y16614D02*
X783578Y16653D01*
X388471Y16614D02*
X388460Y16653D01*
X369573Y16614D02*
X369562Y16653D01*
X12093Y16614D02*
X12082Y16653D01*
X756422Y16181D02*
X756565Y16692D01*
X342406Y16181D02*
X342549Y16692D01*
X764884Y15866D02*
X764770Y16692D01*
X350869Y15866D02*
X350754Y16692D01*
X764770Y16692D02*
X764759Y16732D01*
X350754Y16692D02*
X350744Y16732D01*
X407444Y15905D02*
X407329Y16732D01*
X31066Y15905D02*
X30951Y16732D01*
X407329Y16732D02*
X407318Y16771D01*
X30951Y16732D02*
X30940Y16771D01*
X783578Y16653D02*
X783513Y16811D01*
X388460Y16653D02*
X388395Y16811D01*
X369562Y16653D02*
X369497Y16811D01*
X12082Y16653D02*
X12017Y16811D01*
X737642Y16338D02*
X737785Y16850D01*
X718823Y16338D02*
X718966Y16850D01*
X700004Y16338D02*
X700147Y16850D01*
X681186Y16338D02*
X681328Y16850D01*
X662367Y16338D02*
X662509Y16850D01*
X643548Y16338D02*
X643691Y16850D01*
X624729Y16338D02*
X624872Y16850D01*
X605910Y16338D02*
X606053Y16850D01*
X587091Y16338D02*
X587234Y16850D01*
X568272Y16338D02*
X568415Y16850D01*
X549453Y16338D02*
X549596Y16850D01*
X530634Y16338D02*
X530777Y16850D01*
X511815Y16338D02*
X511958Y16850D01*
X492997Y16338D02*
X493139Y16850D01*
X474178Y16338D02*
X474320Y16850D01*
X455359Y16338D02*
X455502Y16850D01*
X436540Y16338D02*
X436683Y16850D01*
X417721Y16338D02*
X417864Y16850D01*
X304808Y16338D02*
X304950Y16850D01*
X285989Y16338D02*
X286132Y16850D01*
X267170Y16338D02*
X267313Y16850D01*
X248351Y16338D02*
X248494Y16850D01*
X229532Y16338D02*
X229675Y16850D01*
X210713Y16338D02*
X210856Y16850D01*
X191894Y16338D02*
X192037Y16850D01*
X173075Y16338D02*
X173218Y16850D01*
X154256Y16338D02*
X154399Y16850D01*
X135437Y16338D02*
X135580Y16850D01*
X116619Y16338D02*
X116761Y16850D01*
X97800Y16338D02*
X97943Y16850D01*
X78981Y16338D02*
X79124Y16850D01*
X60162Y16338D02*
X60305Y16850D01*
X41343Y16338D02*
X41486Y16850D01*
X746105Y16023D02*
X745990Y16850D01*
X727286Y16023D02*
X727172Y16850D01*
X708467Y16023D02*
X708353Y16850D01*
X689648Y16023D02*
X689534Y16850D01*
X670829Y16023D02*
X670715Y16850D01*
X652010Y16023D02*
X651896Y16850D01*
X633192Y16023D02*
X633077Y16850D01*
X614373Y16023D02*
X614258Y16850D01*
X595554Y16023D02*
X595439Y16850D01*
X576735Y16023D02*
X576620Y16850D01*
X557916Y16023D02*
X557801Y16850D01*
X539097Y16023D02*
X538983Y16850D01*
X520278Y16023D02*
X520164Y16850D01*
X501459Y16023D02*
X501345Y16850D01*
X482640Y16023D02*
X482526Y16850D01*
X463821Y16023D02*
X463707Y16850D01*
X445003Y16023D02*
X444888Y16850D01*
X426184Y16023D02*
X426069Y16850D01*
X313270Y16023D02*
X313156Y16850D01*
X294451Y16023D02*
X294337Y16850D01*
X275632Y16023D02*
X275518Y16850D01*
X256814Y16023D02*
X256699Y16850D01*
X237995Y16023D02*
X237880Y16850D01*
X219176Y16023D02*
X219061Y16850D01*
X200357Y16023D02*
X200242Y16850D01*
X181538Y16023D02*
X181424Y16850D01*
X162719Y16023D02*
X162605Y16850D01*
X143900Y16023D02*
X143786Y16850D01*
X125081Y16023D02*
X124967Y16850D01*
X106262Y16023D02*
X106148Y16850D01*
X87444Y16023D02*
X87329Y16850D01*
X68625Y16023D02*
X68510Y16850D01*
X49806Y16023D02*
X49691Y16850D01*
X332293Y15984D02*
X332178Y16850D01*
X323415Y15984D02*
X323530Y16850D01*
X745990Y16850D02*
X745980Y16889D01*
X727172Y16850D02*
X727161Y16889D01*
X708353Y16850D02*
X708342Y16889D01*
X689534Y16850D02*
X689523Y16889D01*
X670715Y16850D02*
X670704Y16889D01*
X651896Y16850D02*
X651885Y16889D01*
X633077Y16850D02*
X633066Y16889D01*
X614258Y16850D02*
X614247Y16889D01*
X595439Y16850D02*
X595429Y16889D01*
X576620Y16850D02*
X576610Y16889D01*
X557801Y16850D02*
X557791Y16889D01*
X538983Y16850D02*
X538972Y16889D01*
X520164Y16850D02*
X520153Y16889D01*
X501345Y16850D02*
X501334Y16889D01*
X482526Y16850D02*
X482515Y16889D01*
X463707Y16850D02*
X463696Y16889D01*
X444888Y16850D02*
X444877Y16889D01*
X426069Y16850D02*
X426058Y16889D01*
X313156Y16850D02*
X313145Y16889D01*
X294337Y16850D02*
X294326Y16889D01*
X275518Y16850D02*
X275507Y16889D01*
X256699Y16850D02*
X256688Y16889D01*
X237880Y16850D02*
X237870Y16889D01*
X219061Y16850D02*
X219051Y16889D01*
X200242Y16850D02*
X200232Y16889D01*
X181424Y16850D02*
X181413Y16889D01*
X162605Y16850D02*
X162594Y16889D01*
X143786Y16850D02*
X143775Y16889D01*
X124967Y16850D02*
X124956Y16889D01*
X106148Y16850D02*
X106137Y16889D01*
X87329Y16850D02*
X87318Y16889D01*
X68510Y16850D02*
X68499Y16889D01*
X49691Y16850D02*
X49681Y16889D01*
X764759Y16732D02*
X764694Y16889D01*
X350744Y16732D02*
X350678Y16889D01*
X332178Y16850D02*
X332154Y16929D01*
X323530Y16850D02*
X323553Y16929D01*
X407318Y16771D02*
X407253Y16929D01*
X30940Y16771D02*
X30875Y16929D01*
X11897Y17086D02*
X22845Y17086D01*
X30807Y17086D02*
X41552Y17086D01*
X49598Y17086D02*
X60371Y17086D01*
X68417Y17086D02*
X79190Y17086D01*
X87236Y17086D02*
X98009Y17086D01*
X106055Y17086D02*
X116828Y17086D01*
X124874Y17086D02*
X135647Y17086D01*
X143692Y17086D02*
X154465Y17086D01*
X162511Y17086D02*
X173284Y17086D01*
X181330Y17086D02*
X192103Y17086D01*
X200149Y17086D02*
X210922Y17086D01*
X218968Y17086D02*
X229741Y17086D01*
X237787Y17086D02*
X248560Y17086D01*
X256606Y17086D02*
X267379Y17086D01*
X275425Y17086D02*
X286198Y17086D01*
X294244Y17086D02*
X305017Y17086D01*
X313063Y17086D02*
X323618Y17086D01*
X332090Y17086D02*
X342659Y17086D01*
X350593Y17086D02*
X361500Y17086D01*
X369377Y17086D02*
X380398Y17086D01*
X388275Y17086D02*
X399223Y17086D01*
X407184Y17086D02*
X417930Y17086D01*
X425976Y17086D02*
X436749Y17086D01*
X444795Y17086D02*
X455568Y17086D01*
X463614Y17086D02*
X474387Y17086D01*
X482433Y17086D02*
X493206Y17086D01*
X501252Y17086D02*
X512024Y17086D01*
X520070Y17086D02*
X530843Y17086D01*
X538889Y17086D02*
X549662Y17086D01*
X557708Y17086D02*
X568481Y17086D01*
X576527Y17086D02*
X587300Y17086D01*
X595346Y17086D02*
X606119Y17086D01*
X614165Y17086D02*
X624938Y17086D01*
X632984Y17086D02*
X643757Y17086D01*
X651803Y17086D02*
X662576Y17086D01*
X670622Y17086D02*
X681395Y17086D01*
X689441Y17086D02*
X700213Y17086D01*
X708259Y17086D02*
X719032Y17086D01*
X727078Y17086D02*
X737851Y17086D01*
X745897Y17086D02*
X756675Y17086D01*
X764608Y17086D02*
X775516Y17086D01*
X783393Y17086D02*
X794413Y17086D01*
X745980Y16889D02*
X745914Y17047D01*
X727161Y16889D02*
X727095Y17047D01*
X708342Y16889D02*
X708277Y17047D01*
X689523Y16889D02*
X689458Y17047D01*
X670704Y16889D02*
X670639Y17047D01*
X651885Y16889D02*
X651820Y17047D01*
X633066Y16889D02*
X633001Y17047D01*
X614247Y16889D02*
X614182Y17047D01*
X595429Y16889D02*
X595363Y17047D01*
X576610Y16889D02*
X576544Y17047D01*
X557791Y16889D02*
X557725Y17047D01*
X538972Y16889D02*
X538906Y17047D01*
X520153Y16889D02*
X520088Y17047D01*
X501334Y16889D02*
X501269Y17047D01*
X482515Y16889D02*
X482450Y17047D01*
X463696Y16889D02*
X463631Y17047D01*
X444877Y16889D02*
X444812Y17047D01*
X426058Y16889D02*
X425993Y17047D01*
X313145Y16889D02*
X313080Y17047D01*
X294326Y16889D02*
X294261Y17047D01*
X275507Y16889D02*
X275442Y17047D01*
X256688Y16889D02*
X256623Y17047D01*
X237870Y16889D02*
X237804Y17047D01*
X219051Y16889D02*
X218985Y17047D01*
X200232Y16889D02*
X200166Y17047D01*
X181413Y16889D02*
X181347Y17047D01*
X162594Y16889D02*
X162528Y17047D01*
X143775Y16889D02*
X143710Y17047D01*
X124956Y16889D02*
X124891Y17047D01*
X106137Y16889D02*
X106072Y17047D01*
X87318Y16889D02*
X87253Y17047D01*
X68499Y16889D02*
X68434Y17047D01*
X49681Y16889D02*
X49615Y17047D01*
X332154Y16929D02*
X332074Y17125D01*
X323553Y16929D02*
X323634Y17125D01*
X794281Y16614D02*
X794448Y17204D01*
X775383Y16614D02*
X775550Y17204D01*
X380265Y16614D02*
X380432Y17204D01*
X361368Y16614D02*
X361535Y17204D01*
X794448Y17204D02*
X794469Y17244D01*
X775550Y17204D02*
X775571Y17244D01*
X380432Y17204D02*
X380453Y17244D01*
X361535Y17204D02*
X361555Y17244D01*
X756565Y16692D02*
X756731Y17283D01*
X342549Y16692D02*
X342716Y17283D01*
X756731Y17283D02*
X756752Y17322D01*
X342716Y17283D02*
X342737Y17322D01*
X398881Y15866D02*
X399290Y17322D01*
X22503Y15866D02*
X22912Y17322D01*
X399290Y17322D02*
X399311Y17362D01*
X22912Y17322D02*
X22933Y17362D01*
X794469Y17244D02*
X794547Y17362D01*
X775571Y17244D02*
X775650Y17362D01*
X380453Y17244D02*
X380532Y17362D01*
X361555Y17244D02*
X361634Y17362D01*
X756752Y17322D02*
X756831Y17440D01*
X342737Y17322D02*
X342815Y17440D01*
X737785Y16850D02*
X737952Y17440D01*
X718966Y16850D02*
X719133Y17440D01*
X700147Y16850D02*
X700314Y17440D01*
X681328Y16850D02*
X681495Y17440D01*
X662509Y16850D02*
X662676Y17440D01*
X643691Y16850D02*
X643857Y17440D01*
X624872Y16850D02*
X625038Y17440D01*
X606053Y16850D02*
X606220Y17440D01*
X587234Y16850D02*
X587401Y17440D01*
X568415Y16850D02*
X568582Y17440D01*
X549596Y16850D02*
X549763Y17440D01*
X530777Y16850D02*
X530944Y17440D01*
X511958Y16850D02*
X512125Y17440D01*
X493139Y16850D02*
X493306Y17440D01*
X474320Y16850D02*
X474487Y17440D01*
X455502Y16850D02*
X455668Y17440D01*
X436683Y16850D02*
X436849Y17440D01*
X417864Y16850D02*
X418031Y17440D01*
X304950Y16850D02*
X305117Y17440D01*
X286132Y16850D02*
X286298Y17440D01*
X267313Y16850D02*
X267479Y17440D01*
X248494Y16850D02*
X248661Y17440D01*
X229675Y16850D02*
X229842Y17440D01*
X210856Y16850D02*
X211023Y17440D01*
X192037Y16850D02*
X192204Y17440D01*
X173218Y16850D02*
X173385Y17440D01*
X154399Y16850D02*
X154566Y17440D01*
X135580Y16850D02*
X135747Y17440D01*
X116761Y16850D02*
X116928Y17440D01*
X97943Y16850D02*
X98109Y17440D01*
X79124Y16850D02*
X79290Y17440D01*
X60305Y16850D02*
X60472Y17440D01*
X41486Y16850D02*
X41653Y17440D01*
X737952Y17440D02*
X737973Y17480D01*
X719133Y17440D02*
X719154Y17480D01*
X700314Y17440D02*
X700335Y17480D01*
X681495Y17440D02*
X681516Y17480D01*
X662676Y17440D02*
X662697Y17480D01*
X643857Y17440D02*
X643878Y17480D01*
X625038Y17440D02*
X625059Y17480D01*
X606220Y17440D02*
X606240Y17480D01*
X587401Y17440D02*
X587422Y17480D01*
X568582Y17440D02*
X568603Y17480D01*
X549763Y17440D02*
X549784Y17480D01*
X530944Y17440D02*
X530965Y17480D01*
X512125Y17440D02*
X512146Y17480D01*
X493306Y17440D02*
X493327Y17480D01*
X474487Y17440D02*
X474508Y17480D01*
X455668Y17440D02*
X455689Y17480D01*
X436849Y17440D02*
X436870Y17480D01*
X418031Y17440D02*
X418051Y17480D01*
X305117Y17440D02*
X305138Y17480D01*
X286298Y17440D02*
X286319Y17480D01*
X267479Y17440D02*
X267500Y17480D01*
X248661Y17440D02*
X248681Y17480D01*
X229842Y17440D02*
X229862Y17480D01*
X211023Y17440D02*
X211044Y17480D01*
X192204Y17440D02*
X192225Y17480D01*
X173385Y17440D02*
X173406Y17480D01*
X154566Y17440D02*
X154587Y17480D01*
X135747Y17440D02*
X135768Y17480D01*
X116928Y17440D02*
X116949Y17480D01*
X98109Y17440D02*
X98130Y17480D01*
X79290Y17440D02*
X79311Y17480D01*
X60472Y17440D02*
X60492Y17480D01*
X41653Y17440D02*
X41674Y17480D01*
X399311Y17362D02*
X399390Y17480D01*
X22933Y17362D02*
X23012Y17480D01*
X11663Y17637D02*
X23108Y17637D01*
X30567Y17637D02*
X41776Y17637D01*
X49359Y17637D02*
X60595Y17637D01*
X68177Y17637D02*
X79414Y17637D01*
X86996Y17637D02*
X98233Y17637D01*
X105815Y17637D02*
X117052Y17637D01*
X124634Y17637D02*
X135871Y17637D01*
X143453Y17637D02*
X154689Y17637D01*
X162272Y17637D02*
X173508Y17637D01*
X181091Y17637D02*
X192327Y17637D01*
X199910Y17637D02*
X211146Y17637D01*
X218729Y17637D02*
X229965Y17637D01*
X237548Y17637D02*
X248784Y17637D01*
X256366Y17637D02*
X267603Y17637D01*
X275185Y17637D02*
X286422Y17637D01*
X294004Y17637D02*
X305241Y17637D01*
X312823Y17637D02*
X323846Y17637D01*
X331862Y17637D02*
X342935Y17637D01*
X350353Y17637D02*
X361802Y17637D01*
X369143Y17637D02*
X380699Y17637D01*
X388041Y17637D02*
X399486Y17637D01*
X406945Y17637D02*
X418154Y17637D01*
X425737Y17637D02*
X436973Y17637D01*
X444555Y17637D02*
X455792Y17637D01*
X463374Y17637D02*
X474611Y17637D01*
X482193Y17637D02*
X493430Y17637D01*
X501012Y17637D02*
X512248Y17637D01*
X519831Y17637D02*
X531067Y17637D01*
X538650Y17637D02*
X549886Y17637D01*
X557469Y17637D02*
X568705Y17637D01*
X576288Y17637D02*
X587524Y17637D01*
X595107Y17637D02*
X606343Y17637D01*
X613926Y17637D02*
X625162Y17637D01*
X632744Y17637D02*
X643981Y17637D01*
X651563Y17637D02*
X662800Y17637D01*
X670382Y17637D02*
X681619Y17637D01*
X689201Y17637D02*
X700437Y17637D01*
X708020Y17637D02*
X719256Y17637D01*
X726839Y17637D02*
X738075Y17637D01*
X745658Y17637D02*
X756951Y17637D01*
X764369Y17637D02*
X775817Y17637D01*
X783159Y17637D02*
X794715Y17637D01*
X737973Y17480D02*
X738051Y17598D01*
X719154Y17480D02*
X719232Y17598D01*
X700335Y17480D02*
X700413Y17598D01*
X681516Y17480D02*
X681595Y17598D01*
X662697Y17480D02*
X662776Y17598D01*
X643878Y17480D02*
X643957Y17598D01*
X625059Y17480D02*
X625138Y17598D01*
X606240Y17480D02*
X606319Y17598D01*
X587422Y17480D02*
X587500Y17598D01*
X568603Y17480D02*
X568681Y17598D01*
X549784Y17480D02*
X549862Y17598D01*
X530965Y17480D02*
X531043Y17598D01*
X512146Y17480D02*
X512225Y17598D01*
X493327Y17480D02*
X493406Y17598D01*
X474508Y17480D02*
X474587Y17598D01*
X455689Y17480D02*
X455768Y17598D01*
X436870Y17480D02*
X436949Y17598D01*
X418051Y17480D02*
X418130Y17598D01*
X305138Y17480D02*
X305217Y17598D01*
X286319Y17480D02*
X286398Y17598D01*
X267500Y17480D02*
X267579Y17598D01*
X248681Y17480D02*
X248760Y17598D01*
X229862Y17480D02*
X229941Y17598D01*
X211044Y17480D02*
X211122Y17598D01*
X192225Y17480D02*
X192303Y17598D01*
X173406Y17480D02*
X173484Y17598D01*
X154587Y17480D02*
X154665Y17598D01*
X135768Y17480D02*
X135847Y17598D01*
X116949Y17480D02*
X117028Y17598D01*
X98130Y17480D02*
X98209Y17598D01*
X79311Y17480D02*
X79390Y17598D01*
X60492Y17480D02*
X60571Y17598D01*
X41674Y17480D02*
X41752Y17598D01*
X783513Y16811D02*
X783171Y17598D01*
X388395Y16811D02*
X388053Y17598D01*
X369497Y16811D02*
X369155Y17598D01*
X12017Y16811D02*
X11675Y17598D01*
X783171Y17598D02*
X783143Y17677D01*
X388053Y17598D02*
X388025Y17677D01*
X369155Y17598D02*
X369128Y17677D01*
X11675Y17598D02*
X11647Y17677D01*
X764694Y16889D02*
X764352Y17677D01*
X350678Y16889D02*
X350336Y17677D01*
X783143Y17677D02*
X783123Y17716D01*
X388025Y17677D02*
X388004Y17716D01*
X369128Y17677D02*
X369107Y17716D01*
X11647Y17677D02*
X11627Y17716D01*
X407253Y16929D02*
X406911Y17716D01*
X30875Y16929D02*
X30533Y17716D01*
X783123Y17716D02*
X783095Y17755D01*
X388004Y17716D02*
X387977Y17755D01*
X369107Y17716D02*
X369080Y17755D01*
X11627Y17716D02*
X11599Y17755D01*
X764352Y17677D02*
X764325Y17755D01*
X350336Y17677D02*
X350309Y17755D01*
X783095Y17755D02*
X783060Y17795D01*
X764325Y17755D02*
X764304Y17795D01*
X387977Y17755D02*
X387942Y17795D01*
X369080Y17755D02*
X369044Y17795D01*
X350309Y17755D02*
X350288Y17795D01*
X11599Y17755D02*
X11564Y17795D01*
X406911Y17716D02*
X406884Y17795D01*
X30533Y17716D02*
X30506Y17795D01*
X783060Y17795D02*
X783018Y17834D01*
X764304Y17795D02*
X764276Y17834D01*
X406884Y17795D02*
X406863Y17834D01*
X387942Y17795D02*
X387900Y17834D01*
X369044Y17795D02*
X369002Y17834D01*
X350288Y17795D02*
X350261Y17834D01*
X30506Y17795D02*
X30485Y17834D01*
X11564Y17795D02*
X11522Y17834D01*
X745914Y17047D02*
X745572Y17834D01*
X727095Y17047D02*
X726753Y17834D01*
X708277Y17047D02*
X707935Y17834D01*
X689458Y17047D02*
X689116Y17834D01*
X670639Y17047D02*
X670297Y17834D01*
X651820Y17047D02*
X651478Y17834D01*
X633001Y17047D02*
X632659Y17834D01*
X614182Y17047D02*
X613840Y17834D01*
X595363Y17047D02*
X595021Y17834D01*
X576544Y17047D02*
X576202Y17834D01*
X557725Y17047D02*
X557383Y17834D01*
X538906Y17047D02*
X538564Y17834D01*
X520088Y17047D02*
X519746Y17834D01*
X501269Y17047D02*
X500927Y17834D01*
X482450Y17047D02*
X482108Y17834D01*
X463631Y17047D02*
X463289Y17834D01*
X444812Y17047D02*
X444470Y17834D01*
X425993Y17047D02*
X425651Y17834D01*
X313080Y17047D02*
X312738Y17834D01*
X294261Y17047D02*
X293919Y17834D01*
X275442Y17047D02*
X275100Y17834D01*
X256623Y17047D02*
X256281Y17834D01*
X237804Y17047D02*
X237462Y17834D01*
X218985Y17047D02*
X218643Y17834D01*
X200166Y17047D02*
X199824Y17834D01*
X181347Y17047D02*
X181005Y17834D01*
X162528Y17047D02*
X162186Y17834D01*
X143710Y17047D02*
X143368Y17834D01*
X124891Y17047D02*
X124549Y17834D01*
X106072Y17047D02*
X105730Y17834D01*
X87253Y17047D02*
X86911Y17834D01*
X68434Y17047D02*
X68092Y17834D01*
X49615Y17047D02*
X49273Y17834D01*
X764276Y17834D02*
X764241Y17874D01*
X406863Y17834D02*
X406835Y17874D01*
X350261Y17834D02*
X350225Y17874D01*
X30485Y17834D02*
X30457Y17874D01*
X764241Y17874D02*
X764199Y17913D01*
X406835Y17874D02*
X406800Y17913D01*
X350225Y17874D02*
X350184Y17913D01*
X30457Y17874D02*
X30422Y17913D01*
X745572Y17834D02*
X745545Y17913D01*
X726753Y17834D02*
X726726Y17913D01*
X707935Y17834D02*
X707907Y17913D01*
X689116Y17834D02*
X689088Y17913D01*
X670297Y17834D02*
X670269Y17913D01*
X651478Y17834D02*
X651451Y17913D01*
X632659Y17834D02*
X632632Y17913D01*
X613840Y17834D02*
X613813Y17913D01*
X595021Y17834D02*
X594994Y17913D01*
X576202Y17834D02*
X576175Y17913D01*
X557383Y17834D02*
X557356Y17913D01*
X538564Y17834D02*
X538537Y17913D01*
X519746Y17834D02*
X519718Y17913D01*
X500927Y17834D02*
X500899Y17913D01*
X482108Y17834D02*
X482080Y17913D01*
X463289Y17834D02*
X463262Y17913D01*
X444470Y17834D02*
X444443Y17913D01*
X425651Y17834D02*
X425624Y17913D01*
X312738Y17834D02*
X312710Y17913D01*
X293919Y17834D02*
X293891Y17913D01*
X275100Y17834D02*
X275073Y17913D01*
X256281Y17834D02*
X256254Y17913D01*
X237462Y17834D02*
X237435Y17913D01*
X218643Y17834D02*
X218616Y17913D01*
X199824Y17834D02*
X199797Y17913D01*
X181005Y17834D02*
X180978Y17913D01*
X162186Y17834D02*
X162159Y17913D01*
X143368Y17834D02*
X143340Y17913D01*
X124549Y17834D02*
X124521Y17913D01*
X105730Y17834D02*
X105703Y17913D01*
X86911Y17834D02*
X86884Y17913D01*
X68092Y17834D02*
X68065Y17913D01*
X49273Y17834D02*
X49246Y17913D01*
X332074Y17125D02*
X331747Y17913D01*
X323634Y17125D02*
X323960Y17913D01*
X745545Y17913D02*
X745524Y17952D01*
X726726Y17913D02*
X726705Y17952D01*
X707907Y17913D02*
X707886Y17952D01*
X689088Y17913D02*
X689067Y17952D01*
X670269Y17913D02*
X670249Y17952D01*
X651451Y17913D02*
X651430Y17952D01*
X632632Y17913D02*
X632611Y17952D01*
X613813Y17913D02*
X613792Y17952D01*
X594994Y17913D02*
X594973Y17952D01*
X576175Y17913D02*
X576154Y17952D01*
X557356Y17913D02*
X557335Y17952D01*
X538537Y17913D02*
X538516Y17952D01*
X519718Y17913D02*
X519697Y17952D01*
X500899Y17913D02*
X500878Y17952D01*
X482080Y17913D02*
X482060Y17952D01*
X463262Y17913D02*
X463241Y17952D01*
X444443Y17913D02*
X444422Y17952D01*
X425624Y17913D02*
X425603Y17952D01*
X406800Y17913D02*
X406758Y17952D01*
X331747Y17913D02*
X331727Y17952D01*
X323960Y17913D02*
X323981Y17952D01*
X312710Y17913D02*
X312690Y17952D01*
X293891Y17913D02*
X293871Y17952D01*
X275073Y17913D02*
X275052Y17952D01*
X256254Y17913D02*
X256233Y17952D01*
X237435Y17913D02*
X237414Y17952D01*
X218616Y17913D02*
X218595Y17952D01*
X199797Y17913D02*
X199776Y17952D01*
X180978Y17913D02*
X180957Y17952D01*
X162159Y17913D02*
X162138Y17952D01*
X143340Y17913D02*
X143319Y17952D01*
X124521Y17913D02*
X124501Y17952D01*
X105703Y17913D02*
X105682Y17952D01*
X86884Y17913D02*
X86863Y17952D01*
X68065Y17913D02*
X68044Y17952D01*
X49246Y17913D02*
X49225Y17952D01*
X30422Y17913D02*
X30380Y17952D01*
X745524Y17952D02*
X745497Y17992D01*
X726705Y17952D02*
X726678Y17992D01*
X707886Y17952D02*
X707859Y17992D01*
X689067Y17952D02*
X689040Y17992D01*
X670249Y17952D02*
X670221Y17992D01*
X651430Y17952D02*
X651402Y17992D01*
X632611Y17952D02*
X632583Y17992D01*
X613792Y17952D02*
X613765Y17992D01*
X594973Y17952D02*
X594946Y17992D01*
X576154Y17952D02*
X576127Y17992D01*
X557335Y17952D02*
X557308Y17992D01*
X538516Y17952D02*
X538489Y17992D01*
X519697Y17952D02*
X519670Y17992D01*
X500878Y17952D02*
X500851Y17992D01*
X482060Y17952D02*
X482032Y17992D01*
X463241Y17952D02*
X463213Y17992D01*
X444422Y17952D02*
X444395Y17992D01*
X425603Y17952D02*
X425576Y17992D01*
X312690Y17952D02*
X312662Y17992D01*
X293871Y17952D02*
X293843Y17992D01*
X275052Y17952D02*
X275024Y17992D01*
X256233Y17952D02*
X256206Y17992D01*
X237414Y17952D02*
X237387Y17992D01*
X218595Y17952D02*
X218568Y17992D01*
X199776Y17952D02*
X199749Y17992D01*
X180957Y17952D02*
X180930Y17992D01*
X162138Y17952D02*
X162111Y17992D01*
X143319Y17952D02*
X143292Y17992D01*
X124501Y17952D02*
X124473Y17992D01*
X105682Y17952D02*
X105654Y17992D01*
X86863Y17952D02*
X86835Y17992D01*
X68044Y17952D02*
X68017Y17992D01*
X49225Y17952D02*
X49198Y17992D01*
X745497Y17992D02*
X745461Y18031D01*
X726678Y17992D02*
X726642Y18031D01*
X707859Y17992D02*
X707824Y18031D01*
X689040Y17992D02*
X689005Y18031D01*
X670221Y17992D02*
X670186Y18031D01*
X651402Y17992D02*
X651367Y18031D01*
X632583Y17992D02*
X632548Y18031D01*
X613765Y17992D02*
X613729Y18031D01*
X594946Y17992D02*
X594910Y18031D01*
X576127Y17992D02*
X576091Y18031D01*
X557308Y17992D02*
X557272Y18031D01*
X538489Y17992D02*
X538454Y18031D01*
X519670Y17992D02*
X519635Y18031D01*
X500851Y17992D02*
X500816Y18031D01*
X482032Y17992D02*
X481997Y18031D01*
X463213Y17992D02*
X463178Y18031D01*
X444395Y17992D02*
X444359Y18031D01*
X425576Y17992D02*
X425540Y18031D01*
X312662Y17992D02*
X312627Y18031D01*
X293843Y17992D02*
X293808Y18031D01*
X275024Y17992D02*
X274989Y18031D01*
X256206Y17992D02*
X256170Y18031D01*
X237387Y17992D02*
X237351Y18031D01*
X218568Y17992D02*
X218532Y18031D01*
X199749Y17992D02*
X199713Y18031D01*
X180930Y17992D02*
X180894Y18031D01*
X162111Y17992D02*
X162076Y18031D01*
X143292Y17992D02*
X143257Y18031D01*
X124473Y17992D02*
X124438Y18031D01*
X105654Y17992D02*
X105619Y18031D01*
X86835Y17992D02*
X86800Y18031D01*
X68017Y17992D02*
X67981Y18031D01*
X49198Y17992D02*
X49162Y18031D01*
X745461Y18031D02*
X745420Y18070D01*
X726642Y18031D02*
X726601Y18070D01*
X707824Y18031D02*
X707782Y18070D01*
X689005Y18031D02*
X688963Y18070D01*
X670186Y18031D02*
X670144Y18070D01*
X651367Y18031D02*
X651325Y18070D01*
X632548Y18031D02*
X632506Y18070D01*
X613729Y18031D02*
X613688Y18070D01*
X594910Y18031D02*
X594869Y18070D01*
X576091Y18031D02*
X576050Y18070D01*
X557272Y18031D02*
X557231Y18070D01*
X538454Y18031D02*
X538412Y18070D01*
X519635Y18031D02*
X519593Y18070D01*
X500816Y18031D02*
X500774Y18070D01*
X481997Y18031D02*
X481955Y18070D01*
X463178Y18031D02*
X463136Y18070D01*
X444359Y18031D02*
X444317Y18070D01*
X425540Y18031D02*
X425499Y18070D01*
X312627Y18031D02*
X312585Y18070D01*
X293808Y18031D02*
X293766Y18070D01*
X274989Y18031D02*
X274947Y18070D01*
X256170Y18031D02*
X256128Y18070D01*
X237351Y18031D02*
X237310Y18070D01*
X218532Y18031D02*
X218491Y18070D01*
X199713Y18031D02*
X199672Y18070D01*
X180894Y18031D02*
X180853Y18070D01*
X162076Y18031D02*
X162034Y18070D01*
X143257Y18031D02*
X143215Y18070D01*
X124438Y18031D02*
X124396Y18070D01*
X105619Y18031D02*
X105577Y18070D01*
X86800Y18031D02*
X86758Y18070D01*
X67981Y18031D02*
X67940Y18070D01*
X49162Y18031D02*
X49121Y18070D01*
X331727Y17952D02*
X331641Y18070D01*
X323981Y17952D02*
X324066Y18070D01*
X794547Y17362D02*
X794978Y18070D01*
X775650Y17362D02*
X776081Y18070D01*
X380532Y17362D02*
X380963Y18070D01*
X361634Y17362D02*
X362065Y18070D01*
X794978Y18070D02*
X794994Y18110D01*
X776081Y18070D02*
X776096Y18110D01*
X380963Y18070D02*
X380978Y18110D01*
X362065Y18070D02*
X362080Y18110D01*
X11234Y18188D02*
X23443Y18188D01*
X30188Y18188D02*
X42111Y18188D01*
X49025Y18188D02*
X60930Y18188D01*
X67843Y18188D02*
X79749Y18188D01*
X86662Y18188D02*
X98568Y18188D01*
X105481Y18188D02*
X117387Y18188D01*
X124300Y18188D02*
X136206Y18188D01*
X143119Y18188D02*
X155025Y18188D01*
X161938Y18188D02*
X173843Y18188D01*
X180757Y18188D02*
X192662Y18188D01*
X199576Y18188D02*
X211481Y18188D01*
X218395Y18188D02*
X230300Y18188D01*
X237213Y18188D02*
X249119Y18188D01*
X256032Y18188D02*
X267938Y18188D01*
X274851Y18188D02*
X286757Y18188D01*
X293670Y18188D02*
X305576Y18188D01*
X312489Y18188D02*
X324157Y18188D01*
X331551Y18188D02*
X343262Y18188D01*
X349959Y18188D02*
X362129Y18188D01*
X368714Y18188D02*
X381026Y18188D01*
X387612Y18188D02*
X399821Y18188D01*
X406566Y18188D02*
X418489Y18188D01*
X425402Y18188D02*
X437308Y18188D01*
X444221Y18188D02*
X456127Y18188D01*
X463040Y18188D02*
X474946Y18188D01*
X481859Y18188D02*
X493765Y18188D01*
X500678Y18188D02*
X512584Y18188D01*
X519497Y18188D02*
X531403Y18188D01*
X538316Y18188D02*
X550221Y18188D01*
X557135Y18188D02*
X569040Y18188D01*
X575954Y18188D02*
X587859Y18188D01*
X594773Y18188D02*
X606678Y18188D01*
X613591Y18188D02*
X625497Y18188D01*
X632410Y18188D02*
X644316Y18188D01*
X651229Y18188D02*
X663135Y18188D01*
X670048Y18188D02*
X681954Y18188D01*
X688867Y18188D02*
X700773Y18188D01*
X707686Y18188D02*
X719592Y18188D01*
X726505Y18188D02*
X738410Y18188D01*
X745324Y18188D02*
X757277Y18188D01*
X763975Y18188D02*
X776144Y18188D01*
X782730Y18188D02*
X795042Y18188D01*
X794994Y18110D02*
X795015Y18149D01*
X776096Y18110D02*
X776117Y18149D01*
X380978Y18110D02*
X380999Y18149D01*
X362080Y18110D02*
X362101Y18149D01*
X756831Y17440D02*
X757262Y18149D01*
X342815Y17440D02*
X343246Y18149D01*
X795015Y18149D02*
X795042Y18188D01*
X776117Y18149D02*
X776144Y18188D01*
X757262Y18149D02*
X757277Y18188D01*
X380999Y18149D02*
X381026Y18188D01*
X362101Y18149D02*
X362129Y18188D01*
X343246Y18149D02*
X343262Y18188D01*
X399390Y17480D02*
X399821Y18188D01*
X23012Y17480D02*
X23443Y18188D01*
X795042Y18188D02*
X795078Y18228D01*
X776144Y18188D02*
X776180Y18228D01*
X757277Y18188D02*
X757298Y18228D01*
X399821Y18188D02*
X399836Y18228D01*
X381026Y18188D02*
X381062Y18228D01*
X362129Y18188D02*
X362164Y18228D01*
X343262Y18188D02*
X343282Y18228D01*
X23443Y18188D02*
X23458Y18228D01*
X795078Y18228D02*
X795125Y18267D01*
X776180Y18228D02*
X776227Y18267D01*
X757298Y18228D02*
X757325Y18267D01*
X399836Y18228D02*
X399857Y18267D01*
X381062Y18228D02*
X381109Y18267D01*
X362164Y18228D02*
X362211Y18267D01*
X343282Y18228D02*
X343310Y18267D01*
X23458Y18228D02*
X23479Y18267D01*
X795125Y18267D02*
X795182Y18307D01*
X776227Y18267D02*
X776284Y18307D01*
X757325Y18267D02*
X757361Y18307D01*
X399857Y18267D02*
X399885Y18307D01*
X381109Y18267D02*
X381166Y18307D01*
X362211Y18267D02*
X362269Y18307D01*
X343310Y18267D02*
X343345Y18307D01*
X23479Y18267D02*
X23507Y18307D01*
X738051Y17598D02*
X738482Y18307D01*
X719232Y17598D02*
X719663Y18307D01*
X700413Y17598D02*
X700844Y18307D01*
X681595Y17598D02*
X682026Y18307D01*
X662776Y17598D02*
X663207Y18307D01*
X643957Y17598D02*
X644388Y18307D01*
X625138Y17598D02*
X625569Y18307D01*
X606319Y17598D02*
X606750Y18307D01*
X587500Y17598D02*
X587931Y18307D01*
X568681Y17598D02*
X569112Y18307D01*
X549862Y17598D02*
X550293Y18307D01*
X531043Y17598D02*
X531474Y18307D01*
X512225Y17598D02*
X512655Y18307D01*
X493406Y17598D02*
X493837Y18307D01*
X474587Y17598D02*
X475018Y18307D01*
X455768Y17598D02*
X456199Y18307D01*
X436949Y17598D02*
X437380Y18307D01*
X418130Y17598D02*
X418561Y18307D01*
X305217Y17598D02*
X305648Y18307D01*
X286398Y17598D02*
X286829Y18307D01*
X267579Y17598D02*
X268010Y18307D01*
X248760Y17598D02*
X249191Y18307D01*
X229941Y17598D02*
X230372Y18307D01*
X211122Y17598D02*
X211553Y18307D01*
X192303Y17598D02*
X192734Y18307D01*
X173484Y17598D02*
X173915Y18307D01*
X154665Y17598D02*
X155096Y18307D01*
X135847Y17598D02*
X136278Y18307D01*
X117028Y17598D02*
X117459Y18307D01*
X98209Y17598D02*
X98640Y18307D01*
X79390Y17598D02*
X79821Y18307D01*
X60571Y17598D02*
X61002Y18307D01*
X41752Y17598D02*
X42183Y18307D01*
X757361Y18307D02*
X757408Y18346D01*
X738482Y18307D02*
X738498Y18346D01*
X719663Y18307D02*
X719679Y18346D01*
X700844Y18307D02*
X700860Y18346D01*
X682026Y18307D02*
X682041Y18346D01*
X663207Y18307D02*
X663222Y18346D01*
X644388Y18307D02*
X644403Y18346D01*
X625569Y18307D02*
X625584Y18346D01*
X606750Y18307D02*
X606766Y18346D01*
X587931Y18307D02*
X587947Y18346D01*
X569112Y18307D02*
X569128Y18346D01*
X550293Y18307D02*
X550309Y18346D01*
X531474Y18307D02*
X531490Y18346D01*
X512655Y18307D02*
X512671Y18346D01*
X493837Y18307D02*
X493852Y18346D01*
X475018Y18307D02*
X475033Y18346D01*
X456199Y18307D02*
X456214Y18346D01*
X437380Y18307D02*
X437395Y18346D01*
X418561Y18307D02*
X418577Y18346D01*
X399885Y18307D02*
X399920Y18346D01*
X343345Y18307D02*
X343392Y18346D01*
X305648Y18307D02*
X305663Y18346D01*
X286829Y18307D02*
X286844Y18346D01*
X268010Y18307D02*
X268025Y18346D01*
X249191Y18307D02*
X249206Y18346D01*
X230372Y18307D02*
X230388Y18346D01*
X211553Y18307D02*
X211569Y18346D01*
X192734Y18307D02*
X192750Y18346D01*
X173915Y18307D02*
X173931Y18346D01*
X155096Y18307D02*
X155112Y18346D01*
X136278Y18307D02*
X136293Y18346D01*
X117459Y18307D02*
X117474Y18346D01*
X98640Y18307D02*
X98655Y18346D01*
X79821Y18307D02*
X79836Y18346D01*
X61002Y18307D02*
X61017Y18346D01*
X42183Y18307D02*
X42199Y18346D01*
X23507Y18307D02*
X23542Y18346D01*
X757408Y18346D02*
X757465Y18385D01*
X738498Y18346D02*
X738519Y18385D01*
X719679Y18346D02*
X719700Y18385D01*
X700860Y18346D02*
X700881Y18385D01*
X682041Y18346D02*
X682062Y18385D01*
X663222Y18346D02*
X663243Y18385D01*
X644403Y18346D02*
X644424Y18385D01*
X625584Y18346D02*
X625605Y18385D01*
X606766Y18346D02*
X606786Y18385D01*
X587947Y18346D02*
X587967Y18385D01*
X569128Y18346D02*
X569149Y18385D01*
X550309Y18346D02*
X550330Y18385D01*
X531490Y18346D02*
X531511Y18385D01*
X512671Y18346D02*
X512692Y18385D01*
X493852Y18346D02*
X493873Y18385D01*
X475033Y18346D02*
X475054Y18385D01*
X456214Y18346D02*
X456235Y18385D01*
X437395Y18346D02*
X437416Y18385D01*
X418577Y18346D02*
X418597Y18385D01*
X399920Y18346D02*
X399967Y18385D01*
X343392Y18346D02*
X343450Y18385D01*
X305663Y18346D02*
X305684Y18385D01*
X286844Y18346D02*
X286865Y18385D01*
X268025Y18346D02*
X268046Y18385D01*
X249206Y18346D02*
X249227Y18385D01*
X230388Y18346D02*
X230408Y18385D01*
X211569Y18346D02*
X211590Y18385D01*
X192750Y18346D02*
X192771Y18385D01*
X173931Y18346D02*
X173952Y18385D01*
X155112Y18346D02*
X155133Y18385D01*
X136293Y18346D02*
X136314Y18385D01*
X117474Y18346D02*
X117495Y18385D01*
X98655Y18346D02*
X98676Y18385D01*
X79836Y18346D02*
X79857Y18385D01*
X61017Y18346D02*
X61038Y18385D01*
X42199Y18346D02*
X42219Y18385D01*
X23542Y18346D02*
X23589Y18385D01*
X738519Y18385D02*
X738546Y18425D01*
X719700Y18385D02*
X719727Y18425D01*
X700881Y18385D02*
X700908Y18425D01*
X682062Y18385D02*
X682089Y18425D01*
X663243Y18385D02*
X663270Y18425D01*
X644424Y18385D02*
X644451Y18425D01*
X625605Y18385D02*
X625633Y18425D01*
X606786Y18385D02*
X606814Y18425D01*
X587967Y18385D02*
X587995Y18425D01*
X569149Y18385D02*
X569176Y18425D01*
X550330Y18385D02*
X550357Y18425D01*
X531511Y18385D02*
X531538Y18425D01*
X512692Y18385D02*
X512719Y18425D01*
X493873Y18385D02*
X493900Y18425D01*
X475054Y18385D02*
X475081Y18425D01*
X456235Y18385D02*
X456263Y18425D01*
X437416Y18385D02*
X437444Y18425D01*
X418597Y18385D02*
X418625Y18425D01*
X399967Y18385D02*
X400025Y18425D01*
X305684Y18385D02*
X305711Y18425D01*
X286865Y18385D02*
X286892Y18425D01*
X268046Y18385D02*
X268074Y18425D01*
X249227Y18385D02*
X249255Y18425D01*
X230408Y18385D02*
X230436Y18425D01*
X211590Y18385D02*
X211617Y18425D01*
X192771Y18385D02*
X192798Y18425D01*
X173952Y18385D02*
X173979Y18425D01*
X155133Y18385D02*
X155160Y18425D01*
X136314Y18385D02*
X136341Y18425D01*
X117495Y18385D02*
X117522Y18425D01*
X98676Y18385D02*
X98703Y18425D01*
X79857Y18385D02*
X79885Y18425D01*
X61038Y18385D02*
X61066Y18425D01*
X42219Y18385D02*
X42247Y18425D01*
X23589Y18385D02*
X23647Y18425D01*
X738546Y18425D02*
X738581Y18464D01*
X719727Y18425D02*
X719763Y18464D01*
X700908Y18425D02*
X700944Y18464D01*
X682089Y18425D02*
X682125Y18464D01*
X663270Y18425D02*
X663306Y18464D01*
X644451Y18425D02*
X644487Y18464D01*
X625633Y18425D02*
X625668Y18464D01*
X606814Y18425D02*
X606849Y18464D01*
X587995Y18425D02*
X588030Y18464D01*
X569176Y18425D02*
X569211Y18464D01*
X550357Y18425D02*
X550392Y18464D01*
X531538Y18425D02*
X531574Y18464D01*
X512719Y18425D02*
X512755Y18464D01*
X493900Y18425D02*
X493936Y18464D01*
X475081Y18425D02*
X475117Y18464D01*
X456263Y18425D02*
X456298Y18464D01*
X437444Y18425D02*
X437479Y18464D01*
X418625Y18425D02*
X418660Y18464D01*
X305711Y18425D02*
X305747Y18464D01*
X286892Y18425D02*
X286928Y18464D01*
X268074Y18425D02*
X268109Y18464D01*
X249255Y18425D02*
X249290Y18464D01*
X230436Y18425D02*
X230471Y18464D01*
X211617Y18425D02*
X211652Y18464D01*
X192798Y18425D02*
X192833Y18464D01*
X173979Y18425D02*
X174015Y18464D01*
X155160Y18425D02*
X155196Y18464D01*
X136341Y18425D02*
X136377Y18464D01*
X117522Y18425D02*
X117558Y18464D01*
X98703Y18425D02*
X98739Y18464D01*
X79885Y18425D02*
X79920Y18464D01*
X61066Y18425D02*
X61101Y18464D01*
X42247Y18425D02*
X42282Y18464D01*
X738581Y18464D02*
X738629Y18503D01*
X719763Y18464D02*
X719810Y18503D01*
X700944Y18464D02*
X700991Y18503D01*
X682125Y18464D02*
X682172Y18503D01*
X663306Y18464D02*
X663353Y18503D01*
X644487Y18464D02*
X644534Y18503D01*
X625668Y18464D02*
X625715Y18503D01*
X606849Y18464D02*
X606896Y18503D01*
X588030Y18464D02*
X588077Y18503D01*
X569211Y18464D02*
X569259Y18503D01*
X550392Y18464D02*
X550440Y18503D01*
X531574Y18464D02*
X531621Y18503D01*
X512755Y18464D02*
X512802Y18503D01*
X493936Y18464D02*
X493983Y18503D01*
X475117Y18464D02*
X475164Y18503D01*
X456298Y18464D02*
X456345Y18503D01*
X437479Y18464D02*
X437526Y18503D01*
X418660Y18464D02*
X418707Y18503D01*
X305747Y18464D02*
X305794Y18503D01*
X286928Y18464D02*
X286975Y18503D01*
X268109Y18464D02*
X268156Y18503D01*
X249290Y18464D02*
X249337Y18503D01*
X230471Y18464D02*
X230518Y18503D01*
X211652Y18464D02*
X211700Y18503D01*
X192833Y18464D02*
X192881Y18503D01*
X174015Y18464D02*
X174062Y18503D01*
X155196Y18464D02*
X155243Y18503D01*
X136377Y18464D02*
X136424Y18503D01*
X117558Y18464D02*
X117605Y18503D01*
X98739Y18464D02*
X98786Y18503D01*
X79920Y18464D02*
X79967Y18503D01*
X61101Y18464D02*
X61148Y18503D01*
X42282Y18464D02*
X42329Y18503D01*
X738629Y18503D02*
X738686Y18543D01*
X719810Y18503D02*
X719867Y18543D01*
X700991Y18503D02*
X701048Y18543D01*
X682172Y18503D02*
X682229Y18543D01*
X663353Y18503D02*
X663410Y18543D01*
X644534Y18503D02*
X644591Y18543D01*
X625715Y18503D02*
X625773Y18543D01*
X606896Y18503D02*
X606954Y18543D01*
X588077Y18503D02*
X588135Y18543D01*
X569259Y18503D02*
X569316Y18543D01*
X550440Y18503D02*
X550497Y18543D01*
X531621Y18503D02*
X531678Y18543D01*
X512802Y18503D02*
X512859Y18543D01*
X493983Y18503D02*
X494040Y18543D01*
X475164Y18503D02*
X475221Y18543D01*
X456345Y18503D02*
X456402Y18543D01*
X437526Y18503D02*
X437584Y18543D01*
X418707Y18503D02*
X418765Y18543D01*
X305794Y18503D02*
X305851Y18543D01*
X286975Y18503D02*
X287032Y18543D01*
X268156Y18503D02*
X268213Y18543D01*
X249337Y18503D02*
X249395Y18543D01*
X230518Y18503D02*
X230576Y18543D01*
X211700Y18503D02*
X211757Y18543D01*
X192881Y18503D02*
X192938Y18543D01*
X174062Y18503D02*
X174119Y18543D01*
X155243Y18503D02*
X155300Y18543D01*
X136424Y18503D02*
X136481Y18543D01*
X117605Y18503D02*
X117662Y18543D01*
X98786Y18503D02*
X98843Y18543D01*
X79967Y18503D02*
X80025Y18543D01*
X61148Y18503D02*
X61206Y18543D01*
X42329Y18503D02*
X42387Y18543D01*
X783018Y17834D02*
X782406Y18582D01*
X387900Y17834D02*
X387288Y18582D01*
X369002Y17834D02*
X368390Y18582D01*
X11522Y17834D02*
X10910Y18582D01*
X782406Y18582D02*
X782310Y18661D01*
X387288Y18582D02*
X387192Y18661D01*
X368390Y18582D02*
X368295Y18661D01*
X10910Y18582D02*
X10814Y18661D01*
X764199Y17913D02*
X763587Y18661D01*
X350184Y17913D02*
X349572Y18661D01*
X10703Y18740D02*
X23984Y18740D01*
X29721Y18740D02*
X42597Y18740D01*
X48576Y18740D02*
X61416Y18740D01*
X67395Y18740D02*
X80235Y18740D01*
X86214Y18740D02*
X99054Y18740D01*
X105033Y18740D02*
X117873Y18740D01*
X123852Y18740D02*
X136692Y18740D01*
X142671Y18740D02*
X155511Y18740D01*
X161489Y18740D02*
X174330Y18740D01*
X180308Y18740D02*
X193149Y18740D01*
X199127Y18740D02*
X211968Y18740D01*
X217946Y18740D02*
X230786Y18740D01*
X236765Y18740D02*
X249605Y18740D01*
X255584Y18740D02*
X268424Y18740D01*
X274403Y18740D02*
X287243Y18740D01*
X293222Y18740D02*
X306062Y18740D01*
X312041Y18740D02*
X324580Y18740D01*
X331128Y18740D02*
X343829Y18740D01*
X349476Y18740D02*
X362732Y18740D01*
X368183Y18740D02*
X381630Y18740D01*
X387081Y18740D02*
X400362Y18740D01*
X406099Y18740D02*
X418975Y18740D01*
X424954Y18740D02*
X437794Y18740D01*
X443773Y18740D02*
X456613Y18740D01*
X462592Y18740D02*
X475432Y18740D01*
X481411Y18740D02*
X494251Y18740D01*
X500230Y18740D02*
X513070Y18740D01*
X519049Y18740D02*
X531889Y18740D01*
X537867Y18740D02*
X550708Y18740D01*
X556686Y18740D02*
X569527Y18740D01*
X575505Y18740D02*
X588346Y18740D01*
X594324Y18740D02*
X607164Y18740D01*
X613143Y18740D02*
X625983Y18740D01*
X631962Y18740D02*
X644802Y18740D01*
X650781Y18740D02*
X663621Y18740D01*
X669600Y18740D02*
X682440Y18740D01*
X688419Y18740D02*
X701259Y18740D01*
X707238Y18740D02*
X720078Y18740D01*
X726056Y18740D02*
X738897Y18740D01*
X744875Y18740D02*
X757845Y18740D01*
X763491Y18740D02*
X776748Y18740D01*
X782199Y18740D02*
X795646Y18740D01*
X406758Y17952D02*
X406146Y18700D01*
X30380Y17952D02*
X29768Y18700D01*
X763587Y18661D02*
X763491Y18740D01*
X349572Y18661D02*
X349476Y18740D01*
X406146Y18700D02*
X406050Y18779D01*
X29768Y18700D02*
X29673Y18779D01*
X331641Y18070D02*
X331100Y18779D01*
X324066Y18070D02*
X324608Y18779D01*
X331100Y18779D02*
X331079Y18818D01*
X324608Y18779D02*
X324628Y18818D01*
X745420Y18070D02*
X744808Y18818D01*
X726601Y18070D02*
X725989Y18818D01*
X707782Y18070D02*
X707170Y18818D01*
X688963Y18070D02*
X688351Y18818D01*
X670144Y18070D02*
X669532Y18818D01*
X651325Y18070D02*
X650713Y18818D01*
X632506Y18070D02*
X631894Y18818D01*
X613688Y18070D02*
X613076Y18818D01*
X594869Y18070D02*
X594257Y18818D01*
X576050Y18070D02*
X575438Y18818D01*
X557231Y18070D02*
X556619Y18818D01*
X538412Y18070D02*
X537800Y18818D01*
X519593Y18070D02*
X518981Y18818D01*
X500774Y18070D02*
X500162Y18818D01*
X481955Y18070D02*
X481343Y18818D01*
X463136Y18070D02*
X462524Y18818D01*
X444317Y18070D02*
X443705Y18818D01*
X425499Y18070D02*
X424887Y18818D01*
X312585Y18070D02*
X311973Y18818D01*
X293766Y18070D02*
X293154Y18818D01*
X274947Y18070D02*
X274335Y18818D01*
X256128Y18070D02*
X255516Y18818D01*
X237310Y18070D02*
X236698Y18818D01*
X218491Y18070D02*
X217879Y18818D01*
X199672Y18070D02*
X199060Y18818D01*
X180853Y18070D02*
X180241Y18818D01*
X162034Y18070D02*
X161422Y18818D01*
X143215Y18070D02*
X142603Y18818D01*
X124396Y18070D02*
X123784Y18818D01*
X105577Y18070D02*
X104965Y18818D01*
X86758Y18070D02*
X86146Y18818D01*
X67940Y18070D02*
X67327Y18818D01*
X49121Y18070D02*
X48509Y18818D01*
X331079Y18818D02*
X331052Y18858D01*
X324628Y18818D02*
X324656Y18858D01*
X795182Y18307D02*
X795772Y18858D01*
X776284Y18307D02*
X776875Y18858D01*
X381166Y18307D02*
X381756Y18858D01*
X362269Y18307D02*
X362859Y18858D01*
X331052Y18858D02*
X331016Y18897D01*
X324656Y18858D02*
X324691Y18897D01*
X744808Y18818D02*
X744712Y18897D01*
X725989Y18818D02*
X725893Y18897D01*
X707170Y18818D02*
X707074Y18897D01*
X688351Y18818D02*
X688255Y18897D01*
X669532Y18818D02*
X669436Y18897D01*
X650713Y18818D02*
X650617Y18897D01*
X631894Y18818D02*
X631799Y18897D01*
X613076Y18818D02*
X612980Y18897D01*
X594257Y18818D02*
X594161Y18897D01*
X575438Y18818D02*
X575342Y18897D01*
X556619Y18818D02*
X556523Y18897D01*
X537800Y18818D02*
X537704Y18897D01*
X518981Y18818D02*
X518885Y18897D01*
X500162Y18818D02*
X500066Y18897D01*
X481343Y18818D02*
X481247Y18897D01*
X462524Y18818D02*
X462428Y18897D01*
X443705Y18818D02*
X443610Y18897D01*
X424887Y18818D02*
X424791Y18897D01*
X311973Y18818D02*
X311877Y18897D01*
X293154Y18818D02*
X293058Y18897D01*
X274335Y18818D02*
X274239Y18897D01*
X255516Y18818D02*
X255421Y18897D01*
X236698Y18818D02*
X236602Y18897D01*
X217879Y18818D02*
X217783Y18897D01*
X199060Y18818D02*
X198964Y18897D01*
X180241Y18818D02*
X180145Y18897D01*
X161422Y18818D02*
X161326Y18897D01*
X142603Y18818D02*
X142507Y18897D01*
X123784Y18818D02*
X123688Y18897D01*
X104965Y18818D02*
X104869Y18897D01*
X86146Y18818D02*
X86050Y18897D01*
X67327Y18818D02*
X67232Y18897D01*
X48509Y18818D02*
X48413Y18897D01*
X331016Y18897D02*
X330969Y18937D01*
X324691Y18897D02*
X324738Y18937D01*
X795772Y18858D02*
X795845Y18937D01*
X776875Y18858D02*
X776948Y18937D01*
X381756Y18858D02*
X381830Y18937D01*
X362859Y18858D02*
X362932Y18937D01*
X757465Y18385D02*
X758056Y18937D01*
X343450Y18385D02*
X344040Y18937D01*
X795845Y18937D02*
X795893Y18976D01*
X776948Y18937D02*
X776995Y18976D01*
X381830Y18937D02*
X381877Y18976D01*
X362932Y18937D02*
X362979Y18976D01*
X330969Y18937D02*
X330901Y18976D01*
X324738Y18937D02*
X324806Y18976D01*
X400025Y18425D02*
X400615Y18976D01*
X23647Y18425D02*
X24237Y18976D01*
X795893Y18976D02*
X795960Y19015D01*
X776995Y18976D02*
X777063Y19015D01*
X381877Y18976D02*
X381945Y19015D01*
X362979Y18976D02*
X363047Y19015D01*
X330901Y18976D02*
X330841Y19015D01*
X324806Y18976D02*
X324866Y19015D01*
X758056Y18937D02*
X758129Y19015D01*
X344040Y18937D02*
X344113Y19015D01*
X795960Y19015D02*
X796056Y19055D01*
X777063Y19015D02*
X777159Y19055D01*
X758129Y19015D02*
X758176Y19055D01*
X381945Y19015D02*
X382041Y19055D01*
X363047Y19015D02*
X363143Y19055D01*
X344113Y19015D02*
X344160Y19055D01*
X400615Y18976D02*
X400688Y19055D01*
X24237Y18976D02*
X24310Y19055D01*
X5807Y19133D02*
X5815Y19133D01*
X758176Y19055D02*
X758244Y19094D01*
X400688Y19055D02*
X400735Y19094D01*
X344160Y19055D02*
X344228Y19094D01*
X24310Y19055D02*
X24357Y19094D01*
X738686Y18543D02*
X739276Y19094D01*
X719867Y18543D02*
X720457Y19094D01*
X701048Y18543D02*
X701638Y19094D01*
X682229Y18543D02*
X682819Y19094D01*
X663410Y18543D02*
X664001Y19094D01*
X644591Y18543D02*
X645182Y19094D01*
X625773Y18543D02*
X626363Y19094D01*
X606954Y18543D02*
X607544Y19094D01*
X588135Y18543D02*
X588725Y19094D01*
X569316Y18543D02*
X569906Y19094D01*
X550497Y18543D02*
X551087Y19094D01*
X531678Y18543D02*
X532268Y19094D01*
X512859Y18543D02*
X513449Y19094D01*
X494040Y18543D02*
X494630Y19094D01*
X475221Y18543D02*
X475812Y19094D01*
X456402Y18543D02*
X456993Y19094D01*
X437584Y18543D02*
X438174Y19094D01*
X418765Y18543D02*
X419355Y19094D01*
X305851Y18543D02*
X306441Y19094D01*
X287032Y18543D02*
X287623Y19094D01*
X268213Y18543D02*
X268804Y19094D01*
X249395Y18543D02*
X249985Y19094D01*
X230576Y18543D02*
X231166Y19094D01*
X211757Y18543D02*
X212347Y19094D01*
X192938Y18543D02*
X193528Y19094D01*
X174119Y18543D02*
X174709Y19094D01*
X155300Y18543D02*
X155890Y19094D01*
X136481Y18543D02*
X137071Y19094D01*
X117662Y18543D02*
X118252Y19094D01*
X98843Y18543D02*
X99434Y19094D01*
X80025Y18543D02*
X80615Y19094D01*
X61206Y18543D02*
X61796Y19094D01*
X42387Y18543D02*
X42977Y19094D01*
X800483Y19173D02*
X800492Y19173D01*
X758244Y19094D02*
X758340Y19133D01*
X400735Y19094D02*
X400803Y19133D01*
X344228Y19094D02*
X344324Y19133D01*
X24357Y19094D02*
X24425Y19133D01*
X400803Y19133D02*
X400899Y19173D01*
X24425Y19133D02*
X24521Y19173D01*
X739276Y19094D02*
X739349Y19173D01*
X720457Y19094D02*
X720530Y19173D01*
X701638Y19094D02*
X701712Y19173D01*
X682819Y19094D02*
X682893Y19173D01*
X664001Y19094D02*
X664074Y19173D01*
X645182Y19094D02*
X645255Y19173D01*
X626363Y19094D02*
X626436Y19173D01*
X607544Y19094D02*
X607617Y19173D01*
X588725Y19094D02*
X588798Y19173D01*
X569906Y19094D02*
X569979Y19173D01*
X551087Y19094D02*
X551160Y19173D01*
X532268Y19094D02*
X532342Y19173D01*
X513449Y19094D02*
X513523Y19173D01*
X494630Y19094D02*
X494704Y19173D01*
X475812Y19094D02*
X475885Y19173D01*
X456993Y19094D02*
X457066Y19173D01*
X438174Y19094D02*
X438247Y19173D01*
X419355Y19094D02*
X419428Y19173D01*
X306441Y19094D02*
X306515Y19173D01*
X287623Y19094D02*
X287696Y19173D01*
X268804Y19094D02*
X268877Y19173D01*
X249985Y19094D02*
X250058Y19173D01*
X231166Y19094D02*
X231239Y19173D01*
X212347Y19094D02*
X212420Y19173D01*
X193528Y19094D02*
X193601Y19173D01*
X174709Y19094D02*
X174782Y19173D01*
X155890Y19094D02*
X155964Y19173D01*
X137071Y19094D02*
X137145Y19173D01*
X118252Y19094D02*
X118326Y19173D01*
X99434Y19094D02*
X99507Y19173D01*
X80615Y19094D02*
X80688Y19173D01*
X61796Y19094D02*
X61869Y19173D01*
X42977Y19094D02*
X43050Y19173D01*
X782310Y18661D02*
X781585Y19173D01*
X387192Y18661D02*
X386467Y19173D01*
X368295Y18661D02*
X367569Y19173D01*
X10814Y18661D02*
X10089Y19173D01*
X739349Y19173D02*
X739397Y19212D01*
X720530Y19173D02*
X720578Y19212D01*
X701712Y19173D02*
X701759Y19212D01*
X682893Y19173D02*
X682940Y19212D01*
X664074Y19173D02*
X664121Y19212D01*
X645255Y19173D02*
X645302Y19212D01*
X626436Y19173D02*
X626483Y19212D01*
X607617Y19173D02*
X607664Y19212D01*
X588798Y19173D02*
X588845Y19212D01*
X569979Y19173D02*
X570026Y19212D01*
X551160Y19173D02*
X551208Y19212D01*
X532342Y19173D02*
X532389Y19212D01*
X513523Y19173D02*
X513570Y19212D01*
X494704Y19173D02*
X494751Y19212D01*
X475885Y19173D02*
X475932Y19212D01*
X457066Y19173D02*
X457113Y19212D01*
X438247Y19173D02*
X438294Y19212D01*
X419428Y19173D02*
X419475Y19212D01*
X306515Y19173D02*
X306562Y19212D01*
X287696Y19173D02*
X287743Y19212D01*
X268877Y19173D02*
X268924Y19212D01*
X250058Y19173D02*
X250105Y19212D01*
X231239Y19173D02*
X231286Y19212D01*
X212420Y19173D02*
X212467Y19212D01*
X193601Y19173D02*
X193649Y19212D01*
X174782Y19173D02*
X174830Y19212D01*
X155964Y19173D02*
X156011Y19212D01*
X137145Y19173D02*
X137192Y19212D01*
X118326Y19173D02*
X118373Y19212D01*
X99507Y19173D02*
X99554Y19212D01*
X80688Y19173D02*
X80735Y19212D01*
X61869Y19173D02*
X61916Y19212D01*
X43050Y19173D02*
X43097Y19212D01*
X5807Y19291D02*
X6119Y19291D01*
X9927Y19291D02*
X24749Y19291D01*
X28947Y19291D02*
X43261Y19291D01*
X47855Y19291D02*
X62080Y19291D01*
X66674Y19291D02*
X80899Y19291D01*
X85493Y19291D02*
X99718Y19291D01*
X104312Y19291D02*
X118537Y19291D01*
X123131Y19291D02*
X137356Y19291D01*
X141949Y19291D02*
X156174Y19291D01*
X160768Y19291D02*
X174993Y19291D01*
X179587Y19291D02*
X193812Y19291D01*
X198406Y19291D02*
X212631Y19291D01*
X217225Y19291D02*
X231450Y19291D01*
X236044Y19291D02*
X250269Y19291D01*
X254863Y19291D02*
X269088Y19291D01*
X273682Y19291D02*
X287907Y19291D01*
X292501Y19291D02*
X306726Y19291D01*
X311319Y19291D02*
X325225Y19291D01*
X330482Y19291D02*
X344628Y19291D01*
X348704Y19291D02*
X363599Y19291D01*
X367408Y19291D02*
X382496Y19291D01*
X386305Y19291D02*
X401127Y19291D01*
X405325Y19291D02*
X419639Y19291D01*
X424233Y19291D02*
X438458Y19291D01*
X443052Y19291D02*
X457277Y19291D01*
X461871Y19291D02*
X476096Y19291D01*
X480690Y19291D02*
X494915Y19291D01*
X499508Y19291D02*
X513733Y19291D01*
X518327Y19291D02*
X532552Y19291D01*
X537146Y19291D02*
X551371Y19291D01*
X555965Y19291D02*
X570190Y19291D01*
X574784Y19291D02*
X589009Y19291D01*
X593603Y19291D02*
X607828Y19291D01*
X612422Y19291D02*
X626647Y19291D01*
X631241Y19291D02*
X645466Y19291D01*
X650060Y19291D02*
X664285Y19291D01*
X668879Y19291D02*
X683104Y19291D01*
X687697Y19291D02*
X701922Y19291D01*
X706516Y19291D02*
X720741Y19291D01*
X725335Y19291D02*
X739560Y19291D01*
X744154Y19291D02*
X758644Y19291D01*
X762719Y19291D02*
X777615Y19291D01*
X781423Y19291D02*
X796512Y19291D01*
X800321Y19291D02*
X800492Y19291D01*
X739397Y19212D02*
X739464Y19251D01*
X720578Y19212D02*
X720646Y19251D01*
X701759Y19212D02*
X701827Y19251D01*
X682940Y19212D02*
X683008Y19251D01*
X664121Y19212D02*
X664189Y19251D01*
X645302Y19212D02*
X645370Y19251D01*
X626483Y19212D02*
X626551Y19251D01*
X607664Y19212D02*
X607732Y19251D01*
X588845Y19212D02*
X588913Y19251D01*
X570026Y19212D02*
X570094Y19251D01*
X551208Y19212D02*
X551275Y19251D01*
X532389Y19212D02*
X532457Y19251D01*
X513570Y19212D02*
X513638Y19251D01*
X494751Y19212D02*
X494819Y19251D01*
X475932Y19212D02*
X476000Y19251D01*
X457113Y19212D02*
X457181Y19251D01*
X438294Y19212D02*
X438362Y19251D01*
X419475Y19212D02*
X419543Y19251D01*
X306562Y19212D02*
X306630Y19251D01*
X287743Y19212D02*
X287811Y19251D01*
X268924Y19212D02*
X268992Y19251D01*
X250105Y19212D02*
X250173Y19251D01*
X231286Y19212D02*
X231354Y19251D01*
X212467Y19212D02*
X212535Y19251D01*
X193649Y19212D02*
X193716Y19251D01*
X174830Y19212D02*
X174897Y19251D01*
X156011Y19212D02*
X156079Y19251D01*
X137192Y19212D02*
X137260Y19251D01*
X118373Y19212D02*
X118441Y19251D01*
X99554Y19212D02*
X99622Y19251D01*
X80735Y19212D02*
X80803Y19251D01*
X61916Y19212D02*
X61984Y19251D01*
X43097Y19212D02*
X43165Y19251D01*
X800483Y19173D02*
X800389Y19251D01*
X781585Y19173D02*
X781491Y19251D01*
X386467Y19173D02*
X386373Y19251D01*
X367569Y19173D02*
X367475Y19251D01*
X10089Y19173D02*
X9995Y19251D01*
X763491Y18740D02*
X762766Y19251D01*
X349476Y18740D02*
X348751Y19251D01*
X800389Y19251D02*
X800321Y19291D01*
X781491Y19251D02*
X781423Y19291D01*
X739464Y19251D02*
X739560Y19291D01*
X720646Y19251D02*
X720741Y19291D01*
X701827Y19251D02*
X701922Y19291D01*
X683008Y19251D02*
X683104Y19291D01*
X664189Y19251D02*
X664285Y19291D01*
X645370Y19251D02*
X645466Y19291D01*
X626551Y19251D02*
X626647Y19291D01*
X607732Y19251D02*
X607828Y19291D01*
X588913Y19251D02*
X589009Y19291D01*
X570094Y19251D02*
X570190Y19291D01*
X551275Y19251D02*
X551371Y19291D01*
X532457Y19251D02*
X532552Y19291D01*
X513638Y19251D02*
X513733Y19291D01*
X494819Y19251D02*
X494915Y19291D01*
X476000Y19251D02*
X476096Y19291D01*
X457181Y19251D02*
X457277Y19291D01*
X438362Y19251D02*
X438458Y19291D01*
X419543Y19251D02*
X419639Y19291D01*
X386373Y19251D02*
X386305Y19291D01*
X367475Y19251D02*
X367408Y19291D01*
X306630Y19251D02*
X306726Y19291D01*
X287811Y19251D02*
X287907Y19291D01*
X268992Y19251D02*
X269088Y19291D01*
X250173Y19251D02*
X250269Y19291D01*
X231354Y19251D02*
X231450Y19291D01*
X212535Y19251D02*
X212631Y19291D01*
X193716Y19251D02*
X193812Y19291D01*
X174897Y19251D02*
X174993Y19291D01*
X156079Y19251D02*
X156174Y19291D01*
X137260Y19251D02*
X137356Y19291D01*
X118441Y19251D02*
X118537Y19291D01*
X99622Y19251D02*
X99718Y19291D01*
X80803Y19251D02*
X80899Y19291D01*
X61984Y19251D02*
X62080Y19291D01*
X43165Y19251D02*
X43261Y19291D01*
X9995Y19251D02*
X9927Y19291D01*
X406050Y18779D02*
X405325Y19291D01*
X29673Y18779D02*
X28947Y19291D01*
X800321Y19291D02*
X800176Y19330D01*
X781423Y19291D02*
X781278Y19330D01*
X386305Y19291D02*
X386160Y19330D01*
X367408Y19291D02*
X367262Y19330D01*
X9927Y19291D02*
X9782Y19330D01*
X762766Y19251D02*
X762672Y19330D01*
X348751Y19251D02*
X348656Y19330D01*
X762672Y19330D02*
X762604Y19370D01*
X348656Y19330D02*
X348589Y19370D01*
X405325Y19291D02*
X405231Y19370D01*
X28947Y19291D02*
X28853Y19370D01*
X762604Y19370D02*
X762459Y19409D01*
X405231Y19370D02*
X405163Y19409D01*
X348589Y19370D02*
X348443Y19409D01*
X28853Y19370D02*
X28785Y19409D01*
X744712Y18897D02*
X743987Y19409D01*
X725893Y18897D02*
X725168Y19409D01*
X707074Y18897D02*
X706349Y19409D01*
X688255Y18897D02*
X687530Y19409D01*
X669436Y18897D02*
X668711Y19409D01*
X650617Y18897D02*
X649892Y19409D01*
X631799Y18897D02*
X631073Y19409D01*
X612980Y18897D02*
X612255Y19409D01*
X594161Y18897D02*
X593436Y19409D01*
X575342Y18897D02*
X574617Y19409D01*
X556523Y18897D02*
X555798Y19409D01*
X537704Y18897D02*
X536979Y19409D01*
X518885Y18897D02*
X518160Y19409D01*
X500066Y18897D02*
X499341Y19409D01*
X481247Y18897D02*
X480522Y19409D01*
X462428Y18897D02*
X461703Y19409D01*
X443610Y18897D02*
X442884Y19409D01*
X424791Y18897D02*
X424066Y19409D01*
X311877Y18897D02*
X311152Y19409D01*
X293058Y18897D02*
X292333Y19409D01*
X274239Y18897D02*
X273514Y19409D01*
X255421Y18897D02*
X254695Y19409D01*
X236602Y18897D02*
X235877Y19409D01*
X217783Y18897D02*
X217058Y19409D01*
X198964Y18897D02*
X198239Y19409D01*
X180145Y18897D02*
X179420Y19409D01*
X161326Y18897D02*
X160601Y19409D01*
X142507Y18897D02*
X141782Y19409D01*
X123688Y18897D02*
X122963Y19409D01*
X104869Y18897D02*
X104144Y19409D01*
X86050Y18897D02*
X85325Y19409D01*
X67232Y18897D02*
X66507Y19409D01*
X48413Y18897D02*
X47688Y19409D01*
X405163Y19409D02*
X405018Y19448D01*
X28785Y19409D02*
X28640Y19448D01*
X743987Y19409D02*
X743893Y19488D01*
X725168Y19409D02*
X725074Y19488D01*
X706349Y19409D02*
X706255Y19488D01*
X687530Y19409D02*
X687436Y19488D01*
X668711Y19409D02*
X668617Y19488D01*
X649892Y19409D02*
X649798Y19488D01*
X631073Y19409D02*
X630979Y19488D01*
X612255Y19409D02*
X612160Y19488D01*
X593436Y19409D02*
X593341Y19488D01*
X574617Y19409D02*
X574523Y19488D01*
X555798Y19409D02*
X555704Y19488D01*
X536979Y19409D02*
X536885Y19488D01*
X518160Y19409D02*
X518066Y19488D01*
X499341Y19409D02*
X499247Y19488D01*
X480522Y19409D02*
X480428Y19488D01*
X461703Y19409D02*
X461609Y19488D01*
X442884Y19409D02*
X442790Y19488D01*
X424066Y19409D02*
X423971Y19488D01*
X311152Y19409D02*
X311058Y19488D01*
X292333Y19409D02*
X292239Y19488D01*
X273514Y19409D02*
X273420Y19488D01*
X254695Y19409D02*
X254601Y19488D01*
X235877Y19409D02*
X235782Y19488D01*
X217058Y19409D02*
X216964Y19488D01*
X198239Y19409D02*
X198145Y19488D01*
X179420Y19409D02*
X179326Y19488D01*
X160601Y19409D02*
X160507Y19488D01*
X141782Y19409D02*
X141688Y19488D01*
X122963Y19409D02*
X122869Y19488D01*
X104144Y19409D02*
X104050Y19488D01*
X85325Y19409D02*
X85231Y19488D01*
X66507Y19409D02*
X66412Y19488D01*
X47688Y19409D02*
X47593Y19488D01*
X5815Y19133D02*
X6498Y19488D01*
X796056Y19055D02*
X796892Y19488D01*
X777159Y19055D02*
X777994Y19488D01*
X382041Y19055D02*
X382876Y19488D01*
X363143Y19055D02*
X363979Y19488D01*
X796892Y19488D02*
X797072Y19527D01*
X777994Y19488D02*
X778175Y19527D01*
X743893Y19488D02*
X743825Y19527D01*
X725074Y19488D02*
X725006Y19527D01*
X706255Y19488D02*
X706187Y19527D01*
X687436Y19488D02*
X687368Y19527D01*
X668617Y19488D02*
X668549Y19527D01*
X649798Y19488D02*
X649730Y19527D01*
X630979Y19488D02*
X630911Y19527D01*
X612160Y19488D02*
X612093Y19527D01*
X593341Y19488D02*
X593274Y19527D01*
X574523Y19488D02*
X574455Y19527D01*
X555704Y19488D02*
X555636Y19527D01*
X536885Y19488D02*
X536817Y19527D01*
X518066Y19488D02*
X517998Y19527D01*
X499247Y19488D02*
X499179Y19527D01*
X480428Y19488D02*
X480360Y19527D01*
X461609Y19488D02*
X461541Y19527D01*
X442790Y19488D02*
X442722Y19527D01*
X423971Y19488D02*
X423904Y19527D01*
X382876Y19488D02*
X383057Y19527D01*
X363979Y19488D02*
X364159Y19527D01*
X311058Y19488D02*
X310990Y19527D01*
X292239Y19488D02*
X292171Y19527D01*
X273420Y19488D02*
X273352Y19527D01*
X254601Y19488D02*
X254533Y19527D01*
X235782Y19488D02*
X235715Y19527D01*
X216964Y19488D02*
X216896Y19527D01*
X198145Y19488D02*
X198077Y19527D01*
X179326Y19488D02*
X179258Y19527D01*
X160507Y19488D02*
X160439Y19527D01*
X141688Y19488D02*
X141620Y19527D01*
X122869Y19488D02*
X122801Y19527D01*
X104050Y19488D02*
X103982Y19527D01*
X85231Y19488D02*
X85163Y19527D01*
X66412Y19488D02*
X66345Y19527D01*
X47593Y19488D02*
X47526Y19527D01*
X6498Y19488D02*
X6679Y19527D01*
X330841Y19015D02*
X330177Y19527D01*
X324866Y19015D02*
X325531Y19527D01*
X743825Y19527D02*
X743679Y19566D01*
X725006Y19527D02*
X724861Y19566D01*
X706187Y19527D02*
X706042Y19566D01*
X687368Y19527D02*
X687223Y19566D01*
X668549Y19527D02*
X668404Y19566D01*
X649730Y19527D02*
X649585Y19566D01*
X630911Y19527D02*
X630766Y19566D01*
X612093Y19527D02*
X611947Y19566D01*
X593274Y19527D02*
X593128Y19566D01*
X574455Y19527D02*
X574309Y19566D01*
X555636Y19527D02*
X555491Y19566D01*
X536817Y19527D02*
X536672Y19566D01*
X517998Y19527D02*
X517853Y19566D01*
X499179Y19527D02*
X499034Y19566D01*
X480360Y19527D02*
X480215Y19566D01*
X461541Y19527D02*
X461396Y19566D01*
X442722Y19527D02*
X442577Y19566D01*
X423904Y19527D02*
X423758Y19566D01*
X330177Y19527D02*
X330129Y19566D01*
X325531Y19527D02*
X325578Y19566D01*
X310990Y19527D02*
X310845Y19566D01*
X292171Y19527D02*
X292026Y19566D01*
X273352Y19527D02*
X273207Y19566D01*
X254533Y19527D02*
X254388Y19566D01*
X235715Y19527D02*
X235569Y19566D01*
X216896Y19527D02*
X216750Y19566D01*
X198077Y19527D02*
X197931Y19566D01*
X179258Y19527D02*
X179113Y19566D01*
X160439Y19527D02*
X160294Y19566D01*
X141620Y19527D02*
X141475Y19566D01*
X122801Y19527D02*
X122656Y19566D01*
X103982Y19527D02*
X103837Y19566D01*
X85163Y19527D02*
X85018Y19566D01*
X66345Y19527D02*
X66199Y19566D01*
X47526Y19527D02*
X47380Y19566D01*
X758340Y19133D02*
X759176Y19566D01*
X344324Y19133D02*
X345160Y19566D01*
X759176Y19566D02*
X759356Y19606D01*
X345160Y19566D02*
X345340Y19606D01*
X330129Y19566D02*
X330062Y19606D01*
X325578Y19566D02*
X325646Y19606D01*
X800176Y19330D02*
X799400Y19606D01*
X781278Y19330D02*
X780502Y19606D01*
X386160Y19330D02*
X385384Y19606D01*
X367262Y19330D02*
X366487Y19606D01*
X9782Y19330D02*
X9006Y19606D01*
X400899Y19173D02*
X401735Y19606D01*
X24521Y19173D02*
X25357Y19606D01*
X799400Y19606D02*
X799331Y19645D01*
X780502Y19606D02*
X780433Y19645D01*
X401735Y19606D02*
X401915Y19645D01*
X385384Y19606D02*
X385315Y19645D01*
X366487Y19606D02*
X366417Y19645D01*
X330062Y19606D02*
X329955Y19645D01*
X325646Y19606D02*
X325753Y19645D01*
X25357Y19606D02*
X25537Y19645D01*
X9006Y19606D02*
X8937Y19645D01*
X797072Y19527D02*
X797639Y19645D01*
X778175Y19527D02*
X778741Y19645D01*
X383057Y19527D02*
X383623Y19645D01*
X364159Y19527D02*
X364725Y19645D01*
X6679Y19527D02*
X7245Y19645D01*
X8360Y19724D02*
X8363Y19724D01*
X365840Y19724D02*
X365844Y19724D01*
X384737Y19724D02*
X384741Y19724D01*
X779856Y19724D02*
X779859Y19724D01*
X798753Y19724D02*
X798757Y19724D01*
X799331Y19645D02*
X799151Y19685D01*
X780433Y19645D02*
X780253Y19685D01*
X385315Y19645D02*
X385135Y19685D01*
X366417Y19645D02*
X366237Y19685D01*
X8937Y19645D02*
X8757Y19685D01*
X762459Y19409D02*
X761684Y19685D01*
X348443Y19409D02*
X347668Y19685D01*
X799151Y19685D02*
X798757Y19724D01*
X780253Y19685D02*
X779859Y19724D01*
X761684Y19685D02*
X761614Y19724D01*
X385135Y19685D02*
X384741Y19724D01*
X366237Y19685D02*
X365844Y19724D01*
X347668Y19685D02*
X347599Y19724D01*
X8757Y19685D02*
X8363Y19724D01*
X797639Y19645D02*
X798018Y19724D01*
X778741Y19645D02*
X779120Y19724D01*
X383623Y19645D02*
X384002Y19724D01*
X364725Y19645D02*
X365104Y19724D01*
X7245Y19645D02*
X7624Y19724D01*
X759356Y19606D02*
X759922Y19724D01*
X345340Y19606D02*
X345906Y19724D01*
X405018Y19448D02*
X404243Y19724D01*
X28640Y19448D02*
X27865Y19724D01*
X739560Y19291D02*
X740396Y19724D01*
X720741Y19291D02*
X721577Y19724D01*
X701922Y19291D02*
X702758Y19724D01*
X683104Y19291D02*
X683939Y19724D01*
X664285Y19291D02*
X665120Y19724D01*
X645466Y19291D02*
X646302Y19724D01*
X626647Y19291D02*
X627483Y19724D01*
X607828Y19291D02*
X608664Y19724D01*
X589009Y19291D02*
X589845Y19724D01*
X570190Y19291D02*
X571026Y19724D01*
X551371Y19291D02*
X552207Y19724D01*
X532552Y19291D02*
X533388Y19724D01*
X513733Y19291D02*
X514569Y19724D01*
X494915Y19291D02*
X495750Y19724D01*
X476096Y19291D02*
X476931Y19724D01*
X457277Y19291D02*
X458113Y19724D01*
X438458Y19291D02*
X439294Y19724D01*
X419639Y19291D02*
X420475Y19724D01*
X306726Y19291D02*
X307561Y19724D01*
X287907Y19291D02*
X288743Y19724D01*
X269088Y19291D02*
X269924Y19724D01*
X250269Y19291D02*
X251105Y19724D01*
X231450Y19291D02*
X232286Y19724D01*
X212631Y19291D02*
X213467Y19724D01*
X193812Y19291D02*
X194648Y19724D01*
X174993Y19291D02*
X175829Y19724D01*
X156174Y19291D02*
X157010Y19724D01*
X137356Y19291D02*
X138191Y19724D01*
X118537Y19291D02*
X119372Y19724D01*
X99718Y19291D02*
X100554Y19724D01*
X80899Y19291D02*
X81735Y19724D01*
X62080Y19291D02*
X62916Y19724D01*
X43261Y19291D02*
X44097Y19724D01*
X347021Y19803D02*
X347025Y19803D01*
X761037Y19803D02*
X761040Y19803D01*
X798360Y19724D02*
X798189Y19763D01*
X798018Y19724D02*
X798189Y19763D01*
X779462Y19724D02*
X779291Y19763D01*
X779120Y19724D02*
X779291Y19763D01*
X761614Y19724D02*
X761434Y19763D01*
X740396Y19724D02*
X740576Y19763D01*
X721577Y19724D02*
X721757Y19763D01*
X702758Y19724D02*
X702938Y19763D01*
X683939Y19724D02*
X684120Y19763D01*
X665120Y19724D02*
X665301Y19763D01*
X646302Y19724D02*
X646482Y19763D01*
X627483Y19724D02*
X627663Y19763D01*
X608664Y19724D02*
X608844Y19763D01*
X589845Y19724D02*
X590025Y19763D01*
X571026Y19724D02*
X571206Y19763D01*
X552207Y19724D02*
X552387Y19763D01*
X533388Y19724D02*
X533568Y19763D01*
X514569Y19724D02*
X514749Y19763D01*
X495750Y19724D02*
X495931Y19763D01*
X476931Y19724D02*
X477112Y19763D01*
X458113Y19724D02*
X458293Y19763D01*
X439294Y19724D02*
X439474Y19763D01*
X420475Y19724D02*
X420655Y19763D01*
X404243Y19724D02*
X404173Y19763D01*
X384344Y19724D02*
X384173Y19763D01*
X384002Y19724D02*
X384173Y19763D01*
X365446Y19724D02*
X365275Y19763D01*
X365104Y19724D02*
X365275Y19763D01*
X347599Y19724D02*
X347418Y19763D01*
X307561Y19724D02*
X307742Y19763D01*
X288743Y19724D02*
X288923Y19763D01*
X269924Y19724D02*
X270104Y19763D01*
X251105Y19724D02*
X251285Y19763D01*
X232286Y19724D02*
X232466Y19763D01*
X213467Y19724D02*
X213647Y19763D01*
X194648Y19724D02*
X194828Y19763D01*
X175829Y19724D02*
X176009Y19763D01*
X157010Y19724D02*
X157190Y19763D01*
X138191Y19724D02*
X138372Y19763D01*
X119372Y19724D02*
X119553Y19763D01*
X100554Y19724D02*
X100734Y19763D01*
X81735Y19724D02*
X81915Y19763D01*
X62916Y19724D02*
X63096Y19763D01*
X44097Y19724D02*
X44277Y19763D01*
X27865Y19724D02*
X27795Y19763D01*
X7966Y19724D02*
X7795Y19763D01*
X7624Y19724D02*
X7795Y19763D01*
X401915Y19645D02*
X402481Y19763D01*
X25537Y19645D02*
X26103Y19763D01*
X5807Y19842D02*
X26482Y19842D01*
X26824Y19842D02*
X44654Y19842D01*
X46605Y19842D02*
X63473Y19842D01*
X65424Y19842D02*
X82292Y19842D01*
X84243Y19842D02*
X101111Y19842D01*
X103062Y19842D02*
X119930Y19842D01*
X121880Y19842D02*
X138749Y19842D01*
X140699Y19842D02*
X157567Y19842D01*
X159518Y19842D02*
X176386Y19842D01*
X178337Y19842D02*
X195205Y19842D01*
X197156Y19842D02*
X214024Y19842D01*
X215975Y19842D02*
X232843Y19842D01*
X234794Y19842D02*
X251662Y19842D01*
X253613Y19842D02*
X270481Y19842D01*
X272432Y19842D02*
X289300Y19842D01*
X291251Y19842D02*
X308119Y19842D01*
X310069Y19842D02*
X326228Y19842D01*
X329480Y19842D02*
X402860Y19842D01*
X403202Y19842D02*
X421032Y19842D01*
X422983Y19842D02*
X439851Y19842D01*
X441802Y19842D02*
X458670Y19842D01*
X460621Y19842D02*
X477489Y19842D01*
X479439Y19842D02*
X496308Y19842D01*
X498258Y19842D02*
X515126Y19842D01*
X517077Y19842D02*
X533945Y19842D01*
X535896Y19842D02*
X552764Y19842D01*
X554715Y19842D02*
X571583Y19842D01*
X573534Y19842D02*
X590402Y19842D01*
X592353Y19842D02*
X609221Y19842D01*
X611172Y19842D02*
X628040Y19842D01*
X629991Y19842D02*
X646859Y19842D01*
X648810Y19842D02*
X665678Y19842D01*
X667628Y19842D02*
X684497Y19842D01*
X686447Y19842D02*
X703315Y19842D01*
X705266Y19842D02*
X722134Y19842D01*
X724085Y19842D02*
X740953Y19842D01*
X742904Y19842D02*
X800492Y19842D01*
X761434Y19763D02*
X761040Y19803D01*
X404173Y19763D02*
X403993Y19803D01*
X347418Y19763D02*
X347025Y19803D01*
X27795Y19763D02*
X27615Y19803D01*
X759922Y19724D02*
X760301Y19803D01*
X345906Y19724D02*
X346285Y19803D01*
X760643Y19803D02*
X760472Y19842D01*
X760301Y19803D02*
X760472Y19842D01*
X403993Y19803D02*
X403599Y19842D01*
X346627Y19803D02*
X346456Y19842D01*
X346285Y19803D02*
X346456Y19842D01*
X27615Y19803D02*
X27221Y19842D01*
X402481Y19763D02*
X402860Y19842D01*
X26103Y19763D02*
X26482Y19842D01*
X743679Y19566D02*
X742904Y19842D01*
X724861Y19566D02*
X724085Y19842D01*
X706042Y19566D02*
X705266Y19842D01*
X687223Y19566D02*
X686447Y19842D01*
X668404Y19566D02*
X667628Y19842D01*
X649585Y19566D02*
X648810Y19842D01*
X630766Y19566D02*
X629991Y19842D01*
X611947Y19566D02*
X611172Y19842D01*
X593128Y19566D02*
X592353Y19842D01*
X574309Y19566D02*
X573534Y19842D01*
X555491Y19566D02*
X554715Y19842D01*
X536672Y19566D02*
X535896Y19842D01*
X517853Y19566D02*
X517077Y19842D01*
X499034Y19566D02*
X498258Y19842D01*
X480215Y19566D02*
X479439Y19842D01*
X461396Y19566D02*
X460621Y19842D01*
X442577Y19566D02*
X441802Y19842D01*
X423758Y19566D02*
X422983Y19842D01*
X310845Y19566D02*
X310069Y19842D01*
X292026Y19566D02*
X291251Y19842D01*
X273207Y19566D02*
X272432Y19842D01*
X254388Y19566D02*
X253613Y19842D01*
X235569Y19566D02*
X234794Y19842D01*
X216750Y19566D02*
X215975Y19842D01*
X197931Y19566D02*
X197156Y19842D01*
X179113Y19566D02*
X178337Y19842D01*
X160294Y19566D02*
X159518Y19842D01*
X141475Y19566D02*
X140699Y19842D01*
X122656Y19566D02*
X121880Y19842D01*
X103837Y19566D02*
X103062Y19842D01*
X85018Y19566D02*
X84243Y19842D01*
X66199Y19566D02*
X65424Y19842D01*
X47380Y19566D02*
X46605Y19842D01*
X742904Y19842D02*
X742835Y19881D01*
X724085Y19842D02*
X724016Y19881D01*
X705266Y19842D02*
X705197Y19881D01*
X686447Y19842D02*
X686378Y19881D01*
X667628Y19842D02*
X667559Y19881D01*
X648810Y19842D02*
X648740Y19881D01*
X629991Y19842D02*
X629921Y19881D01*
X611172Y19842D02*
X611102Y19881D01*
X592353Y19842D02*
X592284Y19881D01*
X573534Y19842D02*
X573465Y19881D01*
X554715Y19842D02*
X554646Y19881D01*
X535896Y19842D02*
X535827Y19881D01*
X517077Y19842D02*
X517008Y19881D01*
X498258Y19842D02*
X498189Y19881D01*
X479439Y19842D02*
X479370Y19881D01*
X460621Y19842D02*
X460551Y19881D01*
X441802Y19842D02*
X441732Y19881D01*
X422983Y19842D02*
X422913Y19881D01*
X403202Y19842D02*
X403031Y19881D01*
X402860Y19842D02*
X403031Y19881D01*
X310069Y19842D02*
X310000Y19881D01*
X291251Y19842D02*
X291181Y19881D01*
X272432Y19842D02*
X272362Y19881D01*
X253613Y19842D02*
X253543Y19881D01*
X234794Y19842D02*
X234725Y19881D01*
X215975Y19842D02*
X215906Y19881D01*
X197156Y19842D02*
X197087Y19881D01*
X178337Y19842D02*
X178268Y19881D01*
X159518Y19842D02*
X159449Y19881D01*
X140699Y19842D02*
X140630Y19881D01*
X121880Y19842D02*
X121811Y19881D01*
X103062Y19842D02*
X102992Y19881D01*
X84243Y19842D02*
X84173Y19881D01*
X65424Y19842D02*
X65354Y19881D01*
X46605Y19842D02*
X46536Y19881D01*
X26824Y19842D02*
X26653Y19881D01*
X26482Y19842D02*
X26653Y19881D01*
X740576Y19763D02*
X741143Y19881D01*
X721757Y19763D02*
X722324Y19881D01*
X702938Y19763D02*
X703505Y19881D01*
X684120Y19763D02*
X684686Y19881D01*
X665301Y19763D02*
X665867Y19881D01*
X646482Y19763D02*
X647048Y19881D01*
X627663Y19763D02*
X628229Y19881D01*
X608844Y19763D02*
X609410Y19881D01*
X590025Y19763D02*
X590592Y19881D01*
X571206Y19763D02*
X571773Y19881D01*
X552387Y19763D02*
X552954Y19881D01*
X533568Y19763D02*
X534135Y19881D01*
X514749Y19763D02*
X515316Y19881D01*
X495931Y19763D02*
X496497Y19881D01*
X477112Y19763D02*
X477678Y19881D01*
X458293Y19763D02*
X458859Y19881D01*
X439474Y19763D02*
X440040Y19881D01*
X420655Y19763D02*
X421221Y19881D01*
X307742Y19763D02*
X308308Y19881D01*
X288923Y19763D02*
X289489Y19881D01*
X270104Y19763D02*
X270670Y19881D01*
X251285Y19763D02*
X251851Y19881D01*
X232466Y19763D02*
X233032Y19881D01*
X213647Y19763D02*
X214214Y19881D01*
X194828Y19763D02*
X195395Y19881D01*
X176009Y19763D02*
X176576Y19881D01*
X157190Y19763D02*
X157757Y19881D01*
X138372Y19763D02*
X138938Y19881D01*
X119553Y19763D02*
X120119Y19881D01*
X100734Y19763D02*
X101300Y19881D01*
X81915Y19763D02*
X82481Y19881D01*
X63096Y19763D02*
X63662Y19881D01*
X44277Y19763D02*
X44843Y19881D01*
X45958Y19960D02*
X45962Y19960D01*
X64777Y19960D02*
X64781Y19960D01*
X83596Y19960D02*
X83599Y19960D01*
X102415Y19960D02*
X102418Y19960D01*
X121234Y19960D02*
X121237Y19960D01*
X140052Y19960D02*
X140056Y19960D01*
X158871Y19960D02*
X158875Y19960D01*
X177690Y19960D02*
X177694Y19960D01*
X196509Y19960D02*
X196513Y19960D01*
X215328Y19960D02*
X215332Y19960D01*
X234147Y19960D02*
X234151Y19960D01*
X252966Y19960D02*
X252970Y19960D01*
X271785Y19960D02*
X271788Y19960D01*
X290604Y19960D02*
X290607Y19960D01*
X309423Y19960D02*
X309426Y19960D01*
X422336Y19960D02*
X422340Y19960D01*
X441155Y19960D02*
X441159Y19960D01*
X459974Y19960D02*
X459977Y19960D01*
X478793Y19960D02*
X478796Y19960D01*
X497611Y19960D02*
X497615Y19960D01*
X516430Y19960D02*
X516434Y19960D01*
X535249Y19960D02*
X535253Y19960D01*
X554068Y19960D02*
X554072Y19960D01*
X572887Y19960D02*
X572891Y19960D01*
X591706Y19960D02*
X591710Y19960D01*
X610525Y19960D02*
X610529Y19960D01*
X629344Y19960D02*
X629347Y19960D01*
X648163Y19960D02*
X648166Y19960D01*
X666982Y19960D02*
X666985Y19960D01*
X685800Y19960D02*
X685804Y19960D01*
X704619Y19960D02*
X704623Y19960D01*
X723438Y19960D02*
X723442Y19960D01*
X742257Y19960D02*
X742261Y19960D01*
X742835Y19881D02*
X742655Y19921D01*
X724016Y19881D02*
X723836Y19921D01*
X705197Y19881D02*
X705017Y19921D01*
X686378Y19881D02*
X686198Y19921D01*
X667559Y19881D02*
X667379Y19921D01*
X648740Y19881D02*
X648560Y19921D01*
X629921Y19881D02*
X629741Y19921D01*
X611102Y19881D02*
X610922Y19921D01*
X592284Y19881D02*
X592103Y19921D01*
X573465Y19881D02*
X573284Y19921D01*
X554646Y19881D02*
X554466Y19921D01*
X535827Y19881D02*
X535647Y19921D01*
X517008Y19881D02*
X516828Y19921D01*
X498189Y19881D02*
X498009Y19921D01*
X479370Y19881D02*
X479190Y19921D01*
X460551Y19881D02*
X460371Y19921D01*
X441732Y19881D02*
X441552Y19921D01*
X422913Y19881D02*
X422733Y19921D01*
X310000Y19881D02*
X309820Y19921D01*
X291181Y19881D02*
X291001Y19921D01*
X272362Y19881D02*
X272182Y19921D01*
X253543Y19881D02*
X253363Y19921D01*
X234725Y19881D02*
X234544Y19921D01*
X215906Y19881D02*
X215725Y19921D01*
X197087Y19881D02*
X196907Y19921D01*
X178268Y19881D02*
X178088Y19921D01*
X159449Y19881D02*
X159269Y19921D01*
X140630Y19881D02*
X140450Y19921D01*
X121811Y19881D02*
X121631Y19921D01*
X102992Y19881D02*
X102812Y19921D01*
X84173Y19881D02*
X83993Y19921D01*
X65354Y19881D02*
X65174Y19921D01*
X46536Y19881D02*
X46355Y19921D01*
X742655Y19921D02*
X742261Y19960D01*
X723836Y19921D02*
X723442Y19960D01*
X705017Y19921D02*
X704623Y19960D01*
X686198Y19921D02*
X685804Y19960D01*
X667379Y19921D02*
X666985Y19960D01*
X648560Y19921D02*
X648166Y19960D01*
X629741Y19921D02*
X629347Y19960D01*
X610922Y19921D02*
X610529Y19960D01*
X592103Y19921D02*
X591710Y19960D01*
X573284Y19921D02*
X572891Y19960D01*
X554466Y19921D02*
X554072Y19960D01*
X535647Y19921D02*
X535253Y19960D01*
X516828Y19921D02*
X516434Y19960D01*
X498009Y19921D02*
X497615Y19960D01*
X479190Y19921D02*
X478796Y19960D01*
X460371Y19921D02*
X459977Y19960D01*
X441552Y19921D02*
X441159Y19960D01*
X422733Y19921D02*
X422340Y19960D01*
X309820Y19921D02*
X309426Y19960D01*
X291001Y19921D02*
X290607Y19960D01*
X272182Y19921D02*
X271788Y19960D01*
X253363Y19921D02*
X252970Y19960D01*
X234544Y19921D02*
X234151Y19960D01*
X215725Y19921D02*
X215332Y19960D01*
X196907Y19921D02*
X196513Y19960D01*
X178088Y19921D02*
X177694Y19960D01*
X159269Y19921D02*
X158875Y19960D01*
X140450Y19921D02*
X140056Y19960D01*
X121631Y19921D02*
X121237Y19960D01*
X102812Y19921D02*
X102418Y19960D01*
X83993Y19921D02*
X83599Y19960D01*
X65174Y19921D02*
X64781Y19960D01*
X46355Y19921D02*
X45962Y19960D01*
X741143Y19881D02*
X741522Y19960D01*
X722324Y19881D02*
X722703Y19960D01*
X703505Y19881D02*
X703884Y19960D01*
X684686Y19881D02*
X685065Y19960D01*
X665867Y19881D02*
X666246Y19960D01*
X647048Y19881D02*
X647427Y19960D01*
X628229Y19881D02*
X628608Y19960D01*
X609410Y19881D02*
X609789Y19960D01*
X590592Y19881D02*
X590970Y19960D01*
X571773Y19881D02*
X572152Y19960D01*
X552954Y19881D02*
X553333Y19960D01*
X534135Y19881D02*
X534514Y19960D01*
X515316Y19881D02*
X515695Y19960D01*
X496497Y19881D02*
X496876Y19960D01*
X477678Y19881D02*
X478057Y19960D01*
X458859Y19881D02*
X459238Y19960D01*
X440040Y19881D02*
X440419Y19960D01*
X421221Y19881D02*
X421600Y19960D01*
X308308Y19881D02*
X308687Y19960D01*
X289489Y19881D02*
X289868Y19960D01*
X270670Y19881D02*
X271049Y19960D01*
X251851Y19881D02*
X252230Y19960D01*
X233032Y19881D02*
X233411Y19960D01*
X214214Y19881D02*
X214592Y19960D01*
X195395Y19881D02*
X195774Y19960D01*
X176576Y19881D02*
X176955Y19960D01*
X157757Y19881D02*
X158136Y19960D01*
X138938Y19881D02*
X139317Y19960D01*
X120119Y19881D02*
X120498Y19960D01*
X101300Y19881D02*
X101679Y19960D01*
X82481Y19881D02*
X82860Y19960D01*
X63662Y19881D02*
X64041Y19960D01*
X44843Y19881D02*
X45222Y19960D01*
X741863Y19960D02*
X741693Y20000D01*
X741522Y19960D02*
X741693Y20000D01*
X723045Y19960D02*
X722874Y20000D01*
X722703Y19960D02*
X722874Y20000D01*
X704226Y19960D02*
X704055Y20000D01*
X703884Y19960D02*
X704055Y20000D01*
X685407Y19960D02*
X685236Y20000D01*
X685065Y19960D02*
X685236Y20000D01*
X666588Y19960D02*
X666417Y20000D01*
X666246Y19960D02*
X666417Y20000D01*
X647769Y19960D02*
X647598Y20000D01*
X647427Y19960D02*
X647598Y20000D01*
X628950Y19960D02*
X628779Y20000D01*
X628608Y19960D02*
X628779Y20000D01*
X610131Y19960D02*
X609960Y20000D01*
X609789Y19960D02*
X609960Y20000D01*
X591312Y19960D02*
X591141Y20000D01*
X590970Y19960D02*
X591141Y20000D01*
X572493Y19960D02*
X572322Y20000D01*
X572152Y19960D02*
X572322Y20000D01*
X553674Y19960D02*
X553504Y20000D01*
X553333Y19960D02*
X553504Y20000D01*
X534856Y19960D02*
X534685Y20000D01*
X534514Y19960D02*
X534685Y20000D01*
X516037Y19960D02*
X515866Y20000D01*
X515695Y19960D02*
X515866Y20000D01*
X497218Y19960D02*
X497047Y20000D01*
X496876Y19960D02*
X497047Y20000D01*
X478399Y19960D02*
X478228Y20000D01*
X478057Y19960D02*
X478228Y20000D01*
X459580Y19960D02*
X459409Y20000D01*
X459238Y19960D02*
X459409Y20000D01*
X440761Y19960D02*
X440590Y20000D01*
X440419Y19960D02*
X440590Y20000D01*
X421942Y19960D02*
X421771Y20000D01*
X421600Y19960D02*
X421771Y20000D01*
X309029Y19960D02*
X308858Y20000D01*
X308687Y19960D02*
X308858Y20000D01*
X290210Y19960D02*
X290039Y20000D01*
X289868Y19960D02*
X290039Y20000D01*
X271391Y19960D02*
X271220Y20000D01*
X271049Y19960D02*
X271220Y20000D01*
X252572Y19960D02*
X252401Y20000D01*
X252230Y19960D02*
X252401Y20000D01*
X233753Y19960D02*
X233582Y20000D01*
X233411Y19960D02*
X233582Y20000D01*
X214934Y19960D02*
X214763Y20000D01*
X214592Y19960D02*
X214763Y20000D01*
X196115Y19960D02*
X195945Y20000D01*
X195774Y19960D02*
X195945Y20000D01*
X177297Y19960D02*
X177126Y20000D01*
X176955Y19960D02*
X177126Y20000D01*
X158478Y19960D02*
X158307Y20000D01*
X158136Y19960D02*
X158307Y20000D01*
X139659Y19960D02*
X139488Y20000D01*
X139317Y19960D02*
X139488Y20000D01*
X120840Y19960D02*
X120669Y20000D01*
X120498Y19960D02*
X120669Y20000D01*
X102021Y19960D02*
X101850Y20000D01*
X101679Y19960D02*
X101850Y20000D01*
X83202Y19960D02*
X83031Y20000D01*
X82860Y19960D02*
X83031Y20000D01*
X64383Y19960D02*
X64212Y20000D01*
X64041Y19960D02*
X64212Y20000D01*
X45564Y19960D02*
X45393Y20000D01*
X45222Y19960D02*
X45393Y20000D01*
X329955Y19645D02*
X329099Y20000D01*
X325753Y19645D02*
X326608Y20000D01*
X329099Y20000D02*
X328919Y20039D01*
X326608Y20000D02*
X326789Y20039D01*
X328919Y20039D02*
X328654Y20078D01*
X326789Y20039D02*
X327054Y20078D01*
X328654Y20078D02*
X328056Y20157D01*
X327054Y20078D02*
X327652Y20157D01*
X328056Y20157D02*
X327854Y20196D01*
X327652Y20157D02*
X327854Y20196D01*
X5807Y20393D02*
X800492Y20393D01*
X5807Y20944D02*
X800492Y20944D01*
X5807Y21496D02*
X800492Y21496D01*
X5807Y22047D02*
X800492Y22047D01*
X5807Y22598D02*
X800492Y22598D01*
X5807Y23149D02*
X800492Y23149D01*
X5807Y23700D02*
X800492Y23700D01*
X5807Y24251D02*
X800492Y24251D01*
X5807Y24803D02*
X800492Y24803D01*
X5807Y25354D02*
X800492Y25354D01*
X5807Y25905D02*
X800492Y25905D01*
X5807Y26456D02*
X800492Y26456D01*
X5807Y27007D02*
X800492Y27007D01*
X5807Y27559D02*
X800492Y27559D01*
X5807Y28110D02*
X800492Y28110D01*
X5807Y28661D02*
X800492Y28661D01*
X5807Y29212D02*
X800492Y29212D01*
X5807Y29763D02*
X800492Y29763D01*
X5807Y30314D02*
X800492Y30314D01*
X5807Y30866D02*
X800492Y30866D01*
X5807Y31417D02*
X800492Y31417D01*
X5807Y31968D02*
X800492Y31968D01*
X5807Y32519D02*
X800492Y32519D01*
X5807Y33070D02*
X800492Y33070D01*
X5807Y33622D02*
X800492Y33622D01*
X5807Y34173D02*
X800492Y34173D01*
X5807Y34724D02*
X800492Y34724D01*
X5807Y35275D02*
X800492Y35275D01*
X5807Y35826D02*
X800492Y35826D01*
X5807Y36377D02*
X800492Y36377D01*
X5807Y36929D02*
X800492Y36929D01*
X5807Y37480D02*
X800492Y37480D01*
X5807Y38031D02*
X800492Y38031D01*
X5807Y38582D02*
X800492Y38582D01*
X5807Y39133D02*
X800492Y39133D01*
X5807Y39685D02*
X800492Y39685D01*
X5807Y40236D02*
X800492Y40236D01*
X5807Y40787D02*
X800492Y40787D01*
X5807Y41338D02*
X800492Y41338D01*
X5807Y41889D02*
X800492Y41889D01*
X5807Y42440D02*
X800492Y42440D01*
X5807Y42992D02*
X800492Y42992D01*
X5807Y43543D02*
X800492Y43543D01*
X5807Y44094D02*
X800492Y44094D01*
X5807Y44645D02*
X800492Y44645D01*
X5807Y45196D02*
X800492Y45196D01*
X5807Y45748D02*
X800492Y45748D01*
X5807Y46299D02*
X800492Y46299D01*
X5807Y46850D02*
X800492Y46850D01*
X5807Y47401D02*
X800492Y47401D01*
X5807Y47952D02*
X800492Y47952D01*
X5807Y48503D02*
X800492Y48503D01*
X5807Y49055D02*
X800492Y49055D01*
X5807Y49606D02*
X800492Y49606D01*
X5807Y50157D02*
X800492Y50157D01*
X5807Y50708D02*
X800492Y50708D01*
X5807Y51259D02*
X800492Y51259D01*
X5807Y51811D02*
X800492Y51811D01*
X5807Y52362D02*
X800492Y52362D01*
X5807Y52913D02*
X800492Y52913D01*
X5807Y53464D02*
X800492Y53464D01*
X5807Y54015D02*
X800492Y54015D01*
X5807Y54566D02*
X800492Y54566D01*
X5807Y55118D02*
X800492Y55118D01*
X5807Y55669D02*
X800492Y55669D01*
X5807Y56220D02*
X800492Y56220D01*
X5807Y56771D02*
X800492Y56771D01*
X5807Y57322D02*
X800492Y57322D01*
X5807Y57874D02*
X800492Y57874D01*
X5807Y58425D02*
X800492Y58425D01*
X5807Y58976D02*
X800492Y58976D01*
X5807Y59527D02*
X800492Y59527D01*
X5807Y60078D02*
X800492Y60078D01*
X5807Y60629D02*
X800492Y60629D01*
X5807Y61181D02*
X800492Y61181D01*
X5807Y61732D02*
X800492Y61732D01*
X5807Y62283D02*
X800492Y62283D01*
X5807Y62834D02*
X800492Y62834D01*
X5807Y63385D02*
X800492Y63385D01*
X5807Y63937D02*
X800492Y63937D01*
X5807Y64488D02*
X800492Y64488D01*
X5807Y65039D02*
X800492Y65039D01*
X5807Y65590D02*
X800492Y65590D01*
X5807Y66141D02*
X800492Y66141D01*
X5807Y66692D02*
X800492Y66692D01*
X5807Y67244D02*
X800492Y67244D01*
X5807Y67795D02*
X800492Y67795D01*
X5807Y68346D02*
X800492Y68346D01*
X5807Y68897D02*
X800492Y68897D01*
X5807Y69448D02*
X800492Y69448D01*
X5807Y70000D02*
X800492Y70000D01*
X5807Y70551D02*
X800492Y70551D01*
X5807Y71102D02*
X800492Y71102D01*
X5807Y71653D02*
X800492Y71653D01*
X5807Y72204D02*
X800492Y72204D01*
X5807Y72755D02*
X800492Y72755D01*
X5807Y73307D02*
X800492Y73307D01*
X5807Y73858D02*
X800492Y73858D01*
X5807Y74409D02*
X800492Y74409D01*
X5807Y74960D02*
X800492Y74960D01*
X5807Y75511D02*
X800492Y75511D01*
X5807Y76062D02*
X800492Y76062D01*
X5807Y76614D02*
X800492Y76614D01*
X5807Y77165D02*
X800492Y77165D01*
X5807Y77362D02*
X800492Y77362D01*
X800492Y19173D02*
X800492Y77362D01*
X5807Y19133D02*
X5807Y77362D01*
M02*
